<?xml version="1.0" encoding="utf-8"?>
<!-- Generator: Adobe Illustrator 26.0.0, SVG Export Plug-In . SVG Version: 6.00 Build 0)  -->
<svg version="1.1" id="Layer_1" xmlns="http://www.w3.org/2000/svg" xmlns:xlink="http://www.w3.org/1999/xlink" x="0px" y="0px"
	 viewBox="0 0 750 500" style="enable-background:new 0 0 750 500;" xml:space="preserve">
<style type="text/css">
	.st0{fill:#ECECEC;}
	.st1{fill:#F5F5F5;}
	.st2{fill:#F0F0F0;}
	.st3{fill:#E7E7E7;}
	.st4{fill:#7A4DF6;}
	.st5{opacity:0.7;fill:#FFFFFF;enable-background:new    ;}
	.st6{fill:none;stroke:#1A2E35;stroke-linecap:round;stroke-linejoin:round;stroke-miterlimit:10;}
	.st7{opacity:0.3;fill:#7A4DF6;enable-background:new    ;}
	.st8{opacity:0.3;}
	.st9{opacity:0.6;enable-background:new    ;}
	.st10{opacity:0.4;fill:#FFFFFF;enable-background:new    ;}
	.st11{opacity:0.2;enable-background:new    ;}
	.st12{opacity:0.4;fill:#7A4DF6;enable-background:new    ;}
	.st13{opacity:0.7;enable-background:new    ;}
	.st14{fill:#FFFFFF;}
	.st15{fill:#1A2E35;}
	.st16{opacity:0.5;fill:#FFFFFF;enable-background:new    ;}
	.st17{opacity:0.6;fill:#FFFFFF;enable-background:new    ;}
	.st18{fill:#FCB373;}
	.st19{fill:#007CFF;}
	.st20{opacity:0.2;fill:#7A4DF6;}
	.st21{fill:#EC873E;}
	.st22{fill:none;stroke:#1A2E35;stroke-width:0.5263;stroke-linecap:round;stroke-linejoin:round;stroke-miterlimit:10;}
	.st23{opacity:0.4;fill:#7A4DF6;}
	.st24{opacity:0.3;fill:#FFFFFF;enable-background:new    ;}
	.st25{opacity:0.8;fill:#FFFFFF;enable-background:new    ;}
</style>
<g>
	<rect x="53.9" y="397.4" class="st0" width="592.9" height="0.3"/>
	<rect x="548.1" y="415.6" class="st0" width="39.3" height="0.3"/>
	<rect x="436.4" y="418.7" class="st0" width="10.3" height="0.3"/>
	<rect x="524.2" y="405.1" class="st0" width="22.8" height="0.3"/>
	<rect x="116.1" y="407" class="st0" width="51.2" height="0.3"/>
	<rect x="177.9" y="407" class="st0" width="7.5" height="0.3"/>
	<rect x="209.8" y="411.8" class="st0" width="111.1" height="0.3"/>
	<path class="st0" d="M335,346.9H106c-3.7,0-6.8-2.9-6.8-6.5V33.3c0-3.6,3-6.5,6.8-6.5h229c3.7,0,6.8,2.9,6.8,6.5v307.2
		C341.7,344,338.7,346.9,335,346.9z M106,27.1c-3.6,0-6.5,2.8-6.5,6.2v307.2c0,3.4,2.9,6.2,6.5,6.2h229c3.6,0,6.5-2.8,6.5-6.2V33.3
		c0-3.4-2.9-6.2-6.5-6.2H106z"/>
	<path class="st0" d="M591.5,346.9h-229c-3.7,0-6.8-2.9-6.8-6.5V33.3c0-3.6,3-6.5,6.8-6.5h229c3.7,0,6.8,2.9,6.8,6.5v307.2
		C598.2,344,595.2,346.9,591.5,346.9z M362.5,27.1c-3.6,0-6.5,2.8-6.5,6.2v307.2c0,3.4,2.9,6.2,6.5,6.2h229c3.6,0,6.5-2.8,6.5-6.2
		V33.3c0-3.4-2.9-6.2-6.5-6.2H362.5z"/>
</g>
<g>
	<g>
		<path class="st1" d="M407.8,391h-27.5l14.4-112.3c0.6-4.8,5.1-8.6,10.1-8.6h9.4h110.4L507.2,391H407.8z"/>
		<path class="st2" d="M494.9,391h27.5l14.4-112.3c0.6-4.8-2.9-8.6-7.9-8.6h-9.4c-5,0-9.5,3.9-10.1,8.6L494.9,391z"/>
		<g>
			<path class="st3" d="M484.8,390.8l5-54.3c0.2-2.4,2.2-4.4,4.7-4.7l2-0.2c3.4-0.4,6-3,6.3-6.3l0.9-9.9c0.4-4.1-3-7.5-7.2-7.5h45.9
				c4.3,0,7.6,3.5,7.2,7.5l-0.9,9.9c-0.3,3.3-2.9,5.9-6.3,6.3l-2,0.2c-2.5,0.3-4.5,2.3-4.7,4.7l-5,54.3c-0.4,4-3.8,7-8,7h-45.9
				C481,397.8,484.4,394.8,484.8,390.8z"/>
		</g>
		<path class="st3" d="M358.4,322.9c-0.8-8.5-8.3-15.1-17.2-15.1h22.2h17.8c9,0,16.5,6.5,17.2,15.1l3.9,43.1h-40L358.4,322.9z"/>
		<path class="st2" d="M323.5,307.8h17.8c9,0,16.5,6.5,17.2,15.1l3.9,43.1h95.2l3.9-43.1c0.8-8.5,8.3-15.1,17.2-15.1h17.8
			c4.3,0,7.6,3.5,7.2,7.5l-0.9,9.9c-0.3,3.3-2.9,5.9-6.3,6.3l-2,0.2c-2.5,0.3-4.5,2.3-4.7,4.7l-5,54.3c-0.4,4-3.8,7-8,7H343.2
			c-4.2,0-7.6-3-8-7l-5-54.3c-0.2-2.4-2.2-4.4-4.7-4.7l-2-0.2c-3.4-0.4-6-3-6.3-6.3l-0.9-9.9C315.8,311.3,319.2,307.8,323.5,307.8z"
			/>
	</g>
	<g>
		<path class="st3" d="M414,116.7c0,0-1.4-8.7,5.3-14.4c6.7-5.6,6.1-8.9,4.2-9.4c-1.9-0.4-3.7,5.2-6.6,6.7c0,0-0.1-8,2.9-10.9
			c3-2.9,4.5-10.5,1.7-10.7c-2.8-0.1-3.1,4.5-3.7,7.8c-0.6,3.3-3.8,7.9-3.8,7.9s-0.6-7.1-2.5-10.1c-1.9-2.9,3.2-9.7,1.2-12.6
			c-2-2.9-5.5,2.7-5.2,9c0.3,6.3,4.7,13,3.7,19.6c0,0-1.9-4.6-3.7-5c-1.7-0.4-3.5-3.5-4.7-4.6c-1.2-1.1-2.6,2.8,0,6.4
			c2.6,3.6,9.4,13.4,8.4,21.3L414,116.7z"/>
		<path class="st1" d="M418,112.7l2.2,13.1c0.7,4-2.6,7.7-6.9,7.7h-2.3c-4.3,0-7.6-3.7-6.9-7.7l2.2-13.1H418z"/>
		
			<rect x="384.9" y="128.7" transform="matrix(-1 -1.224647e-16 1.224647e-16 -1 924.4522 264.9502)" class="st3" width="154.7" height="7.6"/>
		
			<rect x="525.6" y="100.7" transform="matrix(-1 -1.224647e-16 1.224647e-16 -1 1058.0719 229.4047)" class="st2" width="6.8" height="28"/>
		
			<rect x="492.7" y="100.7" transform="matrix(-1 -1.224647e-16 1.224647e-16 -1 992.1736 229.4047)" class="st2" width="6.8" height="28"/>
		<polygon class="st2" points="450.3,127.6 457,128.7 462,101.1 455.3,100 		"/>
		
			<rect x="517.2" y="104.4" transform="matrix(-1 -1.224647e-16 1.224647e-16 -1 1041.1851 233.0894)" class="st2" width="6.8" height="24.3"/>
		
			<rect x="501.5" y="104.4" transform="matrix(-1 -1.224647e-16 1.224647e-16 -1 1009.8603 233.0894)" class="st2" width="6.8" height="24.3"/>
		
			<rect x="462" y="104.4" transform="matrix(-1 -1.224647e-16 1.224647e-16 -1 930.7933 233.0894)" class="st2" width="6.8" height="24.3"/>
		<polygon class="st2" points="478.2,127.3 484.9,128.7 490.4,105 483.7,103.6 		"/>
		
			<rect x="511.3" y="99.3" transform="matrix(-1 -1.224647e-16 1.224647e-16 -1 1025.9938 228.0166)" class="st2" width="3.4" height="29.3"/>
		
			<rect x="470.8" y="99.3" transform="matrix(-1 -1.224647e-16 1.224647e-16 -1 944.9321 228.0166)" class="st2" width="3.4" height="29.3"/>
	</g>
	<g>
		<rect x="384.9" y="185.3" class="st3" width="154.7" height="7.6"/>
		<rect x="392" y="157.3" class="st2" width="6.8" height="28"/>
		<rect x="425" y="157.3" class="st2" width="6.8" height="28"/>
		<polygon class="st2" points="474.2,184.2 467.4,185.3 462.5,157.8 469.2,156.7 		"/>
		<rect x="400.5" y="161" class="st2" width="6.8" height="24.3"/>
		<rect x="416.1" y="161" class="st2" width="6.8" height="24.3"/>
		<rect x="455.6" y="161" class="st2" width="6.8" height="24.3"/>
		<polygon class="st2" points="446.2,183.9 439.6,185.3 434.1,161.6 440.7,160.2 		"/>
		<rect x="409.8" y="156" class="st2" width="3.4" height="29.3"/>
		<rect x="450.3" y="156" class="st2" width="3.4" height="29.3"/>
		<rect x="491.5" y="163.2" class="st1" width="33.2" height="21.9"/>
	</g>
	<g>
		<g>
			
				<rect x="165.6" y="90.4" transform="matrix(-1.836970e-16 1 -1 -1.836970e-16 299.4894 -66.7595)" class="st0" width="35.1" height="52"/>
			
				<rect x="167.9" y="92.8" transform="matrix(-1.836970e-16 1 -1 -1.836970e-16 299.4894 -66.7595)" class="st1" width="30.5" height="47.1"/>
		</g>
		<g>
			
				<rect x="183.6" y="134.4" transform="matrix(-1.836970e-16 1 -1 -1.836970e-16 361.6147 -40.7159)" class="st0" width="35.1" height="52"/>
			
				<rect x="185.9" y="136.9" transform="matrix(-1.836970e-16 1 -1 -1.836970e-16 361.6147 -40.7159)" class="st1" width="30.5" height="47.1"/>
		</g>
		<g>
			<rect x="219" y="89.2" class="st0" width="33.1" height="44.7"/>
			<rect x="221.2" y="91.3" class="st1" width="28.8" height="40.5"/>
		</g>
		<g>
			<rect x="234.2" y="142.9" class="st0" width="36.8" height="49.7"/>
			<rect x="236.6" y="145.2" class="st1" width="32" height="45"/>
		</g>
		<g>
			
				<rect x="270" y="99.8" transform="matrix(6.123234e-17 -1 1 6.123234e-17 163.5421 403.8875)" class="st0" width="27.5" height="40.7"/>
			
				<rect x="271.8" y="101.7" transform="matrix(6.123234e-17 -1 1 6.123234e-17 163.5421 403.8874)" class="st1" width="23.9" height="36.9"/>
		</g>
	</g>
</g>
<ellipse id="_x3C_Path_x3E__359_" class="st1" cx="350.4" cy="435.7" rx="229.9" ry="12.8"/>
<g>
	<g>
		<g>
			<path class="st4" d="M550.7,329H374.9l0,0c4.1-2.5,6.5-6.8,6.5-11.5V84.2c0-5,3.1-9.5,7.8-11.6l0,0h175.9l0,0
				c-4.8,2.1-7.8,6.6-7.8,11.6v233.3C557.3,322.2,554.8,326.5,550.7,329L550.7,329z"/>
			<path class="st5" d="M550.7,329H374.9l0,0c4.1-2.5,6.5-6.8,6.5-11.5V84.2c0-5,3.1-9.5,7.8-11.6l0,0h175.9l0,0
				c-4.8,2.1-7.8,6.6-7.8,11.6v233.3C557.3,322.2,554.8,326.5,550.7,329L550.7,329z"/>
		</g>
		<g>
			<path class="st6" d="M546,142.4c-2.3-1.1-9.2,0.1-11,0.3c-1.8,0.2-2.7,0.1-4.3,0.3c-1.7,0.2-1.8,0-2.1-0.6
				c-0.3-0.6-3.2-0.2-3.9-0.5c-0.7-0.3-7.2,1.1-14.2,1c-7,0-2.3,0.1-3.3-1c-1-1.2-4.4,0.9-5.1,1c-0.7,0.1-2.5,0.2-2.7-1
				c-0.3-1.2-2.1,1.3-3.8,1c-1.8-0.3,2-2.9-0.4-1.7c-2.4,1.2-8,1.7-8,1.7l1.8,1.2c-6.6,0.1-12.4,0.2-13.6,0.3
				c-1.2,0.1-1.9,0.1-3.2-1.9c-1.3-2-1.2,0.5-6.1,1.7c-4.9,1.2-6.1,0.9-8.4-0.2c-2.3-1.1-16.5,0.1-18.3,0.3
				c-1.8,0.2-2.7,0.1-4.3,0.3c-1.7,0.2-1.8,0-2.1-0.6s-3.2-0.2-3.9-0.5c-0.7-0.3-7.2,1.1-14.2,1c-7,0-2.3,0.1-3.3-1
				c-1-1.2-4.4,0.9-5.1,1c-0.7,0.1-2.5,0.2-2.7-1c-0.3-1.2-2.1,1.3-3.8,1c-1.8-0.3,2-2.9-0.4-1.7c-2.4,1.2-8,1.7-8,1.7"/>
			<path class="st6" d="M434.7,95.9c-0.7-0.3-7.2,1.1-14.2,1c-7,0-2.3,0.1-3.3-1c-1-1.2-4.4,0.9-5.1,1c-0.7,0.1-2.5,0.2-2.7-1
				c-0.3-1.2-2.1,1.3-3.8,1c-1.8-0.3,2-2.9-0.4-1.7c-2.4,1.2-8,1.7-8,1.7"/>
			<path class="st6" d="M546,270.7c-0.7-0.3-7.2,1.1-14.2,1c-7,0-2.3,0.1-3.3-1c-1-1.2-4.4,0.9-5.1,1c-0.7,0.1-2.5,0.2-2.7-1
				c-0.3-1.2-2.1,1.3-3.8,1c-1.8-0.3,2-2.9-0.4-1.7c-2.4,1.2-8,1.7-8,1.7"/>
			<path class="st6" d="M391.6,156.7c0.9-0.4,2-0.4,2.9,0c0.4-0.3,0.8-0.5,1.2-0.8c0.7,0.8,2,0.6,2.9,0.1c0.9-0.5,1.9-1.1,2.9-1
				c-0.1,0.4-0.1,0.9-0.2,1.3c1.4-0.2,2.7-0.5,4-1.1c-0.2,0.3,0,0.8,0.3,1c0.4,0.2,0.8,0.2,1.2,0.2c4-0.1,8-0.3,12-0.4
				c0.7,0,1.4-0.1,2.1-0.1c0.2,0.1,0.4,0.3,0.3,0.6c1.5-0.3,3-1,4-2.1c-0.2,0.8,0.5,1.7,1.4,1.9c0.9,0.2,1.8-0.1,2.6-0.4
				c0.4-0.2,0.7-0.4,1.1-0.4c0.4,0,0.9,0.2,0.9,0.6c0.7-0.3,1.5,0.2,2.3,0.4c0.5,0.1,1,0.1,1.5,0.1c5.4-0.2,23.9-0.4,29.3-0.6l4,0.7
				c0,0,5.6-0.5,8-1.7c2.4-1.2-1.4,1.4,0.4,1.7c1.8,0.3,3.6-2.2,3.8-1c0.3,1.2,2,1.1,2.7,1c0.7-0.1,4.1-2.1,5.1-1c1,1.2-3.7,1,3.3,1
				c7,0,13.5-1.3,14.2-1c0.7,0.3,3.6-0.1,3.9,0.5c0.3,0.6,0.4,0.8,2.1,0.6c1.7-0.2,2.5-0.1,4.3-0.3c1.8-0.2,3-1.4,5.3-0.3
				c2.3,1.1,3.5,1.4,8.4,0.2c4.9-1.2,4.8-3.7,6.1-1.7c1.3,2,8.9,2,10.1,1.9"/>
			<path class="st6" d="M545.8,132.3C545.3,132.3,546.3,132.3,545.8,132.3c-0.8-0.3,0.7-0.8,0-0.5c-0.1-0.4-7.4-0.6-7.8-0.6
				c-0.4,0-0.8,0.2-1.1,0.4c-0.8,0.4-1.7,0.7-2.6,0.4c-0.9-0.2-1.6-1.1-1.4-1.9c-1.1,1.1-2.5,1.9-4,2.1c0.1-0.2-0.1-0.5-0.3-0.6
				c-0.7,0-1.4,0.1-2.1,0.1c-4,0.1-8,0.3-12,0.4c-0.4,0-0.9,0-1.2-0.2c-0.4-0.2-0.6-0.7-0.3-1c-1.3,0.5-2.6,0.9-4,1.1
				c0.1-0.4,0.1-0.9,0.2-1.3c-1-0.1-2,0.5-2.9,1c-0.9,0.5-2.2,0.7-2.9-0.1c-0.4,0.3-0.8,0.5-1.2,0.8c-0.9-0.4-2-0.4-2.9,0l-11.7-1.1
				c0,0-5.4,0.1-6.3-0.4c-0.9-0.5-3.9,1.2-3.9,1.2h-3.9l-5,0.2v-0.9c0,0-3,0.6-5.9,0.7c-2.8,0.1-3.5,0.5-3.6-0.7
				c-0.1-1.2-16.8,0.3-19.7,0.9c-2.9,0.6-2.3,0.5-3.2-0.9c-0.9-1.4-2,0.2-3.5,0.7c-1.5,0.6-3.7,0.8-5,0c-1.3-0.8-6.9,0.5-9.2,0.5
				c-2.3,0-0.1-0.6-0.6-1.7c-0.5-1.1-2.1,1.8-3.7,1.7c-1.6-0.1,1.3-2.8-0.9-2.6c-2.2,0.2-5.8,2.3-5.8,2.3"/>
			<path class="st6" d="M536,167.7c-0.9,0-2-0.6-2-2.4c-0.6-0.6-1.2,0.4-1.8,1.1c-0.6,0.7-1.5,0.8-1.7-0.6c-0.9,0.8-1.9,0.7-2.7-0.2
				c-0.6,1.5-1.6,1.6-2.5,1.5c-7.7-0.3-15.3-0.6-23-0.9c-0.5,0-1.1,0-1.6-0.4c-0.3-0.2-0.6-0.6-1-0.8c-0.9-0.4-1.8,1.1-2.6,2.1
				c-0.9,0.9-2.2,0.7-2.4-1.3c-1,1.8-2.5,2.3-3.7,1.3c-0.5,0.4-1.1,0.9-1.7,0.7c-0.6-0.2-1.1-1.3-1-2.5c-0.5,1.9-1.6,3-2.7,3.3
				c-1.1,0.3-2.1-0.2-3.2-0.6l-9.2,0.4c-3.1,0.2-6.2,0-9.1-0.7c0.1,0.6-0.9,0.8-1.6,0.9c-2,0-4.1,0.1-6.1,0.1c-0.5,0-0.9,0-1.3-0.2
				c-0.4-0.2-0.7-0.6-0.6-0.9c-1.2,0.3-15.6,0.3-16.8,0.1c-0.7-0.4-1.5,0.3-2.2,0.6c-0.6,0.3-1.4,0.3-2.1,0.3
				c-3.5-0.1-7-0.1-10.5-0.2c-0.9,0-2-0.1-2.5-0.8c-1.6,0.6-3,1.4-4.1,2.5c0.2-0.7,0.2-1.5,0-2.2c-1.1,0.4-2.1,0.9-3,1.6
				c-0.1-1.4-0.3-2.7-0.4-4.1c-2.1,0.2-3.5,2.1-5.6,2.3c-1.2,0.1-2.4-0.3-3.5-0.1c-0.9,0.2-2,0.8-2.7,0.2c-0.2-0.2-0.3-0.4-0.5-0.5
				c-0.3-0.1-0.6,0-0.9,0.1c-2.6,0.9-5.6,1.1-8.4,0.4"/>
			<path class="st6" d="M390.2,193.2c0,0,4.4-0.5,6.4-1.7c1.9-1.2-1.1,1.4,0.3,1.7c1.4,0.3,2.9-2.2,3.1-1c0.2,1.2,1.6,1.1,2.2,1
				s3.3-2.1,4.1-1c0.8,1.2-2.9,1,2.6,1c5.6,0,10.8-1.3,11.4-1c0.6,0.3,2.9-0.1,3.1,0.5c0.2,0.6,0.4,0.8,1.7,0.6
				c1.3-0.2,2-0.1,3.5-0.3c1.4-0.2,2.4-1.4,4.2-0.3c1.9,1.1,2.8,1.4,6.7,0.2c3.9-1.2,16.8-3.7,17.9-1.7c1,2,1.6,2,2.5,1.9
				c0.9-0.1,5.6-0.2,10.9-0.3l9.6-0.3c2.7,0.7,5.7,0.6,8.4-0.4c0.3-0.1,0.7-0.2,0.9-0.1c0.2,0.1,0.3,0.4,0.5,0.5
				c0.7,0.6,1.8,0,2.7-0.2c1.1-0.3,2.4,0.2,3.5,0.1c2.1-0.2,3.5-2.1,5.6-2.3c0.1,1.4,0.3,2.7,0.4,4.1c0.9-0.7,1.9-1.3,3-1.6
				c0.2,0.7,0.2,1.5,0,2.2c1.1-1.1,2.6-1.9,4.1-2.5c0.5,0.7,1.6,0.8,2.5,0.8c3.5,0.1,7,0.1,10.5,0.2c0.7,0,1.5,0,2.1-0.3
				c0.7-0.3,1.5-1,2.2-0.6c1.2,0.3,2.6,0.2,3.8-0.1c-0.1,0.4,0.2,0.8,0.6,0.9s0.9,0.2,1.3,0.2c2,0,4.1-0.1,6.1-0.1
				c0.7,0,1.7-0.2,1.6-0.9c3,0.7,2.5,0.9,5.6,0.7"/>
			<path class="st6" d="M546,179.7c-3.9,1.2-2.3,0.9-4.1-0.2c-1.9-1.1-2.8,0.1-4.2,0.3c-1.4,0.2-2.1,0.1-3.5,0.3
				c-1.3,0.2-1.5,0-1.7-0.6c-0.2-0.6-2.5-0.2-3.1-0.5c-0.6-0.3-5.8,1.1-11.4,1c-5.6,0-1.8,0.1-2.6-1c-0.8-1.2-3.5,0.9-4.1,1
				c-0.6,0.1-2,0.2-2.2-1c-0.2-1.2-1.7,1.3-3.1,1c-1.4-0.3,1.6-2.9-0.3-1.7c-1.9,1.2-6.4,1.7-6.4,1.7l-11-0.3
				c-2.8,0-5.5,0.1-8.3,0.1c-0.9,0-2-0.6-2-2.4c-0.6-0.6-1.2,0.4-1.8,1.1c-0.6,0.7-1.5,0.8-1.7-0.6c-0.9,0.8-1.9,0.7-2.7-0.2
				c-0.6,1.5-1.6,1.6-2.5,1.5c-7.7-0.3-28.4-0.6-36-0.9c-0.5,0-1.1,0-1.6-0.4c-0.3-0.2-0.6-0.6-1-0.8c-0.9-0.4-1.8,1.1-2.6,2.1
				c-0.9,0.9-2.2,0.7-2.4-1.3c-1,1.8-2.5,2.3-3.7,1.3c-0.5,0.4-1.1,0.9-1.7,0.7c-0.6-0.2-1.1-1.3-1-2.5c-0.5,1.9-1.6,3-2.7,3.3
				c-1.1,0.3-2.1-0.2-3.2-0.6"/>
			<path class="st6" d="M546,98.1c-7.7-0.3-15.3-0.6-23-0.9c-0.5,0-1.1,0-1.6-0.4c-0.3-0.2-0.6-0.6-1-0.8c-0.9-0.4-1.8,1.1-2.6,2.1
				c-0.9,0.9-2.2,0.7-2.4-1.3c-1,1.8-2.5,2.3-3.7,1.3c-0.5,0.4-1.1,0.9-1.7,0.7c-0.6-0.2-1.1-1.3-1-2.5c-0.5,1.9-1.6,3-2.7,3.3
				c-1.1,0.3-2.1-0.2-3.2-0.6"/>
			<path class="st6" d="M546,281.2c-7.7-0.3-15.3-0.6-23-0.9c-0.5,0-1.1,0-1.6-0.4c-0.3-0.2-0.6-0.6-1-0.8c-0.9-0.4-1.8,1.1-2.6,2.1
				s-2.2,0.7-2.4-1.3c-1,1.8-2.5,2.3-3.7,1.3c-0.5,0.4-1.1,0.9-1.7,0.7c-0.6-0.2-1.1-1.3-1-2.5c-0.5,1.9-1.6,3-2.7,3.3
				c-1.1,0.3-2.1-0.2-3.2-0.6"/>
			<path class="st6" d="M390.2,216.5c3.4,0.7,7.1,0.6,10.4-0.4c0.4-0.1,0.8-0.2,1.2-0.1c0.3,0.1,0.4,0.4,0.6,0.5
				c0.8,0.6,2.2,0,3.4-0.2c1.4-0.3,2.9,0.2,4.4,0.1c2.6-0.2,4.4-2.1,7-2.3c0.2,1.4,0.3,2.7,0.5,4.1c1.1-0.7,2.4-1.3,3.7-1.6
				c0.3,0.7,0.3,1.5,0.1,2.2c1.4-1.1,3.2-1.9,5.1-2.5c0.6,0.7,2,0.8,3.1,0.8c4.3,0.1,21.7,0.1,26.1,0.2c0.9,0,1.8,0,2.6-0.3
				c0.9-0.3,1.9-1,2.8-0.6c1.6,0.3,3.2,0.2,4.7-0.1c-0.2,0.4,0.2,0.8,0.7,0.9c0.5,0.2,1.1,0.2,1.7,0.2c2.5,0,5-0.1,7.5-0.1
				c0.9,0,2.1-0.2,2-0.9c3.7,0.7,7.5,0.9,11.3,0.7l9.3,0.5c1.3-0.4,2.9-0.4,4.2,0c0.6-0.3,1.1-0.5,1.7-0.8c1,0.8,2.8,0.6,4.1,0.1
				c1.3-0.5,2.7-1.1,4.1-1c-0.1,0.4-0.2,0.9-0.3,1.3c2-0.2,3.9-0.5,5.7-1.1c-0.3,0.3,0,0.8,0.5,1c0.5,0.2,1.1,0.2,1.7,0.2
				c5.7-0.1,11.4-0.3,17.1-0.4c1,0,2-0.1,3-0.1c0.3,0.1,0.6,0.3,0.4,0.6c2.2-0.3,3.8-1,5.3-2.1c-0.3,0.8-1.2,1.7,0,1.9"/>
			<path class="st6" d="M545.7,204c-0.9-0.4,0.9,0.3,0,0.6c-0.8,0.3,0.9,0.3,0,0.3c-4.3-0.1-10.2-0.1-14.5-0.2
				c-1.2,0-2.5-0.1-3.1-0.8c-2,0.6-3.7,1.4-5.1,2.5c0.2-0.7,0.2-1.5-0.1-2.2c-1.4,0.4-2.6,0.9-3.7,1.6c-0.2-1.4-0.3-2.7-0.5-4.1
				c-2.6,0.2-4.4,2.1-7,2.3c-1.5,0.1-3-0.3-4.4-0.1c-1.2,0.2-2.5,0.8-3.4,0.2c-0.2-0.2-0.3-0.4-0.6-0.5c-0.4-0.1-0.8,0-1.2,0.1
				c-3.3,0.9-7,1.1-10.4,0.4l-3.8,0.3c-7.7,0.2-15.4,0.4-23.1,0.6c-0.7,0-1.4,0-2.1-0.1c-1.1-0.2-2.3-0.8-3.3-0.4
				c-0.1-0.4-0.7-0.6-1.3-0.6c-0.6,0-1.1,0.2-1.6,0.4c-1.1,0.4-15.4,0.7-16.7,0.4c-1.2-0.2-2.3-1.1-1.9-1.9
				c-1.5,1.1-3.5,1.9-5.7,2.1c0.1-0.2-0.1-0.5-0.4-0.6c-1,0-2,0.1-3,0.1c-5.7,0.1-11.4,0.3-17.1,0.4c-0.6,0-1.2,0-1.7-0.2
				c-0.5-0.2-0.8-0.7-0.5-1c-1.8,0.5-3.7,0.9-5.7,1.1c0.1-0.4,0.2-0.9,0.3-1.3c-1.5-0.1-2.8,0.5-4.1,1c-1.3,0.5-3.2,0.7-4.1-0.1
				c-0.6,0.3-1.1,0.5-1.7,0.8c-1.3-0.4-2.8-0.4-4.2,0"/>
			<path class="st6" d="M389.9,229.2c1.1,0.2,2.2,0.4,3.3,0.3c1.1-0.1,2.2-0.7,2.8-1.6c-0.1,0.6,0.4,1.1,1,1.3
				c0.6,0.1,1.2-0.1,1.8-0.3c1.3,0.5,2.8,0.3,3.8-0.6c0.1,1,1.6,1.1,2.5,0.6c0.9-0.5,1.8-1.2,2.7-1c0.4,0.1,0.7,0.3,1,0.4
				c0.5,0.2,1.1,0.2,1.7,0.2c8,0.2,15.9,0.3,23.9,0.5c0.9,0,2,0,2.6-0.8c0.9,0.4,1.9,0.5,2.8,0.1c0.2,0.7,14.2,0.6,14.7,0.3
				c0.6-0.3,1.2-0.8,1.9-0.5c-0.1,0.9,1.1,1.2,2,1.2c2.9,0,5.7,0,8.6,0l3.1-0.1c1.3-0.4,2.9-0.4,4.2,0c0.6-0.3,1.1-0.5,1.7-0.8
				c1,0.8,2.8,0.6,4.1,0.1c1.3-0.5,2.7-1.1,4.1-1c-0.1,0.4-0.2,0.9-0.3,1.3c2-0.2,3.9-0.5,5.7-1.1c-0.3,0.3,0,0.8,0.5,1
				c0.5,0.2,1.1,0.2,1.7,0.2c5.7-0.1,11.4-0.3,17.1-0.4c1,0,2-0.1,3-0.1c0.3,0.1,0.6,0.3,0.4,0.6c2.2-0.3,4.2-1,5.7-2.1
				c-0.3,0.8,0.7,1.7,1.9,1.9c1.2,0.2,2.5-0.1,3.6-0.4c0.5-0.2,1-0.4,1.6-0.4c0.6,0,1.2,0.2,1.3,0.6c1.1-0.3,2.2,0.2,3.3,0.4
				c0.7,0.1,1.4,0.1,2.1,0.1"/>
		</g>
	</g>
</g>
<g>
	<g>
		<path class="st4" d="M517,407c1.2-1.9-0.5-4.8-2.8-4.8c1-2.8,0-6.1-2.4-7.9c-0.3-0.2-0.7-0.4-1-0.4c-0.4,0-0.8,0.2-1.1,0.5
			c-2.2,1.5-4.4,3-6.6,4.5c-0.5,0.3-1,0.7-1.3,1.2c-1.4,2.5,3.5,5.7,1.5,7.8c-0.6,0.6-1.5,0.7-2.2,1.1c-1.6,0.9-1.8,3-2.5,4.6
			c-0.7,1.6-3.3,2.9-4.3,1.4c0.7-1.6-1.5-2.9-3.2-3.1c-1.8-0.2-3.6-0.3-4.6-1.9c-2.5,2.1-8.2-3.8-8-6.1c-2.1,0.2-3.5,2-3.9,3.9
			c-0.5,1.9-0.2,3.9-0.2,5.9c-0.1,3.8-1.4,7.6-1.3,11.4c0.1,3,1.3,6.3,4.1,7.5c1.4,0.6,2.9,0.6,4.4,0.6c10.8-0.1,21.7-0.1,32.5-0.2
			c0.8,0,1.6,0,2.3-0.4c1.5-0.7,1.8-2.6,1.9-4.1c0.6-6.7,1.2-13.5,1.7-20.2C519,407.8,518,407.4,517,407z"/>
		<path class="st7" d="M517,407c1.2-1.9-0.5-4.8-2.8-4.8c1-2.8,0-6.1-2.4-7.9c-0.3-0.2-0.7-0.4-1-0.4c-0.4,0-0.8,0.2-1.1,0.5
			c-2.2,1.5-4.4,3-6.6,4.5c-0.5,0.3-1,0.7-1.3,1.2c-1.4,2.5,3.5,5.7,1.5,7.8c-0.6,0.6-1.5,0.7-2.2,1.1c-1.6,0.9-1.8,3-2.5,4.6
			c-0.7,1.6-3.3,2.9-4.3,1.4c0.7-1.6-1.5-2.9-3.2-3.1c-1.8-0.2-3.6-0.3-4.6-1.9c-2.5,2.1-8.2-3.8-8-6.1c-2.1,0.2-3.5,2-3.9,3.9
			c-0.5,1.9-0.2,3.9-0.2,5.9c-0.1,3.8-1.4,7.6-1.3,11.4c0.1,3,1.3,6.3,4.1,7.5c1.4,0.6,2.9,0.6,4.4,0.6c10.8-0.1,21.7-0.1,32.5-0.2
			c0.8,0,1.6,0,2.3-0.4c1.5-0.7,1.8-2.6,1.9-4.1c0.6-6.7,1.2-13.5,1.7-20.2C519,407.8,518,407.4,517,407z"/>
	</g>
	<g class="st8">
		<g>
			<path class="st4" d="M518.9,374.2h-3.7h-10.1h-3.7h-10h-3.7h-10h-3.7h-5.7l0.4,4.9l0.3,3.5l0.8,9l0.4,5.2l0.6,6.9l0.2,3l0.1,0.9
				l0.3,3.5l0.4,4.8l0.2,3l0.3,3l0.3,3.5l0.2,2.6l0.2,3l0.1,1.3h6.6h5.6h8.1h5.6h8.1h5.6h6.7l0.1-1.3l0.2-3l0.2-2.7l0.3-3.5l0.3-3
				l0.2-3l0.4-4.8l0.3-3.5l0.1-0.9l0.2-3l0.6-6.9l0.4-5.2l0.8-9.1l0.3-3.5l0.4-4.9H518.9z M522,377.4L522,377.4l-1-0.9h1.1
				L522,377.4z M521.7,380.3l-0.1,1.2l-4.5,4.3l-5.2-4.9l4.6-4.4h1.1L521.7,380.3z M520.4,395.8l-3.3,3.2l-5.2-4.9l5.2-4.9l3.6,3.4
				L520.4,395.8z M472.4,392.5L472.4,392.5l3.6-3.4l5.2,4.9l-5.2,4.9l-3.3-3.2L472.4,392.5z M515.4,387.4l-5.2,4.9l-5.2-4.9l5.2-4.9
				L515.4,387.4z M507.3,376.5h5.9l-3,2.8L507.3,376.5z M508.6,394l-5.2,4.9l-5.2-4.9l5.2-4.9L508.6,394z M491.3,400.5l5.2-4.9
				l5.2,4.9l-5.2,4.9L491.3,400.5z M494.8,407.1l-5.2,4.9l-5.2-4.9l5.2-4.9L494.8,407.1z M503.4,402.1l5.2,4.9l-5.2,4.9l-5.2-4.9
				L503.4,402.1z M496.5,392.4l-5.2-4.9l5.2-4.9l5.2,4.9L496.5,392.4z M494.8,394l-5.2,4.9l-5.2-4.9l5.2-4.9L494.8,394z
				 M482.8,392.4l-5.2-4.9l5.2-4.9l5.2,4.9L482.8,392.4z M482.8,395.6l5.2,4.9l-5.2,4.9l-5.2-4.9L482.8,395.6z M488,413.6l-5.2,4.9
				l-5.2-4.9l5.2-4.9L488,413.6z M489.7,415.2l5.2,4.9l-5.2,4.9l-5.2-4.9L489.7,415.2z M491.3,413.6l5.2-4.9l5.2,4.9l-5.2,4.9
				L491.3,413.6z M503.4,415.2l5.2,4.9l-5.2,4.9l-5.2-4.9L503.4,415.2z M510.2,421.7l5.2,4.9l-3.4,3.2h-3.7l-3.4-3.2L510.2,421.7z
				 M505.1,413.6l5.2-4.9l5.2,4.9l-5.2,4.9L505.1,413.6z M505.1,400.5l5.2-4.9l5.2,4.9l-5.2,4.9L505.1,400.5z M508.6,380.9l-5.2,4.9
				l-5.2-4.9l4.6-4.4h1.1L508.6,380.9z M496.5,379.3l-3-2.8h5.9L496.5,379.3z M494.8,380.9l-5.2,4.9l-5.2-4.9l4.6-4.4h1.1
				L494.8,380.9z M485.8,376.5l-3,2.8l-3-2.8H485.8z M476.5,376.5l4.6,4.4l-5.2,4.9l-4.5-4.3l-0.1-1.2l4.1-3.9H476.5z M472.1,376.5
				l-1,0.9v0l-0.1-0.9H472.1z M471.7,385l2.5,2.4l-2.2,2.1L471.7,385z M473.2,401.6l-0.2-2.3v0l1.3,1.3L473.2,401.6L473.2,401.6z
				 M473.4,404.6l2.5-2.4l5.2,4.9L476,412l-2.1-2L473.4,404.6z M474.2,413.7l0-0.2l0.1,0.1L474.2,413.7L474.2,413.7z M475.1,424.2
				l-0.7-7.6l1.5-1.5l5.2,4.9l-5.2,4.9L475.1,424.2L475.1,424.2z M475.6,429.9l-0.1-1.1l0.5-0.5l1.7,1.6H475.6z M477.6,426.7
				l5.2-4.9l5.2,4.9l-3.4,3.2H481L477.6,426.7z M488,429.9l1.7-1.6l1.7,1.6H488z M494.7,429.9l-3.4-3.2l5.2-4.9l5.2,4.9l-3.3,3.2
				H494.7z M501.7,429.9l1.7-1.6l1.7,1.6H501.7z M517.5,429.9h-2.1l1.7-1.6l0.5,0.5L517.5,429.9z M518,424.2l-0.9,0.8l-5.2-4.9
				l5.2-4.9l1.5,1.5L518,424.2z M518.9,413.5l0,0.2l-0.1-0.1L518.9,413.5L518.9,413.5z M519.2,410l-2.1,2l-5.2-4.9l5.2-4.9l2.6,2.4
				L519.2,410z M519.9,401.6l-1.1-1.1l1.3-1.3L519.9,401.6z M521.3,385l-0.4,4.5l-2.2-2.1L521.3,385L521.3,385z"/>
		</g>
		<g class="st9">
			<path class="st4" d="M518.9,374.2h-3.7h-10.1h-3.7h-10h-3.7h-10h-3.7h-5.7l0.4,4.9l0.3,3.5l0.8,9l0.4,5.2l0.6,6.9l0.2,3l0.1,0.9
				l0.3,3.5l0.4,4.8l0.2,3l0.3,3l0.3,3.5l0.2,2.6l0.2,3l0.1,1.3h6.6h5.6h8.1h5.6h8.1h5.6h6.7l0.1-1.3l0.2-3l0.2-2.7l0.3-3.5l0.3-3
				l0.2-3l0.4-4.8l0.3-3.5l0.1-0.9l0.2-3l0.6-6.9l0.4-5.2l0.8-9.1l0.3-3.5l0.4-4.9H518.9z M522,377.4L522,377.4l-1-0.9h1.1
				L522,377.4z M521.7,380.3l-0.1,1.2l-4.5,4.3l-5.2-4.9l4.6-4.4h1.1L521.7,380.3z M520.4,395.8l-3.3,3.2l-5.2-4.9l5.2-4.9l3.6,3.4
				L520.4,395.8z M472.4,392.5L472.4,392.5l3.6-3.4l5.2,4.9l-5.2,4.9l-3.3-3.2L472.4,392.5z M515.4,387.4l-5.2,4.9l-5.2-4.9l5.2-4.9
				L515.4,387.4z M507.3,376.5h5.9l-3,2.8L507.3,376.5z M508.6,394l-5.2,4.9l-5.2-4.9l5.2-4.9L508.6,394z M491.3,400.5l5.2-4.9
				l5.2,4.9l-5.2,4.9L491.3,400.5z M494.8,407.1l-5.2,4.9l-5.2-4.9l5.2-4.9L494.8,407.1z M503.4,402.1l5.2,4.9l-5.2,4.9l-5.2-4.9
				L503.4,402.1z M496.5,392.4l-5.2-4.9l5.2-4.9l5.2,4.9L496.5,392.4z M494.8,394l-5.2,4.9l-5.2-4.9l5.2-4.9L494.8,394z
				 M482.8,392.4l-5.2-4.9l5.2-4.9l5.2,4.9L482.8,392.4z M482.8,395.6l5.2,4.9l-5.2,4.9l-5.2-4.9L482.8,395.6z M488,413.6l-5.2,4.9
				l-5.2-4.9l5.2-4.9L488,413.6z M489.7,415.2l5.2,4.9l-5.2,4.9l-5.2-4.9L489.7,415.2z M491.3,413.6l5.2-4.9l5.2,4.9l-5.2,4.9
				L491.3,413.6z M503.4,415.2l5.2,4.9l-5.2,4.9l-5.2-4.9L503.4,415.2z M510.2,421.7l5.2,4.9l-3.4,3.2h-3.7l-3.4-3.2L510.2,421.7z
				 M505.1,413.6l5.2-4.9l5.2,4.9l-5.2,4.9L505.1,413.6z M505.1,400.5l5.2-4.9l5.2,4.9l-5.2,4.9L505.1,400.5z M508.6,380.9l-5.2,4.9
				l-5.2-4.9l4.6-4.4h1.1L508.6,380.9z M496.5,379.3l-3-2.8h5.9L496.5,379.3z M494.8,380.9l-5.2,4.9l-5.2-4.9l4.6-4.4h1.1
				L494.8,380.9z M485.8,376.5l-3,2.8l-3-2.8H485.8z M476.5,376.5l4.6,4.4l-5.2,4.9l-4.5-4.3l-0.1-1.2l4.1-3.9H476.5z M472.1,376.5
				l-1,0.9v0l-0.1-0.9H472.1z M471.7,385l2.5,2.4l-2.2,2.1L471.7,385z M473.2,401.6l-0.2-2.3v0l1.3,1.3L473.2,401.6L473.2,401.6z
				 M473.4,404.6l2.5-2.4l5.2,4.9L476,412l-2.1-2L473.4,404.6z M474.2,413.7l0-0.2l0.1,0.1L474.2,413.7L474.2,413.7z M475.1,424.2
				l-0.7-7.6l1.5-1.5l5.2,4.9l-5.2,4.9L475.1,424.2L475.1,424.2z M475.6,429.9l-0.1-1.1l0.5-0.5l1.7,1.6H475.6z M477.6,426.7
				l5.2-4.9l5.2,4.9l-3.4,3.2H481L477.6,426.7z M488,429.9l1.7-1.6l1.7,1.6H488z M494.7,429.9l-3.4-3.2l5.2-4.9l5.2,4.9l-3.3,3.2
				H494.7z M501.7,429.9l1.7-1.6l1.7,1.6H501.7z M517.5,429.9h-2.1l1.7-1.6l0.5,0.5L517.5,429.9z M518,424.2l-0.9,0.8l-5.2-4.9
				l5.2-4.9l1.5,1.5L518,424.2z M518.9,413.5l0,0.2l-0.1-0.1L518.9,413.5L518.9,413.5z M519.2,410l-2.1,2l-5.2-4.9l5.2-4.9l2.6,2.4
				L519.2,410z M519.9,401.6l-1.1-1.1l1.3-1.3L519.9,401.6z M521.3,385l-0.4,4.5l-2.2-2.1L521.3,385L521.3,385z"/>
		</g>
	</g>
	<path class="st4" d="M466.9,378.5h59.3c0.9,0,1.6-0.7,1.6-1.6v-3c0-0.9-0.7-1.6-1.6-1.6h-59.3c-0.9,0-1.6,0.7-1.6,1.6v3
		C465.2,377.7,466,378.5,466.9,378.5z"/>
	<path class="st4" d="M521.7,435.1h-50.3c-0.9,0-1.6-0.7-1.6-1.6v-3c0-0.9,0.7-1.6,1.6-1.6h50.3c0.9,0,1.6,0.7,1.6,1.6v3
		C523.3,434.3,522.6,435.1,521.7,435.1z"/>
</g>
<g>
	<g>
		<polygon class="st4" points="199.8,111.4 191.5,113 183.5,122.9 177.4,113.7 166.9,113.3 147.3,89.3 		"/>
		<polygon class="st10" points="199.8,111.4 191.5,113 183.5,122.9 177.4,113.7 166.9,113.3 147.3,89.3 		"/>
		<polygon class="st11" points="183.5,122.9 184.6,113.9 177.4,113.7 		"/>
		<polygon class="st12" points="191.5,113 147.3,89.3 184.6,113.9 166.9,113.3 147.3,89.3 199.8,111.4 		"/>
	</g>
	<g>
		<g>
			<path class="st4" d="M291.9,256.6c-0.3,0-0.6-0.2-0.6-0.5c0-0.3,0.2-0.6,0.5-0.6c0,0,2.4-0.2,5.7-1c0.3-0.1,0.6,0.1,0.7,0.4
				c0.1,0.3-0.1,0.6-0.4,0.7C294.5,256.4,292.1,256.6,291.9,256.6C292,256.6,291.9,256.6,291.9,256.6z M303.4,253.8
				c-0.2,0-0.5-0.1-0.5-0.3c-0.1-0.3,0-0.6,0.3-0.7c1.8-0.7,3.6-1.6,5.2-2.5c0.3-0.2,0.6-0.1,0.8,0.2c0.2,0.3,0.1,0.6-0.2,0.8
				c-1.6,1-3.5,1.9-5.4,2.6C303.6,253.7,303.5,253.8,303.4,253.8z M313.4,247.7c-0.2,0-0.3-0.1-0.4-0.2c-0.2-0.2-0.2-0.6,0-0.8
				c1.4-1.3,2.7-2.7,3.8-4.2c0.2-0.3,0.6-0.3,0.8-0.2c0.3,0.2,0.3,0.5,0.2,0.8c-1.1,1.6-2.4,3-3.9,4.4
				C313.7,247.7,313.5,247.7,313.4,247.7z M320,238.5c-0.1,0-0.1,0-0.2,0c-0.3-0.1-0.5-0.4-0.3-0.7c0.4-0.9,0.7-1.8,0.9-2.7
				c-1,0.2-2,0.3-3,0.4c-0.3,0-0.6-0.2-0.7-0.5c0-0.3,0.2-0.6,0.5-0.6c1.1-0.2,2.3-0.3,3.4-0.5c0.1-0.5,0.2-0.9,0.3-1.4
				c0.1-0.3,0.4-0.5,0.7-0.5c0.3,0.1,0.5,0.3,0.5,0.7c-0.1,0.3-0.1,0.7-0.2,1c0.4-0.1,0.7-0.1,1.1-0.2c0.3-0.1,0.6,0.1,0.7,0.4
				c0.1,0.3-0.1,0.6-0.5,0.7c-0.5,0.1-1.1,0.2-1.6,0.3c-0.3,1.2-0.7,2.3-1.1,3.4C320.4,238.3,320.2,238.5,320,238.5z M306.9,236.1
				c-0.5,0-1,0-1.5,0c-0.3,0-0.6-0.3-0.6-0.6c0-0.3,0.2-0.6,0.6-0.6c1.9,0,3.9,0,5.9-0.1c0.3,0,0.6,0.2,0.6,0.5
				c0,0.3-0.2,0.6-0.6,0.6C309.9,236.1,308.4,236.1,306.9,236.1z M299.6,235.7C299.5,235.7,299.5,235.7,299.6,235.7
				c-2.1-0.3-4.1-0.6-6-1.1c-0.3-0.1-0.5-0.4-0.4-0.7c0.1-0.3,0.4-0.5,0.7-0.4c1.8,0.5,3.7,0.8,5.7,1.1c0.3,0,0.6,0.3,0.5,0.6
				C300.1,235.5,299.9,235.7,299.6,235.7z M328.9,233.1c-0.3,0-0.5-0.2-0.6-0.4c-0.1-0.3,0.1-0.6,0.4-0.7c1.8-0.5,3.7-1,5.7-1.6
				c0.3-0.1,0.6,0.1,0.7,0.4c0.1,0.3-0.1,0.6-0.4,0.7c-1.9,0.6-3.8,1.1-5.7,1.6C329,233.1,329,233.1,328.9,233.1z M288.2,232.7
				c-0.1,0-0.2,0-0.2-0.1c-1.9-0.8-3.7-1.8-5.2-3c-0.3-0.2-0.3-0.5-0.1-0.8c0.2-0.2,0.6-0.3,0.8-0.1c1.4,1.1,3.1,2,5,2.8
				c0.3,0.1,0.4,0.5,0.3,0.8C288.6,232.6,288.4,232.7,288.2,232.7z M340.2,229.6c-0.2,0-0.5-0.1-0.6-0.4c-0.1-0.3,0-0.6,0.3-0.7
				c1.8-0.6,3.6-1.4,5.5-2.1c0.3-0.1,0.6,0,0.8,0.3c0.1,0.3,0,0.6-0.3,0.7c-1.9,0.8-3.7,1.5-5.5,2.1
				C340.3,229.6,340.2,229.6,340.2,229.6z M321.9,227.4c-0.3,0-0.6-0.2-0.6-0.5c-0.1-1.8-0.3-3.7-0.8-5.5c-0.1-0.3,0.1-0.6,0.4-0.7
				c0.3-0.1,0.6,0.1,0.7,0.4c0.5,1.9,0.8,3.8,0.8,5.7C322.5,227.1,322.2,227.4,321.9,227.4C321.9,227.4,321.9,227.4,321.9,227.4z
				 M279.1,225.7c-0.2,0-0.4-0.1-0.5-0.3c-1.2-1.7-1.9-3.6-2.2-5.5c0-0.3,0.2-0.6,0.5-0.6c0.3,0,0.6,0.2,0.7,0.5
				c0.2,1.7,0.9,3.4,2,5c0.2,0.3,0.1,0.6-0.2,0.8C279.3,225.7,279.2,225.7,279.1,225.7z M351.1,225.2c-0.2,0-0.4-0.1-0.5-0.3
				c-0.1-0.3,0-0.6,0.3-0.8l1-0.4c1.5-0.7,2.9-1.4,4.2-2.2c0.3-0.2,0.6-0.1,0.8,0.2c0.2,0.3,0.1,0.6-0.2,0.8
				c-1.4,0.8-2.8,1.5-4.3,2.2l-1,0.4C351.3,225.2,351.2,225.2,351.1,225.2z M361.2,219.3c-0.2,0-0.3-0.1-0.5-0.2
				c-0.2-0.2-0.2-0.6,0.1-0.8c1.5-1.2,2.9-2.5,4.1-3.9c0.2-0.2,0.6-0.3,0.8-0.1c0.3,0.2,0.3,0.6,0.1,0.8c-1.2,1.4-2.7,2.8-4.3,4.1
				C361.4,219.2,361.3,219.3,361.2,219.3z M319.1,216.4c-0.2,0-0.4-0.1-0.5-0.3c-0.8-1.7-1.8-3.3-3-4.8c-0.2-0.3-0.1-0.6,0.1-0.8
				c0.3-0.2,0.6-0.1,0.8,0.1c1.2,1.5,2.2,3.2,3.1,4.9c0.1,0.3,0,0.6-0.3,0.8C319.3,216.4,319.2,216.4,319.1,216.4z M277.6,214.9
				c-0.1,0-0.1,0-0.2,0c-0.3-0.1-0.5-0.4-0.4-0.7c0.6-1.7,1.7-3.4,3.1-5c0.2-0.2,0.6-0.3,0.8-0.1c0.3,0.2,0.3,0.6,0.1,0.8
				c-1.3,1.5-2.3,3.1-2.9,4.7C278.1,214.8,277.9,214.9,277.6,214.9z M368.6,210.6c-0.1,0-0.2,0-0.3-0.1c-0.3-0.1-0.4-0.5-0.3-0.8
				c0.9-1.7,1.5-3.4,1.9-5.2c0.1-0.3,0.4-0.5,0.7-0.4c0.3,0.1,0.5,0.4,0.5,0.7c-0.4,1.9-1.1,3.7-2,5.5
				C369,210.5,368.8,210.6,368.6,210.6z M312.1,207.4c-0.1,0-0.3,0-0.4-0.1c-1.5-1.2-3.1-2.3-4.8-3.1c-0.3-0.1-0.4-0.5-0.3-0.8
				c0.2-0.3,0.5-0.4,0.8-0.2c1.8,0.9,3.4,2,5,3.3c0.2,0.2,0.3,0.6,0.1,0.8C312.4,207.4,312.2,207.4,312.1,207.4z M284.9,206.2
				c-0.2,0-0.4-0.1-0.5-0.2c-0.2-0.2-0.1-0.6,0.1-0.8c1.7-1.2,3.4-2.2,5.3-2.9c0.3-0.1,0.6,0,0.8,0.3c0.1,0.3,0,0.6-0.3,0.7
				c-1.7,0.7-3.4,1.6-5,2.8C285.1,206.1,285,206.2,284.9,206.2z M301.6,202.3c0,0-0.1,0-0.1,0c-1.9-0.4-3.8-0.5-5.7-0.3
				c-0.3,0-0.6-0.2-0.6-0.5s0.2-0.6,0.5-0.6c2-0.2,4.1-0.1,6.1,0.3c0.3,0.1,0.5,0.4,0.5,0.7C302.2,202.1,301.9,202.3,301.6,202.3z
				 M371,199.6c-0.3,0-0.6-0.2-0.6-0.5c-0.1-1.8-0.4-3.6-0.9-5.5c-0.1-0.3,0.1-0.6,0.4-0.7c0.3-0.1,0.6,0.1,0.7,0.4
				c0.5,1.9,0.8,3.8,0.9,5.7C371.6,199.3,371.3,199.6,371,199.6C371,199.6,371,199.6,371,199.6z M368.1,188.7
				c-0.2,0-0.4-0.1-0.5-0.3c-0.8-1.6-1.7-3.3-2.8-4.9c-0.2-0.3-0.1-0.6,0.2-0.8c0.3-0.2,0.6-0.1,0.8,0.2c1.1,1.7,2.1,3.4,2.8,5
				c0.1,0.3,0,0.6-0.3,0.7C368.2,188.7,368.2,188.7,368.1,188.7z M361.9,179.1c-0.2,0-0.3-0.1-0.5-0.2c-1.2-1.4-2.5-2.8-3.8-4.2
				c-0.2-0.2-0.2-0.6,0-0.8c0.2-0.2,0.6-0.2,0.8,0c1.4,1.4,2.7,2.9,3.9,4.3c0.2,0.2,0.2,0.6-0.1,0.8
				C362.1,179.1,362,179.1,361.9,179.1z M353.8,170.9c-0.1,0-0.3,0-0.4-0.1c-1.4-1.2-2.9-2.4-4.5-3.6c-0.3-0.2-0.3-0.5-0.1-0.8
				c0.2-0.2,0.6-0.3,0.8-0.1c1.6,1.2,3.1,2.4,4.6,3.7c0.2,0.2,0.3,0.6,0,0.8C354.1,170.8,353.9,170.9,353.8,170.9z M344.5,163.8
				c-0.1,0-0.2,0-0.3-0.1c-1.6-1.1-3.2-2.1-4.9-3.1c-0.3-0.2-0.4-0.5-0.2-0.8c0.2-0.3,0.5-0.3,0.8-0.2c1.7,1,3.4,2.1,5,3.1
				c0.3,0.2,0.3,0.5,0.1,0.8C344.9,163.8,344.7,163.8,344.5,163.8z M334.4,157.8c-0.1,0-0.2,0-0.3-0.1c-1.7-0.9-3.4-1.8-5.2-2.6
				c-0.3-0.1-0.4-0.5-0.3-0.8c0.1-0.3,0.5-0.4,0.8-0.2c1.8,0.9,3.6,1.8,5.3,2.7c0.3,0.2,0.4,0.5,0.2,0.8
				C334.8,157.7,334.6,157.8,334.4,157.8z M323.9,152.7c-0.1,0-0.2,0-0.2-0.1c-1.8-0.8-3.6-1.5-5.4-2.2c-0.3-0.1-0.4-0.4-0.3-0.7
				c0.1-0.3,0.5-0.4,0.8-0.3c1.8,0.7,3.7,1.5,5.5,2.2c0.3,0.1,0.4,0.5,0.3,0.7C324.3,152.6,324.1,152.7,323.9,152.7z M312.9,148.4
				c-0.1,0-0.1,0-0.2,0c-1.8-0.6-3.7-1.3-5.6-1.9c-0.3-0.1-0.5-0.4-0.4-0.7c0.1-0.3,0.4-0.5,0.7-0.4c1.9,0.6,3.8,1.2,5.6,1.9
				c0.3,0.1,0.5,0.4,0.4,0.7C313.4,148.3,313.1,148.4,312.9,148.4z M301.6,144.9c-0.1,0-0.1,0-0.2,0c-1.9-0.5-3.8-1-5.7-1.5
				c-0.3-0.1-0.5-0.4-0.4-0.7c0.1-0.3,0.4-0.5,0.7-0.4c1.9,0.5,3.8,1,5.7,1.5c0.3,0.1,0.5,0.4,0.4,0.7
				C302.1,144.7,301.9,144.9,301.6,144.9z M290.1,142.1c0,0-0.1,0-0.1,0c-1.9-0.4-3.9-0.8-5.8-1.2c-0.3-0.1-0.5-0.4-0.5-0.7
				c0.1-0.3,0.4-0.5,0.7-0.4c1.9,0.4,3.9,0.8,5.8,1.2c0.3,0.1,0.5,0.4,0.4,0.7C290.7,141.9,290.4,142.1,290.1,142.1z M278.5,139.9
				C278.5,139.9,278.4,139.9,278.5,139.9c-1.9-0.3-3.8-0.6-5.7-0.8l-0.2,0c-0.3,0-0.5-0.3-0.5-0.6c0-0.3,0.3-0.5,0.7-0.5l0.2,0
				c1.9,0.3,3.8,0.5,5.6,0.8c0.3,0.1,0.5,0.3,0.5,0.7C279.1,139.7,278.8,139.9,278.5,139.9z M266.8,138.2
				C266.8,138.2,266.7,138.2,266.8,138.2c-2.1-0.3-4-0.6-6-0.9c-0.3-0.1-0.5-0.3-0.5-0.7c0.1-0.3,0.4-0.5,0.7-0.5
				c1.9,0.3,3.9,0.6,5.8,0.9c0.3,0,0.5,0.3,0.5,0.6C267.3,138,267.1,138.2,266.8,138.2z M255.1,136.3c0,0-0.1,0-0.1,0
				c-2-0.3-3.9-0.7-5.8-1.1c-0.3-0.1-0.5-0.4-0.5-0.7c0.1-0.3,0.4-0.5,0.7-0.4c1.9,0.4,3.8,0.7,5.8,1.1c0.3,0.1,0.5,0.4,0.5,0.7
				C255.6,136.1,255.4,136.3,255.1,136.3z M243.5,134.1c0,0-0.1,0-0.1,0c-2-0.4-3.9-0.8-5.8-1.2c-0.3-0.1-0.5-0.4-0.4-0.7
				c0.1-0.3,0.4-0.5,0.7-0.4c1.9,0.4,3.8,0.8,5.8,1.2c0.3,0.1,0.5,0.4,0.5,0.7C244,134,243.7,134.1,243.5,134.1z M231.9,131.6
				c0,0-0.1,0-0.1,0c-2-0.5-3.9-1-5.7-1.4c-0.3-0.1-0.5-0.4-0.4-0.7c0.1-0.3,0.4-0.5,0.7-0.4c1.8,0.5,3.7,0.9,5.7,1.4
				c0.3,0.1,0.5,0.4,0.4,0.7C232.4,131.4,232.2,131.6,231.9,131.6z M220.5,128.6c-0.1,0-0.1,0-0.2,0c-2-0.6-3.9-1.1-5.7-1.7
				c-0.3-0.1-0.5-0.4-0.4-0.7c0.1-0.3,0.4-0.5,0.7-0.4c1.8,0.5,3.7,1.1,5.7,1.6c0.3,0.1,0.5,0.4,0.4,0.7
				C221,128.5,220.7,128.6,220.5,128.6z M209.2,125.2c-0.1,0-0.1,0-0.2,0c-1.9-0.6-3.8-1.3-5.6-1.9c-0.3-0.1-0.5-0.4-0.3-0.7
				c0.1-0.3,0.5-0.4,0.8-0.3c1.8,0.6,3.7,1.3,5.6,1.9c0.3,0.1,0.5,0.4,0.4,0.7C209.6,125.1,209.4,125.2,209.2,125.2z M198.1,121.2
				c-0.1,0-0.2,0-0.2,0c-2-0.8-3.8-1.6-5.4-2.3c-0.3-0.1-0.4-0.5-0.3-0.8c0.1-0.3,0.5-0.4,0.8-0.3c1.6,0.7,3.4,1.5,5.4,2.3
				c0.3,0.1,0.4,0.5,0.3,0.7C198.5,121.1,198.3,121.2,198.1,121.2z"/>
		</g>
		<g class="st13">
			<path class="st14" d="M291.9,256.6c-0.3,0-0.6-0.2-0.6-0.5c0-0.3,0.2-0.6,0.5-0.6c0,0,2.4-0.2,5.7-1c0.3-0.1,0.6,0.1,0.7,0.4
				c0.1,0.3-0.1,0.6-0.4,0.7C294.5,256.4,292.1,256.6,291.9,256.6C292,256.6,291.9,256.6,291.9,256.6z M303.4,253.8
				c-0.2,0-0.5-0.1-0.5-0.3c-0.1-0.3,0-0.6,0.3-0.7c1.8-0.7,3.6-1.6,5.2-2.5c0.3-0.2,0.6-0.1,0.8,0.2c0.2,0.3,0.1,0.6-0.2,0.8
				c-1.6,1-3.5,1.9-5.4,2.6C303.6,253.7,303.5,253.8,303.4,253.8z M313.4,247.7c-0.2,0-0.3-0.1-0.4-0.2c-0.2-0.2-0.2-0.6,0-0.8
				c1.4-1.3,2.7-2.7,3.8-4.2c0.2-0.3,0.6-0.3,0.8-0.2c0.3,0.2,0.3,0.5,0.2,0.8c-1.1,1.6-2.4,3-3.9,4.4
				C313.7,247.7,313.5,247.7,313.4,247.7z M320,238.5c-0.1,0-0.1,0-0.2,0c-0.3-0.1-0.5-0.4-0.3-0.7c0.4-0.9,0.7-1.8,0.9-2.7
				c-1,0.2-2,0.3-3,0.4c-0.3,0-0.6-0.2-0.7-0.5c0-0.3,0.2-0.6,0.5-0.6c1.1-0.2,2.3-0.3,3.4-0.5c0.1-0.5,0.2-0.9,0.3-1.4
				c0.1-0.3,0.4-0.5,0.7-0.5c0.3,0.1,0.5,0.3,0.5,0.7c-0.1,0.3-0.1,0.7-0.2,1c0.4-0.1,0.7-0.1,1.1-0.2c0.3-0.1,0.6,0.1,0.7,0.4
				c0.1,0.3-0.1,0.6-0.5,0.7c-0.5,0.1-1.1,0.2-1.6,0.3c-0.3,1.2-0.7,2.3-1.1,3.4C320.4,238.3,320.2,238.5,320,238.5z M306.9,236.1
				c-0.5,0-1,0-1.5,0c-0.3,0-0.6-0.3-0.6-0.6c0-0.3,0.2-0.6,0.6-0.6c1.9,0,3.9,0,5.9-0.1c0.3,0,0.6,0.2,0.6,0.5
				c0,0.3-0.2,0.6-0.6,0.6C309.9,236.1,308.4,236.1,306.9,236.1z M299.6,235.7C299.5,235.7,299.5,235.7,299.6,235.7
				c-2.1-0.3-4.1-0.6-6-1.1c-0.3-0.1-0.5-0.4-0.4-0.7c0.1-0.3,0.4-0.5,0.7-0.4c1.8,0.5,3.7,0.8,5.7,1.1c0.3,0,0.6,0.3,0.5,0.6
				C300.1,235.5,299.9,235.7,299.6,235.7z M328.9,233.1c-0.3,0-0.5-0.2-0.6-0.4c-0.1-0.3,0.1-0.6,0.4-0.7c1.8-0.5,3.7-1,5.7-1.6
				c0.3-0.1,0.6,0.1,0.7,0.4c0.1,0.3-0.1,0.6-0.4,0.7c-1.9,0.6-3.8,1.1-5.7,1.6C329,233.1,329,233.1,328.9,233.1z M288.2,232.7
				c-0.1,0-0.2,0-0.2-0.1c-1.9-0.8-3.7-1.8-5.2-3c-0.3-0.2-0.3-0.5-0.1-0.8c0.2-0.2,0.6-0.3,0.8-0.1c1.4,1.1,3.1,2,5,2.8
				c0.3,0.1,0.4,0.5,0.3,0.8C288.6,232.6,288.4,232.7,288.2,232.7z M340.2,229.6c-0.2,0-0.5-0.1-0.6-0.4c-0.1-0.3,0-0.6,0.3-0.7
				c1.8-0.6,3.6-1.4,5.5-2.1c0.3-0.1,0.6,0,0.8,0.3c0.1,0.3,0,0.6-0.3,0.7c-1.9,0.8-3.7,1.5-5.5,2.1
				C340.3,229.6,340.2,229.6,340.2,229.6z M321.9,227.4c-0.3,0-0.6-0.2-0.6-0.5c-0.1-1.8-0.3-3.7-0.8-5.5c-0.1-0.3,0.1-0.6,0.4-0.7
				c0.3-0.1,0.6,0.1,0.7,0.4c0.5,1.9,0.8,3.8,0.8,5.7C322.5,227.1,322.2,227.4,321.9,227.4C321.9,227.4,321.9,227.4,321.9,227.4z
				 M279.1,225.7c-0.2,0-0.4-0.1-0.5-0.3c-1.2-1.7-1.9-3.6-2.2-5.5c0-0.3,0.2-0.6,0.5-0.6c0.3,0,0.6,0.2,0.7,0.5
				c0.2,1.7,0.9,3.4,2,5c0.2,0.3,0.1,0.6-0.2,0.8C279.3,225.7,279.2,225.7,279.1,225.7z M351.1,225.2c-0.2,0-0.4-0.1-0.5-0.3
				c-0.1-0.3,0-0.6,0.3-0.8l1-0.4c1.5-0.7,2.9-1.4,4.2-2.2c0.3-0.2,0.6-0.1,0.8,0.2c0.2,0.3,0.1,0.6-0.2,0.8
				c-1.4,0.8-2.8,1.5-4.3,2.2l-1,0.4C351.3,225.2,351.2,225.2,351.1,225.2z M361.2,219.3c-0.2,0-0.3-0.1-0.5-0.2
				c-0.2-0.2-0.2-0.6,0.1-0.8c1.5-1.2,2.9-2.5,4.1-3.9c0.2-0.2,0.6-0.3,0.8-0.1c0.3,0.2,0.3,0.6,0.1,0.8c-1.2,1.4-2.7,2.8-4.3,4.1
				C361.4,219.2,361.3,219.3,361.2,219.3z M319.1,216.4c-0.2,0-0.4-0.1-0.5-0.3c-0.8-1.7-1.8-3.3-3-4.8c-0.2-0.3-0.1-0.6,0.1-0.8
				c0.3-0.2,0.6-0.1,0.8,0.1c1.2,1.5,2.2,3.2,3.1,4.9c0.1,0.3,0,0.6-0.3,0.8C319.3,216.4,319.2,216.4,319.1,216.4z M277.6,214.9
				c-0.1,0-0.1,0-0.2,0c-0.3-0.1-0.5-0.4-0.4-0.7c0.6-1.7,1.7-3.4,3.1-5c0.2-0.2,0.6-0.3,0.8-0.1c0.3,0.2,0.3,0.6,0.1,0.8
				c-1.3,1.5-2.3,3.1-2.9,4.7C278.1,214.8,277.9,214.9,277.6,214.9z M368.6,210.6c-0.1,0-0.2,0-0.3-0.1c-0.3-0.1-0.4-0.5-0.3-0.8
				c0.9-1.7,1.5-3.4,1.9-5.2c0.1-0.3,0.4-0.5,0.7-0.4c0.3,0.1,0.5,0.4,0.5,0.7c-0.4,1.9-1.1,3.7-2,5.5
				C369,210.5,368.8,210.6,368.6,210.6z M312.1,207.4c-0.1,0-0.3,0-0.4-0.1c-1.5-1.2-3.1-2.3-4.8-3.1c-0.3-0.1-0.4-0.5-0.3-0.8
				c0.2-0.3,0.5-0.4,0.8-0.2c1.8,0.9,3.4,2,5,3.3c0.2,0.2,0.3,0.6,0.1,0.8C312.4,207.4,312.2,207.4,312.1,207.4z M284.9,206.2
				c-0.2,0-0.4-0.1-0.5-0.2c-0.2-0.2-0.1-0.6,0.1-0.8c1.7-1.2,3.4-2.2,5.3-2.9c0.3-0.1,0.6,0,0.8,0.3c0.1,0.3,0,0.6-0.3,0.7
				c-1.7,0.7-3.4,1.6-5,2.8C285.1,206.1,285,206.2,284.9,206.2z M301.6,202.3c0,0-0.1,0-0.1,0c-1.9-0.4-3.8-0.5-5.7-0.3
				c-0.3,0-0.6-0.2-0.6-0.5s0.2-0.6,0.5-0.6c2-0.2,4.1-0.1,6.1,0.3c0.3,0.1,0.5,0.4,0.5,0.7C302.2,202.1,301.9,202.3,301.6,202.3z
				 M371,199.6c-0.3,0-0.6-0.2-0.6-0.5c-0.1-1.8-0.4-3.6-0.9-5.5c-0.1-0.3,0.1-0.6,0.4-0.7c0.3-0.1,0.6,0.1,0.7,0.4
				c0.5,1.9,0.8,3.8,0.9,5.7C371.6,199.3,371.3,199.6,371,199.6C371,199.6,371,199.6,371,199.6z M368.1,188.7
				c-0.2,0-0.4-0.1-0.5-0.3c-0.8-1.6-1.7-3.3-2.8-4.9c-0.2-0.3-0.1-0.6,0.2-0.8c0.3-0.2,0.6-0.1,0.8,0.2c1.1,1.7,2.1,3.4,2.8,5
				c0.1,0.3,0,0.6-0.3,0.7C368.2,188.7,368.2,188.7,368.1,188.7z M361.9,179.1c-0.2,0-0.3-0.1-0.5-0.2c-1.2-1.4-2.5-2.8-3.8-4.2
				c-0.2-0.2-0.2-0.6,0-0.8c0.2-0.2,0.6-0.2,0.8,0c1.4,1.4,2.7,2.9,3.9,4.3c0.2,0.2,0.2,0.6-0.1,0.8
				C362.1,179.1,362,179.1,361.9,179.1z M353.8,170.9c-0.1,0-0.3,0-0.4-0.1c-1.4-1.2-2.9-2.4-4.5-3.6c-0.3-0.2-0.3-0.5-0.1-0.8
				c0.2-0.2,0.6-0.3,0.8-0.1c1.6,1.2,3.1,2.4,4.6,3.7c0.2,0.2,0.3,0.6,0,0.8C354.1,170.8,353.9,170.9,353.8,170.9z M344.5,163.8
				c-0.1,0-0.2,0-0.3-0.1c-1.6-1.1-3.2-2.1-4.9-3.1c-0.3-0.2-0.4-0.5-0.2-0.8c0.2-0.3,0.5-0.3,0.8-0.2c1.7,1,3.4,2.1,5,3.1
				c0.3,0.2,0.3,0.5,0.1,0.8C344.9,163.8,344.7,163.8,344.5,163.8z M334.4,157.8c-0.1,0-0.2,0-0.3-0.1c-1.7-0.9-3.4-1.8-5.2-2.6
				c-0.3-0.1-0.4-0.5-0.3-0.8c0.1-0.3,0.5-0.4,0.8-0.2c1.8,0.9,3.6,1.8,5.3,2.7c0.3,0.2,0.4,0.5,0.2,0.8
				C334.8,157.7,334.6,157.8,334.4,157.8z M323.9,152.7c-0.1,0-0.2,0-0.2-0.1c-1.8-0.8-3.6-1.5-5.4-2.2c-0.3-0.1-0.4-0.4-0.3-0.7
				c0.1-0.3,0.5-0.4,0.8-0.3c1.8,0.7,3.7,1.5,5.5,2.2c0.3,0.1,0.4,0.5,0.3,0.7C324.3,152.6,324.1,152.7,323.9,152.7z M312.9,148.4
				c-0.1,0-0.1,0-0.2,0c-1.8-0.6-3.7-1.3-5.6-1.9c-0.3-0.1-0.5-0.4-0.4-0.7c0.1-0.3,0.4-0.5,0.7-0.4c1.9,0.6,3.8,1.2,5.6,1.9
				c0.3,0.1,0.5,0.4,0.4,0.7C313.4,148.3,313.1,148.4,312.9,148.4z M301.6,144.9c-0.1,0-0.1,0-0.2,0c-1.9-0.5-3.8-1-5.7-1.5
				c-0.3-0.1-0.5-0.4-0.4-0.7c0.1-0.3,0.4-0.5,0.7-0.4c1.9,0.5,3.8,1,5.7,1.5c0.3,0.1,0.5,0.4,0.4,0.7
				C302.1,144.7,301.9,144.9,301.6,144.9z M290.1,142.1c0,0-0.1,0-0.1,0c-1.9-0.4-3.9-0.8-5.8-1.2c-0.3-0.1-0.5-0.4-0.5-0.7
				c0.1-0.3,0.4-0.5,0.7-0.4c1.9,0.4,3.9,0.8,5.8,1.2c0.3,0.1,0.5,0.4,0.4,0.7C290.7,141.9,290.4,142.1,290.1,142.1z M278.5,139.9
				C278.5,139.9,278.4,139.9,278.5,139.9c-1.9-0.3-3.8-0.6-5.7-0.8l-0.2,0c-0.3,0-0.5-0.3-0.5-0.6c0-0.3,0.3-0.5,0.7-0.5l0.2,0
				c1.9,0.3,3.8,0.5,5.6,0.8c0.3,0.1,0.5,0.3,0.5,0.7C279.1,139.7,278.8,139.9,278.5,139.9z M266.8,138.2
				C266.8,138.2,266.7,138.2,266.8,138.2c-2.1-0.3-4-0.6-6-0.9c-0.3-0.1-0.5-0.3-0.5-0.7c0.1-0.3,0.4-0.5,0.7-0.5
				c1.9,0.3,3.9,0.6,5.8,0.9c0.3,0,0.5,0.3,0.5,0.6C267.3,138,267.1,138.2,266.8,138.2z M255.1,136.3c0,0-0.1,0-0.1,0
				c-2-0.3-3.9-0.7-5.8-1.1c-0.3-0.1-0.5-0.4-0.5-0.7c0.1-0.3,0.4-0.5,0.7-0.4c1.9,0.4,3.8,0.7,5.8,1.1c0.3,0.1,0.5,0.4,0.5,0.7
				C255.6,136.1,255.4,136.3,255.1,136.3z M243.5,134.1c0,0-0.1,0-0.1,0c-2-0.4-3.9-0.8-5.8-1.2c-0.3-0.1-0.5-0.4-0.4-0.7
				c0.1-0.3,0.4-0.5,0.7-0.4c1.9,0.4,3.8,0.8,5.8,1.2c0.3,0.1,0.5,0.4,0.5,0.7C244,134,243.7,134.1,243.5,134.1z M231.9,131.6
				c0,0-0.1,0-0.1,0c-2-0.5-3.9-1-5.7-1.4c-0.3-0.1-0.5-0.4-0.4-0.7c0.1-0.3,0.4-0.5,0.7-0.4c1.8,0.5,3.7,0.9,5.7,1.4
				c0.3,0.1,0.5,0.4,0.4,0.7C232.4,131.4,232.2,131.6,231.9,131.6z M220.5,128.6c-0.1,0-0.1,0-0.2,0c-2-0.6-3.9-1.1-5.7-1.7
				c-0.3-0.1-0.5-0.4-0.4-0.7c0.1-0.3,0.4-0.5,0.7-0.4c1.8,0.5,3.7,1.1,5.7,1.6c0.3,0.1,0.5,0.4,0.4,0.7
				C221,128.5,220.7,128.6,220.5,128.6z M209.2,125.2c-0.1,0-0.1,0-0.2,0c-1.9-0.6-3.8-1.3-5.6-1.9c-0.3-0.1-0.5-0.4-0.3-0.7
				c0.1-0.3,0.5-0.4,0.8-0.3c1.8,0.6,3.7,1.3,5.6,1.9c0.3,0.1,0.5,0.4,0.4,0.7C209.6,125.1,209.4,125.2,209.2,125.2z M198.1,121.2
				c-0.1,0-0.2,0-0.2,0c-2-0.8-3.8-1.6-5.4-2.3c-0.3-0.1-0.4-0.5-0.3-0.8c0.1-0.3,0.5-0.4,0.8-0.3c1.6,0.7,3.4,1.5,5.4,2.3
				c0.3,0.1,0.4,0.5,0.3,0.7C198.5,121.1,198.3,121.2,198.1,121.2z"/>
		</g>
	</g>
</g>
<g>
	<g>
		<polygon class="st15" points="181.8,336.6 181.3,354.2 179.4,435.1 173,435.1 171,354.2 170.6,336.6 		"/>
		<polygon class="st10" points="181.8,336.6 181.3,354.2 179.4,435.1 173,435.1 171,354.2 170.6,336.6 		"/>
		<polygon class="st11" points="181.8,336.6 181.3,354.7 171,354.7 170.6,336.6 		"/>
		<g>
			<g>
				<polygon class="st15" points="216.6,434.8 210.7,337.9 201,337.9 209.3,434.8 				"/>
				<polygon class="st16" points="209.3,434.8 216.6,434.8 211.2,346.5 210.7,337.7 201,337.7 201.7,346.5 				"/>
				<polygon class="st11" points="201,337.7 201.7,346.8 211.2,346.8 210.7,337.7 				"/>
			</g>
			<g>
				<polygon class="st15" points="143.1,434.8 151.4,337.9 141.7,337.9 135.8,434.8 				"/>
				<polygon class="st16" points="143.1,434.8 150.6,346.5 151.4,337.7 141.7,337.7 141.2,346.5 135.8,434.8 				"/>
				<polygon class="st11" points="151.4,337.7 150.6,346.8 141.2,346.8 141.7,337.7 				"/>
			</g>
		</g>
		<path class="st15" d="M210.9,327.9h-69.4c-2.8,0-5,2.2-5,5v8.2h79.4v-8.2C215.9,330.2,213.6,327.9,210.9,327.9z"/>
		<g>
			<path class="st15" d="M217.6,334.5h-82.9c-1.1,0-2,0.9-2,2v2.6c0,1.1,0.9,2,2,2h82.9c1.1,0,2-0.9,2-2v-2.6
				C219.7,335.4,218.8,334.5,217.6,334.5z"/>
			<path class="st17" d="M217.6,334.5h-82.9c-1.1,0-2,0.9-2,2v2.6c0,1.1,0.9,2,2,2h82.9c1.1,0,2-0.9,2-2v-2.6
				C219.7,335.4,218.8,334.5,217.6,334.5z"/>
		</g>
	</g>
	<g id="_x3C_Group_x3E__89_">
		<path class="st18" d="M260.1,256.7l8-1.7c0,0,3.9-3.7,4.7-4.3c0.8-0.6,12.9,2.1,16.3,2.8c3.4,0.7-0.7,7.1-4,9.2
			c-3.3,2.1-15,1.1-15.2,0l-5.6-0.1L260.1,256.7z"/>
		<path class="st15" d="M221.5,241.5c1.9,2.5,3.5,5.5,4.9,8.5c3.2,6.7,5.5,13.3,8.7,15c4.7,2.4,30.1-2.1,30.1-2.1l-1.7-7.4
			c0,0-15.6,2.2-18.3,0c-5.7-4.7-3.8-19.5-10.1-24.6l-6.1,4.8L221.5,241.5z"/>
		<path class="st11" d="M221.5,241.5c1.9,2.5,3.5,5.5,4.9,8.5c3.4-3.9,2.9-11.2,2.6-14.3L221.5,241.5z"/>
		<polygon class="st18" points="205.1,426.9 214.5,425.7 215.8,404.2 206.4,405.5 		"/>
		<polygon class="st11" points="206.4,405.5 215.8,404.2 215.1,416.5 205.6,417.3 		"/>
		<path class="st4" d="M205.4,300.9l-2.4-24.2l-50.7-4c0,0-9.9,33.3-3.5,47.7c6.4,14.3,49.4,6.8,61.5,8.1c-7.3,28.4-6.6,84-6.6,84
			l17.4,1.3c0,0,13.4-59.8,16.1-88.3C239.1,306.3,222.5,306.8,205.4,300.9z"/>
		<polygon class="st19" points="201.8,413.3 222.7,414.6 224.5,406 201.5,405 		"/>
		<polygon class="st18" points="226.9,418.9 236.4,419.6 242.3,398.9 232.8,398.2 		"/>
		<g>
			<path class="st19" d="M237.7,420C237.7,420,237.7,420,237.7,420c0.1,0.1,0.1,0.1,0.1,0.1c0.7,0.4,1.5,0.7,2.3,1
				c0.6,0.2,1.3,0.2,1.8,0c0.4-0.2,0.6-0.6,0.6-1.1c0-0.3-0.1-0.5-0.3-0.7c-0.5-0.4-1.7-0.3-2.7-0.1c0.7-0.6,1.4-1.3,1.4-1.8
				c0-0.4-0.2-0.7-0.6-0.8c-0.3-0.1-0.6-0.1-1,0c-1.2,0.6-1.6,3.1-1.6,3.3c0,0,0.2,0,0.2,0c0,0,0,0,0,0c0,0-0.2,0-0.2,0
				C237.8,419.9,237.6,419.9,237.7,420C237.6,419.9,237.7,419.9,237.7,420z M238.4,419.5c-0.1,0-0.1,0-0.2,0.1
				c0.2-0.8,0.7-2.2,1.4-2.6c0.2-0.1,0.3-0.1,0.5-0.1l0.1,0c0.3,0.1,0.3,0.3,0.3,0.4C240.4,418,239.3,419,238.4,419.5z M238.4,419.9
				c1.3-0.4,3-0.7,3.5-0.3c0.1,0.1,0.2,0.2,0.2,0.3c0,0.3-0.1,0.5-0.4,0.7C241.2,420.9,240,420.7,238.4,419.9z"/>
		</g>
		<polygon class="st11" points="232.8,398.2 242.3,398.9 238.9,410.7 229.5,409.6 		"/>
		<path class="st4" d="M245.5,409.2l-16.7-4.7c0,0,10-53.9,20.1-72.5c-0.8-0.2-1.8-0.5-3-0.9c-2.2-0.6-5.2-1.4-8.7-2.4
			c-24.3-6.4-73.6-18.5-73.6-18.5l22.5-26.9c0,0,91.6,15.1,91.6,42.4C277.7,336.7,245.5,409.2,245.5,409.2z"/>
		<polygon class="st19" points="226.6,404.9 246.8,410.3 250.4,402.3 228.2,396.8 		"/>
		<path class="st11" d="M245.9,331.1c-2.2-0.6-5.2-1.4-8.7-2.4c0.7-5.5,0.7-11.8-2.1-15c-5.5-6.4-19.6-10.1-27.7-11.5
			c-6.7-1.1-29.3-3.4-29.3-3.4s29.3-2.7,59.3,5.7C252.3,308.7,249.4,322.5,245.9,331.1z"/>
		<polygon class="st20" points="201.8,413.3 222.7,414.6 224.5,406 201.5,405 		"/>
		<polygon class="st20" points="226.6,404.9 246.8,410.3 250.4,402.3 228.2,396.8 		"/>
		<path class="st15" d="M237.3,418.6l-10.3-2.7c-0.4-0.1-0.7,0.1-0.9,0.4c0,0,0,0,0,0l-2.8,7.7c-0.2,0.8,0.3,1.7,1.1,2
			c3.6,0.9,5.4,1.2,9.9,2.3c2.8,0.7,8.2,2.4,12.2,2.9c4,0.4,4.3-3.3,2.7-3.8c-3.9-1.2-8.5-5.1-10.6-7.7
			C238.4,419.1,237.9,418.8,237.3,418.6z"/>
		<g>
			<path class="st19" d="M215.4,425.7c0,0,0.2,0,0.2,0c0,0,0.2,0.1,0.2,0.1c0,0,0,0,0,0.1c0,0,0.1,0,0.1,0c0.8,0.2,1.6,0.4,2.5,0.5
				c0.6,0.1,1.3,0,1.8-0.3c0.3-0.3,0.5-0.7,0.3-1.2c0-0.3-0.2-0.5-0.5-0.6c-0.6-0.3-1.7,0.1-2.6,0.5c0.6-0.7,1-1.5,0.9-2.1
				c-0.1-0.4-0.4-0.7-0.8-0.7c-0.3-0.1-0.8,0-1.1,0.2C215.6,422.9,215.4,425.5,215.4,425.7C215.4,425.7,215.4,425.7,215.4,425.7
				C215.4,425.7,215.4,425.7,215.4,425.7C215.4,425.7,215.4,425.7,215.4,425.7z M216.5,425.2c-0.1,0-0.1,0.1-0.2,0.1
				c0-0.9,0.2-2.3,0.8-2.8c0.1-0.1,0.3-0.2,0.5-0.2l0.1,0c0.3,0.1,0.4,0.2,0.4,0.3C218.1,423.3,217.3,424.5,216.5,425.2z
				 M216.6,425.6c1.1-0.6,2.8-1.3,3.4-1c0.1,0.1,0.2,0.2,0.2,0.3c0.1,0.3,0,0.5-0.2,0.7C219.5,426.1,218.3,426,216.6,425.6z"/>
		</g>
		<path class="st15" d="M215.2,424.6l-10.7-0.6c-0.4,0-0.7,0.2-0.7,0.6c0,0,0,0,0,0l-1,8c-0.1,0.9,0.6,1.6,1.6,1.7
			c3.7,0.2,5.5,0.1,10.2,0.3c2.9,0.2,8.6,0.7,12.5,0.4c4-0.4,3.5-4.1,1.8-4.3c-4.1-0.4-9.5-3.3-12-5.5
			C216.4,424.8,215.8,424.6,215.2,424.6z"/>
		<path class="st15" d="M204.2,280.6c0,0-0.5-2.8,0.7-7.8c1.3-5.4,4.4-13.3,12.1-23.2c4.4-5.6,10.3-11.9,18.1-18.7
			c0,0-26.3-20.8-45.1-17.8c-18.5,3-40.4,65.6-40.4,65.6L204.2,280.6z"/>
		<path class="st18" d="M227.5,223c-2.6-1.1-5.6,0-5.6,0s-1.1,5.7-7.9,6c-0.8,0-1.7,0-2.7-0.1c-9.2-1.2-8.2-14.2-8.2-14.2
			c3.8,0.3,7-0.8,9.6-2.2c0,0,0,0,0,0c4-2.2,6.3-5.3,6.3-5.3L227.5,223z"/>
		<path class="st11" d="M227.5,223c-2.6-1.1-5.6,0-5.6,0s-1.1,5.7-7.9,6c-2.4-5.6-2.1-12-1.3-16.5c0,0,0,0,0,0
			c4-2.2,6.3-5.3,6.3-5.3L227.5,223z"/>
		<g>
			<path class="st15" d="M235.1,198.4c-4.8,1.1-4.7,6,1.4,15.6c5.2-3.1,9.1-11.4,7.1-14.5C241.7,196.3,239.3,197.4,235.1,198.4z"/>
			<path class="st18" d="M216,199.3c-3.1,9.1-5.3,14.3-2.5,20.6c4.3,9.5,17.4,9.7,23.2,1.6c5.2-7.2,9.4-20.9,1.7-27.8
				c-5.4-5-14.1-4.8-19.3,0.4C217.7,195.7,216.6,197.4,216,199.3z"/>
			<path class="st15" d="M228.9,206.9c-0.3,0.7-0.1,1.5,0.4,1.6c0.5,0.2,1.1-0.3,1.4-1c0.3-0.7,0.1-1.5-0.3-1.6
				C229.8,205.8,229.2,206.3,228.9,206.9z"/>
			<path class="st15" d="M237.5,210.2c-0.3,0.7-0.1,1.5,0.4,1.6c0.5,0.2,1.1-0.2,1.4-1c0.3-0.7,0.1-1.5-0.4-1.6
				C238.4,209,237.8,209.4,237.5,210.2z"/>
			<path class="st21" d="M234.5,209.5c0,2.5,0.4,5.1,1.1,7.5c-1.9,0.7-3.9-0.7-3.9-0.7L234.5,209.5z"/>
			<path class="st15" d="M222.9,192.9c3.8,3,1.4,7.3-8.6,13.3c-3.2-5-2.8-14.1,0.4-16C218,188.3,219.6,190.2,222.9,192.9z"/>
			<path class="st18" d="M208.7,204.8c-0.2,2.4,0.5,4.8,2.1,6.6c2.2,2.4,5.1,1,6.1-1.8c0.9-2.6,0.8-7-2.1-8.3
				C211.8,199.9,209,201.9,208.7,204.8z"/>
			<g>
				<path class="st22" d="M233.1,210.1c-0.9,2.3-3.3,3.6-5.3,2.9c-2-0.7-2.9-3.2-2-5.5c0.9-2.3,3.3-3.6,5.3-2.9
					C233.1,205.4,234,207.8,233.1,210.1z"/>
				<path class="st22" d="M243.2,213.5c-0.9,2.3-3.3,3.6-5.3,2.9c-2-0.7-2.9-3.2-2-5.5c0.9-2.3,3.3-3.6,5.3-2.9
					C243.2,208.8,244.1,211.2,243.2,213.5z"/>
				<path class="st22" d="M233.1,210.1c0,0,1.9-0.7,2.8,0.8"/>
				<line class="st22" x1="225.8" y1="207.5" x2="217.2" y2="203.7"/>
			</g>
			<path class="st15" d="M225.8,202.8c0.2,0.1,0.4,0.1,0.5,0c1.1-0.7,2.4-0.9,3.6-0.5c0.3,0.1,0.6,0,0.7-0.2c0.1-0.2,0-0.5-0.3-0.6
				c0,0,0,0,0,0c-1.5-0.5-3.2-0.3-4.6,0.5c-0.2,0.1-0.3,0.4-0.2,0.7c0,0,0,0,0,0C225.6,202.7,225.7,202.8,225.8,202.8z"/>
			<path class="st15" d="M241.8,208.1c0.1,0.1,0.2,0.1,0.3,0.1c0.3,0,0.5-0.3,0.5-0.5c0,0,0,0,0,0c-0.1-1.6-1.1-2.9-2.5-3.7
				c-0.2-0.1-0.6,0-0.7,0.2l0,0c-0.1,0.2,0,0.5,0.2,0.6l0,0c1.1,0.7,1.8,1.8,1.9,3C241.6,208,241.7,208.1,241.8,208.1z"/>
			<path class="st22" d="M224.6,214.5c0,0-0.5,3.5,3,4.9"/>
			<path class="st15" d="M215.9,191c0,0-1.6-3.2,3.5-6c5.1-2.8,20-3.4,26.3,6c5.7,8.6-1.2,11.8-10.1,11c0,0,3.7-0.2,4.5-1.2
				c0,0-12.4,0.2-18.6-8.5L215.9,191z"/>
		</g>
		<polygon class="st15" points="275.1,258.6 275.3,262.2 277,259 280.9,241.9 279.1,241.5 		"/>
		<g>
			<polygon class="st19" points="302.8,263.6 287.1,260.7 262,262.2 257.6,263.6 242.2,262.2 227.6,264.9 282.9,264.9 			"/>
			<polygon class="st5" points="302.8,263.6 287.1,260.7 262,262.2 257.6,263.6 242.2,262.2 227.6,264.9 282.9,264.9 			"/>
			<polygon class="st11" points="262,262.2 273.7,265.1 254.9,264.9 			"/>
			<polygon class="st11" points="242.2,262.2 251.3,264.9 227.6,264.9 			"/>
		</g>
		<path class="st11" d="M189.4,266.8c5.1,3,10.7,4.8,15.5,5.9c1.3-5.4,4.4-13.3,12.1-23.2c-3.2,0-8.4-0.1-10.3,0
			c-2.8,0.1-11.1-18.8-11.1-18.8l-12.8-6C182.8,224.8,176.9,259.4,189.4,266.8z"/>
		<path class="st18" d="M226.1,258.2l8.4,1.5c0,0,6-1.5,8-1.5c2,0,11.3,2.8,11.4,3.9c0.1,1.1-3.7,6.3-4.8,7.1
			c-1.1,0.8-9.1-1.1-9.1-1.1s-5.5,0.5-6.9-1.3l-8.6-1.1L226.1,258.2z"/>
		<path class="st15" d="M188.7,213.3c8.8-2.4,11.4,30.7,15.1,36.4c3.8,5.7,26.7,7.7,26.7,7.7l-1.9,9.4c0,0-22,0-32.6-3.2
			c-7.3-2.2-13.8-33-13.3-38.8C183.3,219,183.7,214.7,188.7,213.3z"/>
	</g>
	<g>
		<g>
			<g>
				<polygon class="st15" points="266.2,434.8 254,272.4 263.6,272.4 273.6,434.8 				"/>
				<polygon class="st10" points="266.2,434.8 254.6,281.1 253.9,272.7 263.6,272.7 264.1,281.1 273.6,434.8 				"/>
				<polygon class="st11" points="264.1,280.6 254.6,280.6 253.9,272.7 263.6,272.7 				"/>
			</g>
			<g>
				<polygon class="st15" points="320.2,434.8 319.1,272.4 328.8,272.4 327.7,434.8 				"/>
				<polygon class="st16" points="327.7,434.8 320.2,434.8 319.3,300.7 319.1,272.7 328.8,272.7 328.6,300.7 				"/>
				<polygon class="st11" points="328.8,272.7 328.6,301 319.3,301 319.1,272.7 				"/>
			</g>
			<g>
				<polygon class="st15" points="396.6,434.8 384.4,272.4 394,272.4 404,434.8 				"/>
				<polygon class="st16" points="396.6,434.8 385,281.1 384.4,272.7 394,272.7 394.5,281.1 404,434.8 				"/>
				<polygon class="st11" points="394.5,280.6 385,280.6 384.4,272.7 394,272.7 				"/>
			</g>
			<g>
				<polygon class="st15" points="184.6,434.8 194.6,272.4 204.2,272.4 192,434.8 				"/>
				<polygon class="st16" points="192,434.8 184.6,434.8 194.1,281.1 194.6,272.7 204.2,272.7 203.6,281.1 				"/>
				<polygon class="st11" points="194.6,272.7 204.2,272.7 203.6,280.6 194.1,280.6 				"/>
			</g>
			<g>
				<path class="st15" d="M399.5,276.8H189.1c-1.2,0-2.2-1-2.2-2.2v-6.5h214.7v6.5C401.7,275.8,400.7,276.8,399.5,276.8z"/>
			</g>
			<g class="st9">
				<path class="st14" d="M399.5,276.8H189.1c-1.2,0-2.2-1-2.2-2.2v-6.5h214.7v6.5C401.7,275.8,400.7,276.8,399.5,276.8z"/>
			</g>
			<rect x="186.9" y="268.1" class="st11" width="214.7" height="4.3"/>
			<g>
				<path class="st15" d="M406.2,269.2H182.4c-1.4,0-2.6-1.1-2.6-2.4l0,0c0-1.4,1.1-2.4,2.6-2.4h223.7c1.4,0,2.6,1.1,2.6,2.4l0,0
					C408.7,268.1,407.6,269.2,406.2,269.2z"/>
			</g>
			<g class="st9">
				<path class="st14" d="M406.2,269.2H182.4c-1.4,0-2.6-1.1-2.6-2.4l0,0c0-1.4,1.1-2.4,2.6-2.4h223.7c1.4,0,2.6,1.1,2.6,2.4l0,0
					C408.7,268.1,407.6,269.2,406.2,269.2z"/>
			</g>
		</g>
	</g>
	<g>
		<g>
			<path class="st4" d="M375.5,264.6h-21.8c-1.4,0-2.6-1-2.6-1h26.9C378.1,263.5,376.9,264.6,375.5,264.6z"/>
		</g>
		<path class="st4" d="M372.4,249.2c-0.4,0.1-0.8,0.2-1.2,0.3h-0.5c-1.2-0.5-2.5-0.5-3.7-0.1c0.1,0,0.2,0.1,0.3,0.1h-0.5
			c0.1,0,0.2-0.1,0.3-0.1c-1.2-0.4-2.4-0.4-3.5,0c-1.3-0.4-2.6-0.4-3.8,0.1c0,0-0.1,0-0.1,0v0c-0.1,0-0.1,0-0.2-0.1
			c-0.4-0.1-0.8-0.2-1.2-0.3c-1.5-0.3-1.6,0.3-1.6,0.3l0.1,0.1c0.1,0.1,0.5,0.5,0.8,0.8l0.1,0.1c0.2,0.3,0.4,0.6,0.3,0.8h-1.5
			c-1.2,0-2.2,0.8-2.2,1.8v2.9c0,0.5,0.2,1,0.6,1.3l2.8,2.3c0.3,0.2,0.6,0.4,0.9,0.5c1.1,2.1,3.6,3.5,6.5,3.5h1c4,0,7.2-2.7,7.2-6
			v-5.4c0-0.6,0.1-1.2,0.4-1.7l0.5-1C374,249.5,373.9,248.8,372.4,249.2z M355.6,257.2c-0.7-0.6-0.8-0.6-0.8-1.5V253
			c0-0.6,0.6-1.2,1.4-1.2h0.6c0.5,0,1,0.4,1,0.8c0,1.8,0.1,6.1,0.1,6.2L355.6,257.2z"/>
		<path class="st4" d="M364.9,238.9c-0.8-1.6-1.6-3.3-1.8-5.2c-0.2-1.8,1.7-4.9,1.7-4.9c-1.6,1.2-2.8,3.2-3.1,5.3
			c-0.3,2.2,0.2,4.4,1.5,6.1c0.8,1.1,1.9,2.1,2.9,2.9C366.5,241.7,365.5,240.2,364.9,238.9z"/>
		<g class="st11">
			<path class="st23" d="M375.5,264.6h-21.8c-1.4,0-2.6-1-2.6-1h26.9C378.1,263.5,376.9,264.6,375.5,264.6z"/>
		</g>
		<path class="st24" d="M372.4,249.2c-0.4,0.1-0.8,0.2-1.2,0.3h-0.5c-1.2-0.5-2.5-0.5-3.7-0.1c0.1,0,0.2,0.1,0.3,0.1h-0.5
			c0.1,0,0.2-0.1,0.3-0.1c-1.2-0.4-2.4-0.4-3.5,0c-1.3-0.4-2.6-0.4-3.8,0.1c0,0-0.1,0-0.1,0v0c-0.1,0-0.1,0-0.2-0.1
			c-0.4-0.1-0.8-0.2-1.2-0.3c-1.5-0.3-1.6,0.3-1.6,0.3l0.1,0.1c0.1,0.1,0.5,0.5,0.8,0.8l0.1,0.1c0.2,0.3,0.4,0.6,0.3,0.8h-1.5
			c-1.2,0-2.2,0.8-2.2,1.8v2.9c0,0.5,0.2,1,0.6,1.3l2.8,2.3c0.3,0.2,0.6,0.4,0.9,0.5c1.1,2.1,3.6,3.5,6.5,3.5h1c4,0,7.2-2.7,7.2-6
			v-5.4c0-0.6,0.1-1.2,0.4-1.7l0.5-1C374,249.5,373.9,248.8,372.4,249.2z M355.6,257.2c-0.7-0.6-0.8-0.6-0.8-1.5V253
			c0-0.6,0.6-1.2,1.4-1.2h0.6c0.5,0,1,0.4,1,0.8c0,1.8,0.1,6.1,0.1,6.2L355.6,257.2z"/>
		<path class="st25" d="M364.9,238.9c-0.8-1.6-1.6-3.3-1.8-5.2c-0.2-1.8,1.7-4.9,1.7-4.9c-1.6,1.2-2.8,3.2-3.1,5.3
			c-0.3,2.2,0.2,4.4,1.5,6.1c0.8,1.1,1.9,2.1,2.9,2.9C366.5,241.7,365.5,240.2,364.9,238.9z"/>
	</g>
	<g>
		<polygon class="st4" points="341.1,251.7 348.5,264.5 345.3,264.5 337.5,256.8 		"/>
		<polygon class="st4" points="342.3,264.5 311.9,264.5 317.3,243.7 347.6,243.7 		"/>
		<polygon class="st11" points="342.3,264.5 311.9,264.5 317.3,243.7 347.6,243.7 		"/>
		<polygon class="st4" points="341.1,264.5 310.7,264.5 316.1,243.7 346.5,243.7 		"/>
		<polygon class="st17" points="339.3,262.4 313.6,262.4 317.9,245.8 343.6,245.8 		"/>
		<g>
			<path class="st15" d="M335.8,249.2c0,0-1-3.7-5.4-3c-4.4,0.6-6.8,4.3-6.4,6.4c0.4,2.1-1.6,4.5-3.6,4.8c-1.9,0.4-3.5,2.5-3.2,3.2
				s-1.1,1.7-1.1,1.7h16.2L335.8,249.2z"/>
			<path class="st18" d="M333.4,258.1c0,0.1-0.1,0.1-0.3,0.2c-0.6,0.4-1.1,0.9-1.4,1.5c-0.7,1.2-0.7,2.6-0.7,2.6H326
				c0.5-0.2,0.8-0.5,1-0.8c1.1-1.3,0.8-3.3,0.8-3.3s3-0.5,4.6-0.5C333.1,257.8,333.6,257.9,333.4,258.1z"/>
			<path class="st11" d="M333.4,258.1c0,0.1-0.1,0.1-0.3,0.2c-0.6,0.4-1.1,0.9-1.4,1.5c-1.4,1-3.3,2-4.7,1.7
				c1.1-1.3,0.8-3.3,0.8-3.3s3-0.5,4.6-0.5L333.4,258.1z"/>
			<path class="st18" d="M329.6,249.3c0,0-4.5,6.3-3.8,8.3c0.6,2,4,2.4,5.6,1.9c1.6-0.5,6.1-7.8,6.1-7.8S332.1,248.3,329.6,249.3z"
				/>
			<path class="st15" d="M331.6,249.9c0,0-1.3,4.1,0.5,6c1.8,1.9-1.7,6.6-1.7,6.6h5.8c0,0,1.2-0.8,0.1-2.2c-1.2-1.4,0.6-3.6,1.5-5
				c0.9-1.4,2-4.7,0.9-6C337.6,247.9,332,247.6,331.6,249.9z"/>
			<path class="st21" d="M328.5,253.4l-2.3,1.3c0,0,0.4,0.5,1.2,0.6L328.5,253.4z"/>
		</g>
	</g>
</g>
</svg>
