<?xml version="1.0" encoding="utf-8"?>
<!-- Generator: Adobe Illustrator 26.0.0, SVG Export Plug-In . SVG Version: 6.00 Build 0)  -->
<svg version="1.1" id="Layer_1" xmlns="http://www.w3.org/2000/svg" xmlns:xlink="http://www.w3.org/1999/xlink" x="0px" y="0px"
	 viewBox="0 0 750 500" style="enable-background:new 0 0 750 500;" xml:space="preserve">
<style type="text/css">
	.st0{display:none;}
	.st1{display:inline;fill:#E0E0E0;}
	.st2{display:inline;fill:#FFFFFF;}
	.st3{display:inline;}
	.st4{fill:#E0E0E0;}
	.st5{display:inline;fill:#263238;}
	.st6{display:inline;fill:#455A64;}
	.st7{display:inline;fill:#6060FC;}
	.st8{display:inline;fill:#FFBE9D;}
	.st9{display:inline;fill:#FAFAFA;}
	.st10{display:inline;opacity:0.3;enable-background:new    ;}
	.st11{display:inline;opacity:0.5;fill:#FFFFFF;enable-background:new    ;}
	.st12{display:inline;fill:#EB996E;}
	.st13{display:inline;fill:#E8505B;}
	.st14{display:inline;fill:#7575F9;}
	.st15{display:inline;opacity:0.2;fill:#FFFFFF;enable-background:new    ;}
	.st16{display:inline;opacity:0.4;enable-background:new    ;}
	.st17{display:inline;opacity:0.7;fill:#FFFFFF;enable-background:new    ;}
	.st18{display:inline;fill:#B78876;}
	.st19{display:inline;fill:#AA6550;}
	.st20{display:inline;opacity:0.3;fill:#E0E0E0;enable-background:new    ;}
	.st21{display:inline;fill:#EBEBEB;}
	.st22{opacity:0.29;}
	.st23{fill:#C9C8C3;}
	.st24{fill:none;stroke:#C9C8C3;stroke-width:2.0753;stroke-miterlimit:10;}
	.st25{fill:#FFFFFF;}
	.st26{fill:#122832;}
	.st27{fill:none;stroke:#122832;stroke-width:5.9175;stroke-miterlimit:10;}
	.st28{fill:#DF9257;}
	.st29{fill:#B6613B;}
	.st30{fill:#009FBF;}
	.st31{fill:#006A80;}
	.st32{fill:#0E162E;}
	.st33{opacity:0.33;fill:#FFFFFF;}
	.st34{fill:none;stroke:#0E162E;stroke-width:2.1559;stroke-miterlimit:10;}
	.st35{fill:none;stroke:#0E162E;stroke-width:1.6574;stroke-miterlimit:10;}
	.st36{fill:#FC1381;}
	.st37{fill:#A3135F;}
	.st38{fill:none;stroke:#FFFFFF;stroke-width:1.3108;stroke-miterlimit:10;}
	.st39{fill:#000664;}
	.st40{fill:#FFB701;}
	.st41{fill:none;stroke:#FFB701;stroke-width:2.6215;stroke-miterlimit:10;}
	.st42{opacity:0.61;}
	.st43{fill:none;stroke:#FFB701;stroke-width:1.4965;stroke-miterlimit:10;}
	.st44{opacity:0.22;fill:#A0A0A0;}
	.st45{fill:none;stroke:#A0A0A0;stroke-width:0.7707;stroke-miterlimit:10;}
	.st46{fill:none;stroke:#A0A0A0;stroke-width:0.7707;stroke-miterlimit:10;stroke-dasharray:5.2448,5.2448;}
	.st47{fill:none;stroke:#A0A0A0;stroke-width:0.7707;stroke-miterlimit:10;stroke-dasharray:4.9991,4.9991;}
	.st48{fill:#FFFFFF;stroke:#222221;stroke-width:1.7438;stroke-miterlimit:10;}
	.st49{fill:none;stroke:#A0A0A0;stroke-width:0.7707;stroke-miterlimit:10;stroke-dasharray:5.2314;}
</style>
<g class="st0">
	<ellipse transform="matrix(0.7841 -0.6206 0.6206 0.7841 -37.3129 64.3267)" class="st1" cx="73.8" cy="85.8" rx="0.4" ry="10.2"/>
	<path class="st2" d="M169.2,77.9c-4.4,5.5-8.9,11-13.3,16.4"/>
</g>
<g class="st0">
	<ellipse class="st1" cx="675.9" cy="338.4" rx="1.9" ry="0.3"/>
	<ellipse class="st1" cx="668.2" cy="338.4" rx="1.9" ry="0.3"/>
	<ellipse class="st1" cx="660.5" cy="338.4" rx="1.9" ry="0.3"/>
	<ellipse class="st1" cx="652.8" cy="338.4" rx="1.9" ry="0.3"/>
	<ellipse class="st1" cx="645.1" cy="338.4" rx="1.9" ry="0.3"/>
	<ellipse class="st1" cx="637.4" cy="338.4" rx="1.9" ry="0.3"/>
	<ellipse class="st1" cx="629.7" cy="338.4" rx="1.9" ry="0.3"/>
	<ellipse class="st1" cx="622" cy="338.4" rx="1.9" ry="0.3"/>
	<ellipse class="st1" cx="614.3" cy="338.4" rx="1.9" ry="0.3"/>
	<ellipse class="st1" cx="606.6" cy="338.4" rx="1.9" ry="0.3"/>
	<ellipse class="st1" cx="598.9" cy="338.4" rx="1.9" ry="0.3"/>
	<ellipse class="st1" cx="591.1" cy="338.4" rx="1.9" ry="0.3"/>
	<path class="st1" d="M583.7,336.2c0.2,0,0.3,0.9,0.3,1.9v0.3l-0.3-0.3c0.9,0,1.6,0.2,1.6,0.3c0,0.2-0.7,0.3-1.6,0.3h-0.3v-0.3
		c0-0.1,0-0.2,0-0.3C583.4,337,583.5,336.2,583.7,336.2z"/>
	<ellipse class="st1" cx="583.7" cy="330.4" rx="0.3" ry="1.9"/>
	<ellipse class="st1" cx="583.7" cy="322.7" rx="0.3" ry="1.9"/>
	<ellipse class="st1" cx="583.7" cy="315" rx="0.3" ry="1.9"/>
	<ellipse class="st1" cx="583.7" cy="307.3" rx="0.3" ry="1.9"/>
	<ellipse class="st1" cx="583.7" cy="299.6" rx="0.3" ry="1.9"/>
	<ellipse class="st1" cx="583.7" cy="291.9" rx="0.3" ry="1.9"/>
	<ellipse class="st1" cx="583.7" cy="284.1" rx="0.3" ry="1.9"/>
	<ellipse class="st1" cx="583.7" cy="276.4" rx="0.3" ry="1.9"/>
	<ellipse class="st1" cx="583.7" cy="268.7" rx="0.3" ry="1.9"/>
	<ellipse class="st1" cx="583.7" cy="261" rx="0.3" ry="1.9"/>
	<ellipse class="st1" cx="583.7" cy="253.3" rx="0.3" ry="1.9"/>
	<path class="st1" d="M584.3,244.3c0,0.1-0.2,0.2-0.6,0.2l0.2-0.2c0.1,0.3,0.1,0.8,0.1,1.3c0,1.1-0.1,1.9-0.3,1.9s-0.3-0.9-0.3-1.9
		c0-0.5,0-1,0.1-1.3V244h0.2C584.1,244.1,584.3,244.2,584.3,244.3z"/>
	<ellipse class="st1" cx="590.1" cy="244.3" rx="1.9" ry="0.3"/>
	<ellipse class="st1" cx="597.8" cy="244.3" rx="1.9" ry="0.3"/>
	<ellipse class="st1" cx="605.5" cy="244.3" rx="1.9" ry="0.3"/>
	<ellipse class="st1" cx="613.2" cy="244.3" rx="1.9" ry="0.3"/>
	<ellipse class="st1" cx="620.9" cy="244.3" rx="1.9" ry="0.3"/>
	<ellipse class="st1" cx="628.6" cy="244.3" rx="1.9" ry="0.3"/>
	<ellipse class="st1" cx="636.3" cy="244.3" rx="1.9" ry="0.3"/>
	<ellipse class="st1" cx="644" cy="244.3" rx="1.9" ry="0.3"/>
	<ellipse class="st1" cx="651.7" cy="244.3" rx="1.9" ry="0.3"/>
	<ellipse class="st1" cx="659.5" cy="244.3" rx="1.9" ry="0.3"/>
	<ellipse class="st1" cx="667.2" cy="244.3" rx="1.9" ry="0.3"/>
	<ellipse class="st1" cx="674.9" cy="244.3" rx="1.9" ry="0.3"/>
	<ellipse class="st1" cx="677.9" cy="249" rx="0.3" ry="1.9"/>
	<ellipse class="st1" cx="677.9" cy="256.7" rx="0.3" ry="1.9"/>
	<ellipse class="st1" cx="677.9" cy="264.4" rx="0.3" ry="1.9"/>
	<ellipse class="st1" cx="677.9" cy="272.1" rx="0.3" ry="1.9"/>
	<ellipse class="st1" cx="677.9" cy="279.8" rx="0.3" ry="1.9"/>
	<ellipse class="st1" cx="677.9" cy="287.5" rx="0.3" ry="1.9"/>
	<ellipse class="st1" cx="677.9" cy="295.2" rx="0.3" ry="1.9"/>
	<ellipse class="st1" cx="677.9" cy="302.9" rx="0.3" ry="1.9"/>
	<ellipse class="st1" cx="677.9" cy="310.6" rx="0.3" ry="1.9"/>
	<ellipse class="st1" cx="677.9" cy="318.3" rx="0.3" ry="1.9"/>
	<ellipse class="st1" cx="677.9" cy="326.1" rx="0.3" ry="1.9"/>
	<ellipse class="st1" cx="677.9" cy="333.8" rx="0.3" ry="1.9"/>
	<path class="st1" d="M674.4,333.9h7v7h-7V333.9z"/>
	<path class="st1" d="M580.2,334.9h7v7h-7V334.9z"/>
	<path class="st1" d="M674.4,240.1h7v7h-7V240.1z"/>
	<path class="st1" d="M580.2,240.8h7v7h-7V240.8z"/>
	<path class="st2" d="M284.9,73.7H420v90.5H284.9V73.7z"/>
	<path class="st1" d="M420.1,164.2c0,0,0-0.6,0-1.6c0-1.1,0-2.7,0-4.8c0-4.2,0-10.3,0-18.2c0-15.7-0.1-38.3-0.1-65.9l0.2,0.2
		c-37.2,0-84.2,0-135.1,0l0.2-0.2v90.5l-0.2-0.2c39.8,0,73.5,0.1,97.4,0.1c11.9,0,21.4,0,27.8,0.1h7.4h1.9H420.1c0,0-0.2,0-0.6,0
		s-1.1,0-1.9,0c-1.7,0-4.1,0-7.4,0c-6.5,0-15.9,0-27.8,0.1c-23.9,0-57.7,0.1-97.5,0.1h-0.2v-0.2c0-27.6,0-58.2,0-90.5v-0.2h0.2H420
		h0.2v0.2c0,27.6-0.1,50.2-0.1,66v18.2v4.7V164.2z"/>
	<path class="st1" d="M298.8,139.4h16.9v16.9h-16.9V139.4z"/>
	<path class="st1" d="M329.5,139.4h16.9v16.9h-16.9V139.4z"/>
	<path class="st1" d="M360.2,139.4h16.9v16.9h-16.9V139.4z"/>
	<path class="st1" d="M391,139.4h16.9v16.9H391V139.4z"/>
	<path class="st1" d="M75.2,77.1h102.7V226h-102L75.2,77.1z"/>
	<path class="st2" d="M169.2,225.3H67.5V77.8h101.7V225.3z"/>
	<path class="st1" d="M169.9,77.1V226H66.8V77.1H169.9z M168.5,224.6V78.5H68.2v146.1H168.5z"/>
	<path class="st2" d="M80.1,93.8h76.5v115.5H80.1V93.8z"/>
	<path class="st1" d="M80.1,93.8v0.6V96v6.3c0,5.5,0.1,13.6,0.1,23.8c0,20.4,0.1,49.2,0.2,83.2l-0.3-0.3h76.5l-0.4,0.4
		c0-43.6,0.1-83.8,0.1-115.5l0.3,0.3c-23.3-0.1-42.3-0.1-55.6-0.2c-6.6,0-11.8-0.1-15.4-0.1c-1.8,0-3.1,0-4,0
		C80.6,93.8,80.1,93.8,80.1,93.8s0.4,0,1.3,0h4c3.5,0,8.7,0,15.3-0.1c13.3,0,32.5-0.1,55.8-0.2h0.3v0.3c0,31.8,0,72,0.1,115.5v0.4
		h-0.4c-27.2,0-53.1,0-76.5,0h-0.3v-0.3c0.1-34,0.1-63,0.2-83.4c0-10.2,0.1-18.2,0.1-23.7c0-2.7,0-4.8,0-6.3c0-0.7,0-1.2,0-1.6
		C80.1,94,80.1,93.8,80.1,93.8L80.1,93.8z"/>
	<path class="st1" d="M67.2,225.3c-0.1-0.1,0.6-1,1.6-2.5c1.1-1.5,2.6-3.6,4.4-5.8s3.5-4.2,4.7-5.5c1.3-1.4,2.1-2.2,2.2-2.1
		c0.2,0.1-2.8,3.7-6.3,8.1S67.3,225.4,67.2,225.3z"/>
	<g class="st3">
		
			<ellipse transform="matrix(0.6297 -0.7769 0.7769 0.6297 -6.6433 158.1898)" class="st4" cx="162.6" cy="86.1" rx="10.6" ry="0.4"/>
		
			<ellipse transform="matrix(0.7843 -0.6203 0.6203 0.7843 -99.6963 147.9973)" class="st4" cx="163" cy="217.4" rx="0.4" ry="10.1"/>
		<path class="st4" d="M123.3,153.2h-13.5l-1.6,3.7c-0.5,1.2-0.8,2.3-0.8,3.1c0,1.1,0.4,1.9,1.3,2.4c0.5,0.3,1.8,0.5,3.7,0.7v1H99.8
			v-1c1.4-0.2,2.5-0.8,3.4-1.7s2-2.8,3.3-5.7l13.6-30.4h0.5l13.7,31.2c1.3,3,2.4,4.8,3.2,5.6c0.6,0.6,1.5,0.9,2.7,1v1h-18.4v-1h0.8
			c1.5,0,2.5-0.2,3.1-0.6c0.4-0.3,0.6-0.7,0.6-1.3c0-0.3-0.1-0.7-0.2-1c0-0.2-0.3-0.9-0.8-2.1L123.3,153.2z M122.3,151.2l-5.7-13.1
			l-5.8,13.1H122.3z"/>
		<path class="st4" d="M461,104.9c0-0.1,0.5-0.1,1.2-0.1h0.4l-0.1,0.1c0-0.5,0.1-0.8,0.1-0.8c0.1,0,0.1,0.3,0.1,0.8v0.1h-0.1
			c-0.1,0-0.3,0-0.4,0C461.6,105,461,104.9,461,104.9z"/>
		<ellipse class="st4" cx="458.7" cy="104.9" rx="0.8" ry="0.1"/>
		<ellipse class="st4" cx="455.5" cy="104.9" rx="0.8" ry="0.1"/>
		<ellipse class="st4" cx="452.4" cy="104.9" rx="0.8" ry="0.1"/>
		<ellipse class="st4" cx="449.2" cy="104.9" rx="0.8" ry="0.1"/>
		<ellipse class="st4" cx="446.1" cy="104.9" rx="0.8" ry="0.1"/>
		<ellipse class="st4" cx="442.9" cy="104.9" rx="0.8" ry="0.1"/>
		<ellipse class="st4" cx="439.8" cy="104.9" rx="0.8" ry="0.1"/>
		<ellipse class="st4" cx="436.6" cy="104.9" rx="0.8" ry="0.1"/>
		<ellipse class="st4" cx="433.5" cy="104.9" rx="0.8" ry="0.1"/>
		<ellipse class="st4" cx="430.3" cy="104.9" rx="0.8" ry="0.1"/>
		<ellipse class="st4" cx="427.1" cy="104.9" rx="0.8" ry="0.1"/>
		<ellipse class="st4" cx="424" cy="104.9" rx="0.8" ry="0.1"/>
		<ellipse class="st4" cx="420.8" cy="104.9" rx="0.8" ry="0.1"/>
		<ellipse class="st4" cx="417.7" cy="104.9" rx="0.8" ry="0.1"/>
		<ellipse class="st4" cx="414.5" cy="104.9" rx="0.8" ry="0.1"/>
		<ellipse class="st4" cx="411.4" cy="104.9" rx="0.8" ry="0.1"/>
		<ellipse class="st4" cx="408.2" cy="104.9" rx="0.8" ry="0.1"/>
		<ellipse class="st4" cx="406.5" cy="103.5" rx="0.1" ry="0.8"/>
		<ellipse class="st4" cx="406.5" cy="100.3" rx="0.1" ry="0.8"/>
		<ellipse class="st4" cx="406.5" cy="97.2" rx="0.1" ry="0.8"/>
		<ellipse class="st4" cx="406.5" cy="94" rx="0.1" ry="0.8"/>
		<ellipse class="st4" cx="406.5" cy="90.9" rx="0.1" ry="0.8"/>
		<ellipse class="st4" cx="406.5" cy="87.7" rx="0.1" ry="0.8"/>
		<ellipse class="st4" cx="406.5" cy="84.6" rx="0.1" ry="0.8"/>
		<ellipse class="st4" cx="406.5" cy="81.4" rx="0.1" ry="0.8"/>
		<ellipse class="st4" cx="406.5" cy="78.3" rx="0.1" ry="0.8"/>
		<ellipse class="st4" cx="406.5" cy="75.1" rx="0.1" ry="0.8"/>
		<ellipse class="st4" cx="406.5" cy="72" rx="0.1" ry="0.8"/>
		<ellipse class="st4" cx="406.5" cy="68.8" rx="0.1" ry="0.8"/>
		<ellipse class="st4" cx="406.5" cy="65.7" rx="0.1" ry="0.8"/>
		<ellipse class="st4" cx="406.5" cy="62.5" rx="0.1" ry="0.8"/>
		<ellipse class="st4" cx="406.5" cy="59.4" rx="0.1" ry="0.8"/>
		<ellipse class="st4" cx="406.5" cy="56.2" rx="0.1" ry="0.8"/>
		<ellipse class="st4" cx="406.5" cy="53.1" rx="0.1" ry="0.8"/>
		<ellipse class="st4" cx="406.5" cy="49.9" rx="0.1" ry="0.8"/>
		<ellipse class="st4" cx="408.4" cy="48.7" rx="0.8" ry="0.1"/>
		<ellipse class="st4" cx="411.6" cy="48.7" rx="0.8" ry="0.1"/>
		<ellipse class="st4" cx="414.7" cy="48.7" rx="0.8" ry="0.1"/>
		<ellipse class="st4" cx="417.9" cy="48.7" rx="0.8" ry="0.1"/>
		<ellipse class="st4" cx="421" cy="48.7" rx="0.8" ry="0.1"/>
		<ellipse class="st4" cx="424.2" cy="48.7" rx="0.8" ry="0.1"/>
		<ellipse class="st4" cx="427.3" cy="48.7" rx="0.8" ry="0.1"/>
		<ellipse class="st4" cx="430.5" cy="48.7" rx="0.8" ry="0.1"/>
		<ellipse class="st4" cx="433.7" cy="48.7" rx="0.8" ry="0.1"/>
		<ellipse class="st4" cx="436.8" cy="48.7" rx="0.8" ry="0.1"/>
		<ellipse class="st4" cx="440" cy="48.7" rx="0.8" ry="0.1"/>
		<ellipse class="st4" cx="443.1" cy="48.7" rx="0.8" ry="0.1"/>
		<ellipse class="st4" cx="446.3" cy="48.7" rx="0.8" ry="0.1"/>
		<ellipse class="st4" cx="449.4" cy="48.7" rx="0.8" ry="0.1"/>
		<ellipse class="st4" cx="452.6" cy="48.7" rx="0.8" ry="0.1"/>
		<ellipse class="st4" cx="455.7" cy="48.7" rx="0.8" ry="0.1"/>
		<ellipse class="st4" cx="458.9" cy="48.7" rx="0.8" ry="0.1"/>
		<path class="st4" d="M462.6,48.9c0,0-0.1-0.1-0.1-0.2l0.1,0.1c-0.1,0-0.4,0-0.6,0c-0.4,0-0.8-0.1-0.8-0.1c0-0.1,0.4-0.1,0.8-0.1
			h0.6h0.1v0.1C462.7,48.8,462.6,48.9,462.6,48.9z"/>
		<ellipse class="st4" cx="462.6" cy="51.3" rx="0.1" ry="0.8"/>
		<ellipse class="st4" cx="462.6" cy="54.4" rx="0.1" ry="0.8"/>
		<ellipse class="st4" cx="462.6" cy="57.6" rx="0.1" ry="0.8"/>
		<ellipse class="st4" cx="462.6" cy="60.7" rx="0.1" ry="0.8"/>
		<ellipse class="st4" cx="462.6" cy="63.9" rx="0.1" ry="0.8"/>
		<ellipse class="st4" cx="462.6" cy="67" rx="0.1" ry="0.8"/>
		<ellipse class="st4" cx="462.6" cy="70.2" rx="0.1" ry="0.8"/>
		<ellipse class="st4" cx="462.6" cy="73.4" rx="0.1" ry="0.8"/>
		<ellipse class="st4" cx="462.6" cy="76.5" rx="0.1" ry="0.8"/>
		<ellipse class="st4" cx="462.6" cy="79.7" rx="0.1" ry="0.8"/>
		<ellipse class="st4" cx="462.6" cy="82.8" rx="0.1" ry="0.8"/>
		<ellipse class="st4" cx="462.6" cy="86" rx="0.1" ry="0.8"/>
		<ellipse class="st4" cx="462.6" cy="89.1" rx="0.1" ry="0.8"/>
		<ellipse class="st4" cx="462.6" cy="92.3" rx="0.1" ry="0.8"/>
		<ellipse class="st4" cx="462.6" cy="95.4" rx="0.1" ry="0.8"/>
		<ellipse class="st4" cx="462.6" cy="98.6" rx="0.1" ry="0.8"/>
		<ellipse class="st4" cx="462.6" cy="101.7" rx="0.1" ry="0.8"/>
		<path class="st4" d="M460.5,102.2h4.2v4.2h-4.2V102.2z"/>
		<path class="st4" d="M404.4,102.8h4.2v4.2h-4.2V102.8z"/>
		<path class="st4" d="M460.5,46.2h4.2v4.2h-4.2V46.2z"/>
		<path class="st4" d="M404.4,46.6h4.2v4.2h-4.2V46.6z"/>
	</g>
	<path class="st5" d="M681.3,468.8c0,0.1-137.1,0.3-306.2,0.3c-169.2,0-306.3-0.1-306.3-0.3s137.1-0.3,306.3-0.3
		C544.1,468.5,681.3,468.6,681.3,468.8z"/>
	<path class="st5" d="M553.3,351.6c1-0.2,9.2,37.2,8.1,51.7s-8.1,65.1-8.1,65.1h-33.6l-6.1-71.5l1.1,71.5h-45.2
		c0,0-10.5-49.1-8.6-64s11.8-54,11.8-54L553.3,351.6z"/>
	<path class="st6" d="M517,360.2c0,0,0.1,0.5,0.1,1.4v3.8c-0.1,3.2-0.3,7.7-0.7,12.5c-0.4,4.9-1,9.3-1.4,12.5
		c-0.2,1.6-0.4,2.9-0.6,3.8s-0.3,1.4-0.3,1.4s0-0.5,0.1-1.4c0.1-1,0.3-2.3,0.4-3.8c0.4-3.2,0.9-7.6,1.3-12.5s0.7-9.3,0.8-12.5
		c0.1-1.5,0.1-2.8,0.2-3.8C516.9,360.7,517,360.2,517,360.2L517,360.2z"/>
	<path class="st6" d="M523.1,363.2c0,0,0.3-0.1,0.7,0c0.5,0.1,1.2,0.4,1.7,1.1c0.3,0.3,0.5,0.8,0.7,1.3c0.1,0.5,0.1,1.1-0.1,1.7
		c-0.4,1.1-1.6,2.1-3,2.1s-2.6-1.1-2.9-2.2c-0.2-0.6-0.2-1.2-0.1-1.7c0.2-0.5,0.4-0.9,0.7-1.3c0.6-0.6,1.4-0.9,1.9-0.9
		s0.7,0.1,0.7,0.2c0,0-0.3,0-0.7,0.1s-1.1,0.3-1.6,0.9s-0.9,1.6-0.5,2.5c0.3,0.9,1.3,1.9,2.5,1.9s2.2-0.8,2.6-1.8s0.1-1.9-0.4-2.6
		c-0.5-0.6-1.1-1-1.5-1.1C523.3,363.3,523.1,363.3,523.1,363.2L523.1,363.2z"/>
	<path class="st6" d="M558.3,369.5c0,0-0.3,0.2-0.9,0.3c-0.6,0.2-1.4,0.4-2.5,0.5c-2.2,0.2-5.3,0-8.3-1.5c-3-1.4-5.2-3.7-6.4-5.5
		c-0.6-0.9-1-1.7-1.2-2.3s-0.3-0.9-0.3-0.9c0.1,0,0.6,1.2,1.8,2.9s3.4,3.9,6.3,5.2c2.9,1.4,5.9,1.7,8.1,1.6
		C557,369.8,558.3,369.4,558.3,369.5L558.3,369.5z"/>
	<path class="st5" d="M481.4,190.3c-2.5,9.3-6.4,16.7-10.2,20.5c-3.8,3.7-7.8,8.1-7.7,13.4c0.1,2.1,0.7,4.3-0.2,6.2
		c-1.2,2.4-4.3,3-6.7,4.3c-3.5,2-5.4,6.1-5.3,10.1s2.2,7.8,5,10.6c2.9,2.9,7.6,5,11.2,3c2.2-1.2,3.4-3.6,4.6-5.8
		c5.7-11.7,10.9-23.6,15.6-35.7"/>
	<path class="st5" d="M504.9,150.6c6.5-7.2,17.5-9.8,26.5-6.3s15.3,12.9,15.2,22.5c-0.1,6.2-2.5,12.7,0,18.4c1.7,4,5.8,7.1,6.3,11.5
		c0.6,5.1-3.7,9.6-3.5,14.7c0.1,3.3,2.2,6.3,4.6,8.6s5.2,4.2,7.4,6.7c6.1,6.9,6.5,17.9,1.9,25.9c-4.6,8-13.5,13-22.7,14.1
		s-18.6-1.4-26.7-5.9c-5.3-2.9-10.3-6.7-13.4-11.8c-3.2-5.1-4.2-11.8-1.7-17.3"/>
	<path class="st1" d="M524.4,228c0,0,20.7,6.1,22.8,9.4c2,3.3,8.5,41.8,8.5,41.8L543,324.6c0,0,10.5,17,11.1,25.5
		c-23.5,15.2-50.1,10.9-77.9-1.2l-2-44.4l-2.6-70.9l17.1-6L524.4,228z"/>
	<path class="st7" d="M547.5,333.8c0,0-0.3,0-0.8,0s-1.3-0.1-2.2-0.1c-1.9-0.2-4.7-0.4-8-0.6c-6.8-0.6-16.1-1.4-26.4-2.3
		c-10.3-1-19.6-1.8-26.4-2.5c-3.3-0.3-6-0.6-8-0.8c-0.9-0.1-1.6-0.2-2.2-0.2c-0.5-0.1-0.8-0.1-0.8-0.1h0.8c0.5,0,1.3,0.1,2.2,0.1
		c1.9,0.2,4.7,0.4,8,0.6c6.8,0.6,16.1,1.4,26.4,2.3c10.3,1,19.6,1.8,26.4,2.5c3.3,0.3,6,0.6,8,0.8c0.9,0.1,1.6,0.2,2.2,0.2
		C547.2,333.7,547.5,333.8,547.5,333.8z"/>
	<ellipse class="st7" cx="502.8" cy="283.8" rx="20.4" ry="0.3"/>
	<path class="st7" d="M550.5,253.3c0,0-0.6,0.1-1.6,0.2c-1.1,0.1-2.6,0.1-4.4,0.3c-3.7,0.2-8.9,0.5-14.5,0.9
		c-5.7,0.4-10.8,0.9-14.5,1.3c-1.8,0.2-3.3,0.3-4.4,0.4c-1,0.1-1.6,0.1-1.6,0.1s0.6-0.1,1.6-0.3c1-0.2,2.5-0.4,4.4-0.6
		c3.7-0.5,8.8-1,14.5-1.4s10.8-0.7,14.6-0.8c1.9-0.1,3.4-0.1,4.4-0.1H550.5z"/>
	<path class="st1" d="M547.2,237.4l20.8,56.5l14-27.8l18.3,3.7l-10.5,43.9c-1.1,7.8-7,14-14.7,15.6c-6.4,1.3-13.1-0.8-17.5-5.7
		l-6.5-7.2L547.2,237.4z"/>
	<path class="st7" d="M567.6,329.6c0,0-0.1-0.5-0.2-1.4s-0.1-2.2-0.2-3.9c-0.1-3.3-0.2-7.8,0-12.8c0.1-5,0.5-9.5,0.8-12.8
		c0.2-1.6,0.3-2.9,0.4-3.9c0.1-0.9,0.2-1.4,0.2-1.4v1.4c-0.1,1-0.1,2.3-0.2,3.9c-0.2,3.3-0.5,7.8-0.6,12.8s-0.2,9.5-0.1,12.8v3.9
		C567.6,329.1,567.6,329.6,567.6,329.6L567.6,329.6z"/>
	
		<ellipse transform="matrix(0.3551 -0.9348 0.9348 0.3551 104.1384 732.6899)" class="st7" cx="583.1" cy="290.9" rx="0.3" ry="12.1"/>
	<path class="st8" d="M604.6,263.4l-8.8,6.4l-9.7-2.4l2.4-2.5L604.6,263.4z"/>
	<path class="st9" d="M636.3,184.8l-70.9,30.7l0.3,20.5l-8,8.4l27.1,24.2l7.9-8.8l21.1-3L636.3,184.8z"/>
	<path class="st5" d="M636.3,184.8c-0.6,2-9.2,29.7-22.3,72.1v0.1h-0.1c-6.7,0.9-13.8,1.9-21.1,3l0.2-0.1c-2.5,2.8-5.2,5.8-7.9,8.9
		l-0.2,0.2l-0.2-0.2c-4.4-4-9.1-8.1-13.8-12.4c-4.5-4-8.9-8-13.3-11.9l-0.2-0.2l0.2-0.2c2.7-2.8,5.4-5.6,8-8.4l-0.1,0.2
		c-0.1-7.1-0.2-14-0.3-20.5v-0.2l0.1-0.1C606.9,197.4,634.3,185.6,636.3,184.8c-2,0.9-29.3,12.8-70.8,30.9l0.1-0.2
		c0.1,6.6,0.2,13.4,0.4,20.5v0.1l-0.1,0.1c-2.6,2.8-5.3,5.6-8,8.4v-0.4c4.3,3.9,8.8,7.8,13.3,11.8c4.7,4.2,9.4,8.4,13.8,12.4h-0.4
		c2.7-3,5.4-6,7.9-8.8l0.1-0.1h0.1c7.3-1,14.4-2,21.1-2.9l-0.2,0.2C626.9,214.4,635.6,186.8,636.3,184.8L636.3,184.8z"/>
	
		<ellipse transform="matrix(0.6664 -0.7456 0.7456 0.6664 30.1135 522.7341)" class="st5" cx="599.2" cy="227.7" rx="11.1" ry="11.1"/>
	
		<ellipse transform="matrix(0.6536 -0.7568 0.7568 0.6536 57.9387 538.954)" class="st5" cx="617.8" cy="206.2" rx="28.3" ry="0.3"/>
	<path class="st7" d="M417.9,429.7c-7.3-6.5-7.9-17.6-1.5-24.9L549.7,254l26.4,23.6L443,428.2C436.5,435.6,425.3,436.2,417.9,429.7
		L417.9,429.7z"/>
	<path class="st7" d="M547.6,252.1l9.7-10.8l31.1,27.8l-9.7,10.8L547.6,252.1z"/>
	<path class="st7" d="M635.1,179.7l5.9,4.9l-4.9,5.9l-5.9-4.9L635.1,179.7z"/>
	<path class="st7" d="M684.5,224.8c-0.3,0.3-22.9-18.2-50.5-41.4s-49.8-42.2-49.6-42.5c0.3-0.3,22.9,18.2,50.5,41.4
		C662.6,205.4,684.8,224.5,684.5,224.8L684.5,224.8z"/>
	
		<ellipse transform="matrix(0.6423 -0.7664 0.7664 0.6423 72.7249 604.3683)" class="st7" cx="683.9" cy="224.3" rx="2.3" ry="2.3"/>
	<path class="st10" d="M549.7,253.9l26.5,23.7l-3.6,4l-24.1-26.2L549.7,253.9z"/>
	<path class="st11" d="M565.8,248.9v18.9l3.8,3.9v-19.4L565.8,248.9z"/>
	<path class="st8" d="M597.5,240l9.7,3.9l2.1,7.8l-4.7,11.6l-17.1,2.5l5-5.1l-0.6-4.5c0,0-4.8-1.5-4.9-2.2s0.6-3.2,1.3-3.3
		s5.7,1.7,5.7,1.7s-5.9-4.7-5.8-5.5c0.2-0.8,0.8-2.7,2-2.9s10.8,4.3,10.8,4.3l1.6,3.5l1.4-5.7C603.9,246.3,595.4,243.9,597.5,240
		L597.5,240z"/>
	<path class="st12" d="M596.3,258.4c0.1,0,0.2-0.3,0.3-1c0.1-0.6,0-1.5-0.3-2.4s-0.9-1.6-1.4-2s-0.8-0.6-0.9-0.5s1.2,1,1.8,2.7
		C596.5,256.8,596.1,258.3,596.3,258.4L596.3,258.4z"/>
	<path class="st12" d="M600.9,256.7c0.1,0-0.3-0.9-0.4-2.5c-0.1-0.8-0.1-1.8-0.5-2.8c-0.2-0.5-0.5-1.1-0.9-1.5c-0.4-0.5-1-0.8-1.6-1
		c-2.3-0.8-4.4-1.5-5.9-2s-2.5-0.8-2.5-0.7s0.9,0.5,2.4,1c1.5,0.6,3.6,1.3,5.9,2.1c0.6,0.2,1.1,0.5,1.4,0.9c0.4,0.4,0.6,0.8,0.8,1.3
		c0.4,1,0.4,1.9,0.6,2.7C600.3,255.8,600.8,256.7,600.9,256.7z"/>
	
		<ellipse transform="matrix(0.9866 -0.1629 0.1629 0.9866 -33.178 101.5776)" class="st12" cx="602.8" cy="253.1" rx="0.3" ry="1.9"/>
	<path class="st8" d="M530.3,324.2c0,0,15.6-5.3,15.9-5.5c0.4-0.2,11-5.1,10.1-8c0,0,3-2.4,2.1-3.7l-4.3,1.8c0,0,6-3.9,5-7.4
		c0,0,0.6-1.2,0-1.9s-3.8,1.5-6.1,2.9l-4.5,1.8c-2,0.8-4.1,0.9-6.1,0.3c-1-0.3-1.6-1.3-1.3-2.3c0.5-2.2,1.1-5.6-0.3-10.5
		c0,0-1.1,0.4-1.9,2.8c-1,3.1-4.1,5.4-5.2,7.5c-0.6,1.2-1.7,3-2.4,4.4c-0.6,1.1-1.7,2-2.9,2.3l1.1,8.1L530.3,324.2z"/>
	<path class="st12" d="M547.2,309.5c0,0,0.2,0,0.5-0.2c0.3-0.1,0.8-0.3,1.4-0.6c1.2-0.5,2.8-1.3,4.4-2.4c1.7-1.1,3.1-2.2,4-3.1
		c0.5-0.4,0.9-0.8,1.1-1.1c0.3-0.3,0.4-0.4,0.4-0.4s-0.2,0.1-0.4,0.4c-0.3,0.2-0.7,0.6-1.2,1c-1,0.8-2.4,1.9-4,3s-3.2,1.9-4.4,2.5
		c-0.6,0.3-1.1,0.5-1.4,0.7C547.4,309.4,547.2,309.5,547.2,309.5L547.2,309.5z"/>
	<path class="st12" d="M547.5,312.6c0,0,0.5-0.1,1.1-0.4c0.7-0.3,1.6-0.7,2.6-1.3s1.8-1.2,2.4-1.6c0.6-0.5,0.9-0.8,0.9-0.8
		c0-0.1-1.5,1-3.4,2.2c-1,0.6-1.9,1.1-2.5,1.4C547.9,312.4,547.5,312.6,547.5,312.6L547.5,312.6z"/>
	<path class="st12" d="M547.3,316.4c0,0,0.6-0.2,1.5-0.6s2.1-1,3.3-1.8s2.3-1.6,3.1-2.2c0.7-0.6,1.2-1,1.2-1.1c0,0-0.5,0.3-1.3,0.9
		s-1.8,1.4-3.1,2.1c-1.2,0.8-2.4,1.4-3.3,1.9C547.9,316.1,547.3,316.3,547.3,316.4L547.3,316.4z"/>
	<path class="st1" d="M530.3,324.2l-57.7,17.4c-13.3-6-21.4-19.9-20.1-34.4c1.8-20.4,4.2-47.2,4.9-54c1.2-11.2,14.1-19.5,14.1-19.5
		c17.7,1.2,13.8,36.2,13.8,36.2l-7.1,40.3l50.2-2L530.3,324.2z"/>
	<path class="st5" d="M478.2,310.1c0,0,0-0.6,0.1-1.6s0.2-2.5,0.4-4.4c0.5-3.7,1.2-8.7,2.3-14.3c1-5.6,2.1-10.6,2.9-14.2
		c0.4-1.8,0.7-3.3,1-4.3s0.4-1.6,0.4-1.5c0,0-0.1,0.6-0.2,1.6c-0.2,1.1-0.5,2.6-0.8,4.3c-0.7,3.6-1.7,8.6-2.7,14.2
		s-1.9,10.6-2.4,14.3c-0.2,1.8-0.5,3.2-0.6,4.3C478.3,309.5,478.2,310.1,478.2,310.1L478.2,310.1z"/>
	<path class="st5" d="M528.3,308.1c0,0-0.2,0-0.5,0.1c-0.4,0-0.9,0.1-1.6,0.1c-1.4,0.1-3.3,0.2-5.8,0.4c-4.9,0.3-11.6,0.5-19.1,0.7
		c-7.4,0.2-14.1,0.4-19.1,0.5c-2.4,0.1-4.3,0.1-5.8,0.2c-0.6,0-1.2,0-1.6,0s-0.5,0-0.6,0c0,0,0.2,0,0.5-0.1c0.4,0,0.9-0.1,1.6-0.1
		c1.4-0.1,3.3-0.2,5.8-0.3c4.9-0.3,11.6-0.5,19.1-0.7c7.4-0.2,14.1-0.4,19.1-0.5c2.4-0.1,4.3-0.1,5.8-0.2h1.6
		C528.2,308.1,528.3,308.1,528.3,308.1L528.3,308.1z"/>
	<path class="st7" d="M480.3,294.8c0,0-0.4,0-1.1,0c-0.8-0.1-1.8-0.1-2.9-0.2c-2.4-0.2-5.8-0.4-9.5-0.6s-7.1-0.2-9.5-0.2
		c-1.1,0-2.1,0-2.9,0c-0.7,0-1.1,0-1.1-0.1c0,0,0.4-0.1,1.1-0.1c0.7-0.1,1.7-0.1,2.9-0.1c2.4-0.1,5.8-0.1,9.5,0.1s7.1,0.4,9.5,0.7
		c1.2,0.1,2.2,0.3,2.9,0.4C480,294.7,480.4,294.8,480.3,294.8L480.3,294.8z"/>
	
		<ellipse transform="matrix(4.187209e-02 -0.9991 0.9991 4.187209e-02 184.745 725.4406)" class="st7" cx="470.6" cy="266.4" rx="0.3" ry="14.6"/>
	<path class="st7" d="M457.9,328.3c0,0,0.2-0.3,0.6-0.9s1-1.4,1.7-2.4c1.5-2,3.8-4.5,6.6-7.1s5.6-4.6,7.7-5.9c1-0.7,1.9-1.2,2.5-1.5
		s1-0.5,1-0.5c0,0.1-1.3,0.9-3.3,2.3s-4.7,3.5-7.5,6s-5.1,5.1-6.7,6.9C458.9,327.1,458,328.3,457.9,328.3L457.9,328.3z"/>
	
		<ellipse transform="matrix(0.9878 -0.1558 0.1558 0.9878 -44.0315 81.4225)" class="st7" cx="497.4" cy="321.6" rx="0.3" ry="12.3"/>
	<path class="st10" d="M472.3,341.6l64.6-19.6c-4.8,6.4-14.3,12.3-21.4,16s-14.7,6.3-22.3,8.8c-4.1,1.4-8.3,2.8-12.7,2.8
		s-8.6-1.3-10.9-5L472.3,341.6z"/>
	<path class="st5" d="M483.4,175.4c1.2-2.8,0.1-6.4-2.4-8.1s-6.2-1.5-8.6,0.4s-3.3,5.4-2.5,8.3c1.1,3.5,4.7,6,8.4,5.8
		c3.7-0.3,6.9-3.3,7.5-6.9"/>
	<path class="st8" d="M493.1,158.5v4.7l-1,70.7c-0.1,8.2,6.8,14.8,15.6,14.9c8.9,0.1,16.3-6.6,16.5-14.9c0.3-8.7,0.7-17.9,0.7-17.9
		s11.3-1.6,14-16.1c1.4-7.2,1.3-19.2,1-28.9c-0.3-8.8-7.9-15.6-16.6-14.9L493.1,158.5z"/>
	<path class="st5" d="M534.9,179.6c0,1-0.8,1.8-1.9,1.8c-1,0-1.9-0.8-1.9-1.7c0-1,0.8-1.8,1.9-1.8
		C534.1,177.8,534.9,178.6,534.9,179.6z"/>
	<path class="st5" d="M537.1,177.2c-0.2,0.2-1.6-0.9-3.7-0.9c-2-0.1-3.5,0.9-3.7,0.7c-0.1-0.1,0.1-0.5,0.8-1c0.6-0.5,1.7-0.9,3-0.8
		c1.3,0,2.3,0.5,2.9,1C537,176.6,537.2,177.1,537.1,177.2z"/>
	<path class="st5" d="M515.2,179.4c0,1-0.8,1.8-1.9,1.8c-1,0-1.9-0.8-1.9-1.7c0-1,0.8-1.8,1.9-1.8
		C514.3,177.6,515.2,178.4,515.2,179.4z"/>
	<path class="st5" d="M517.3,177c-0.2,0.2-1.6-0.9-3.7-0.9c-2-0.1-3.5,0.9-3.7,0.7c-0.1-0.1,0.1-0.5,0.8-1c0.6-0.5,1.7-0.9,3-0.8
		c1.3,0,2.3,0.5,2.9,1S517.4,176.9,517.3,177z"/>
	<path class="st5" d="M524.2,192.2c0-0.1,1.3-0.3,3.3-0.5c0.5,0,1-0.1,1.1-0.5s-0.1-0.9-0.3-1.5c-0.5-1.3-0.9-2.6-1.4-4
		c-2-5.6-3.4-10.3-3.1-10.4c0.2-0.1,2,4.4,4,10.1c0.5,1.4,0.9,2.7,1.4,4c0.2,0.6,0.5,1.3,0.2,2c-0.1,0.4-0.5,0.7-0.9,0.7
		c-0.3,0.1-0.6,0.1-0.9,0.1C525.5,192.3,524.2,192.3,524.2,192.2L524.2,192.2z"/>
	<path class="st12" d="M524.9,216.1c0,0-9.9,0.4-19.4-5.8c0,0,4.5,10.2,19.2,9.2L524.9,216.1z"/>
	<path class="st12" d="M523.2,197c-0.7-1-2-1.5-3.2-1.4c-0.9,0.1-1.8,0.5-2.3,1.2c-0.6,0.7-0.7,1.7-0.2,2.4c0.5,0.8,1.7,1,2.6,0.7
		c1-0.2,1.8-0.9,2.6-1.5c0.2-0.2,0.5-0.3,0.6-0.6C523.4,197.6,523.4,197.3,523.2,197"/>
	<path class="st5" d="M518.2,193.4c0.3,0,0.3,2.2,2.1,3.8s4.2,1.4,4.2,1.7c0,0.1-0.5,0.4-1.5,0.4s-2.4-0.3-3.5-1.3s-1.6-2.3-1.6-3.2
		C517.8,193.9,518.1,193.4,518.2,193.4z"/>
	<path class="st5" d="M518,169.1c-0.2,0.5-2.2,0.2-4.6,0.4s-4.3,0.8-4.6,0.3c-0.1-0.2,0.2-0.7,1-1.3c0.8-0.5,2-1,3.4-1.1
		c1.4-0.1,2.7,0.1,3.6,0.5C517.7,168.4,518.1,168.9,518,169.1L518,169.1z"/>
	<path class="st5" d="M536.5,171.3c-0.4,0.4-1.7-0.1-3.4-0.1c-1.7-0.1-3.1,0.2-3.4-0.3c-0.1-0.2,0.1-0.7,0.7-1.1s1.7-0.7,2.8-0.7
		c1.1,0.1,2.1,0.5,2.7,1S536.7,171.1,536.5,171.3L536.5,171.3z"/>
	<path class="st5" d="M511.5,153.9c3.9,5.2-0.2,12.6-4.7,17.2c-4.5,4.7-10,10.1-8.8,16.5c1.4,7.4,11.6,12.1,10,19.5
		c-0.5,2.7-2.7,5-2.7,7.7c0,5,6.4,7.4,8.3,12c2.5,6.3-4.4,12.6-4.5,19.4c-0.1,3.9,2.1,7.5,2.2,11.3c0.2,7.9-9.1,13.7-16.8,11.8
		s-12.9-9.4-14.6-17.2c-1.7-7.7,0.9-18.6,2.1-26.4l-13.3,3.1c-2.5-2.4,0.9-4.9,1.5-8.2c1.4-8.5,7-15.6,9.6-23.8
		c2.3-7.1,2.3-14.8,3.3-22.2s3.3-15.2,9-20.1s15.5-5.5,20.1,0.4"/>
	<path class="st6" d="M481.7,177.9c0-0.1,2.2,0.6,5.9,0.2c3.6-0.4,8.5-2.2,12.7-5.8c4.3-3.6,7.2-7.7,9.3-10.7c1-1.5,1.8-2.7,2.4-3.6
		c0.6-0.8,0.9-1.3,0.9-1.3s-0.2,0.5-0.8,1.4c-0.5,0.9-1.3,2.1-2.3,3.7c-2,3-4.9,7.3-9.3,10.9c-4.3,3.6-9.3,5.4-13,5.7
		c-1.8,0.2-3.3,0-4.4-0.1c-0.5-0.1-0.9-0.2-1.2-0.3C481.8,178,481.7,177.9,481.7,177.9L481.7,177.9z"/>
	<path class="st6" d="M499,179.9c0,0-0.7,0.7-2.1,1.5s-3.5,1.6-6,2s-4.7,0.2-6.3-0.2c-1.6-0.3-2.5-0.8-2.5-0.8c0-0.1,1,0.2,2.5,0.5
		c1.6,0.2,3.8,0.4,6.1,0c2.4-0.4,4.5-1.1,5.9-1.8C498.1,180.4,498.9,179.8,499,179.9z"/>
	<path class="st6" d="M546.5,170c0,0.1-2.2,0.2-4.6-1.2c-2.3-1.4-3.4-3.4-3.3-3.4c0.1-0.1,1.3,1.7,3.5,3
		C544.4,169.7,546.6,169.9,546.5,170L546.5,170z"/>
	<path class="st6" d="M545.6,175c0,0.1-1.2,0.5-2.8,0.1c-1.5-0.4-2.5-1.3-2.4-1.4s1.1,0.5,2.6,0.9
		C544.4,174.9,545.6,174.8,545.6,175L545.6,175z"/>
	<path class="st13" d="M482.8,181.1c-0.1,0-0.7-2.1-0.4-4.8c0.2-2.7,1.1-4.8,1.3-4.7c0.1,0.1-0.5,2.1-0.7,4.7
		C482.6,178.9,482.9,181.1,482.8,181.1L482.8,181.1z"/>
	<path class="st5" d="M344.5,349.9c-1-0.2-9.1,37.7-8,52.4s8,66,8,66h82.9c0,0,10.4-49.9,8.5-65c-1.8-15.1-11.7-54.8-11.7-54.8
		L344.5,349.9z"/>
	<path class="st8" d="M333.9,278.2l-11.8-53.4l-0.7-8.8c0,0-2.7-19.8-2.7-21.7c0-2.2-1.1-2.8-1.9-2.7c-1.3,0.1-2.2,1.7-2.2,3.6
		c0,0.7,0.2,11.1,0.2,11.1s-0.5-0.9-2.1-2.8s-5.2-3-9-2.9c-3.7,0.2-4.8,0.5-4.8,2c0,0.6,0.3,1,0.7,1.4c0.7,0.6,1.6,0.8,2.5,0.8
		c6-0.2,7.6,3,7.6,3l0.1,1.2c0,0-3.7-2.6-6.5-1.4c-0.5,0.2-0.8,0.4-1.1,0.7c-1.6,0-3.1,0.9-4,2.3c-0.8,1.4-0.9,3.3,0,4.7
		c0.4,0.7,1.1,1.3,1.9,1.2c0.4-0.1,0.7-0.4,1.1-0.7c0.2-0.1,0.3-0.3,0.5-0.4l0.7,3.2c0,0,2,7.1,2.5,10.3l3.2,52.9
		c0.4,7.3,6.8,12.9,14.1,12.3C330.1,293.6,335.7,286,333.9,278.2L333.9,278.2z"/>
	<path class="st8" d="M320.3,224.2c-1.1,0.3-2.2-0.5-2.8-1.4c-0.6-1-0.9-2.1-1.4-3.1c-1.6-3-5.4-4.4-6.8-7.5c-0.2-0.4-0.3-1,0.1-1.3
		c0.3-0.3,0.8-0.1,1.2,0.1c3.3,1.8,6.6,3.6,9.9,5.4"/>
	<path class="st12" d="M320.5,216.3c0,0-0.3-0.3-1-0.7s-1.7-1-2.9-1.7c-1.3-0.7-2.7-1.5-4.3-2.4c-0.4-0.2-0.8-0.5-1.2-0.7
		s-0.9-0.6-1.6-0.4c-0.4,0.1-0.6,0.5-0.6,0.9c0,0.3,0.1,0.6,0.2,0.9c0.2,0.5,0.5,1,0.9,1.4c1.4,1.8,3.2,2.9,4.4,4.1
		c0.7,0.6,1.2,1.3,1.6,2s0.6,1.4,0.9,2.1c0.5,1.3,1.5,2.2,2.3,2.4s1.3,0,1.2-0.1c0-0.1-0.5,0.1-1.2-0.2s-1.5-1.1-2-2.4
		c-0.3-0.6-0.5-1.4-0.9-2.2s-1-1.5-1.6-2.2c-1.3-1.4-3.1-2.5-4.4-4.1c-0.3-0.4-0.6-0.8-0.8-1.3c-0.2-0.4-0.2-0.9,0.1-0.9
		c0.3-0.1,0.7,0.2,1.1,0.4s0.8,0.4,1.3,0.7c1.6,0.8,3.1,1.6,4.4,2.3c1.2,0.6,2.3,1.2,3,1.5C320.1,216.2,320.5,216.4,320.5,216.3
		L320.5,216.3z"/>
	<path class="st12" d="M310,209.1c-0.1,0,0-0.9-0.7-2c-0.4-0.5-1-1-1.8-1.3s-1.8-0.4-2.8-0.4s-2.1,0-3-0.2s-1.7-0.6-2.2-1.1
		s-0.7-1.2-0.6-1.5c0.1-0.4,0.2-0.6,0.2-0.6v0.6c0,0.4,0.1,0.9,0.6,1.3s1.2,0.7,2.1,0.9s1.8,0.2,2.9,0.2c1,0,2.1,0.1,3,0.4
		s1.6,0.9,2,1.5s0.5,1.2,0.5,1.6C310.1,208.9,310,209.1,310,209.1z"/>
	<path class="st12" d="M314.5,194.5c0.1,0,0.1,0.8,0.1,2.1v5c0,1.9,0.1,3.6,0.1,5v2.1c-0.1,0-0.2-0.8-0.3-2.1s-0.2-3.1-0.2-5
		c0-2,0-3.7,0.1-5S314.5,194.5,314.5,194.5L314.5,194.5z"/>
	<path class="st12" d="M307.7,211.5c0,0-0.2-0.1-0.6-0.2s-1-0.4-1.6-0.1c-0.3,0.1-0.5,0.5-0.5,0.9s0,0.9,0.1,1.4s0.1,1.1-0.2,1.6
		s-1,0.8-1.6,0.8s-1.2-0.3-1.6-0.7s-0.7-0.9-0.8-1.4c-0.2-1-0.1-1.9,0-2.7s0.3-1.4,0.5-1.7c0.2-0.4,0.4-0.5,0.4-0.5
		s-0.1,0.2-0.3,0.6s-0.3,1-0.4,1.7s-0.1,1.6,0.1,2.6c0.2,0.9,1,1.8,2,1.8c0.5,0,1-0.3,1.3-0.7s0.3-0.9,0.2-1.4s-0.1-1-0.1-1.4
		c0-0.5,0.3-0.9,0.7-1.1c0.8-0.3,1.5,0,1.8,0.2C307.5,211.4,307.7,211.5,307.7,211.5L307.7,211.5z"/>
	<path class="st12" d="M301.7,214.9c0,0,0.1,0.2-0.1,0.6c-0.1,0.4-0.5,0.9-1.2,1.1s-1.6,0-2.3-0.7s-1-1.7-1.1-2.7
		c0-1.1,0.3-2.1,0.9-2.8c0.5-0.8,1.2-1.2,1.9-1.5c0.6-0.3,1.2-0.4,1.6-0.4s0.6,0,0.6,0.1s-0.9,0-2,0.6c-0.6,0.3-1.2,0.8-1.7,1.5
		s-0.8,1.6-0.8,2.6s0.3,1.9,0.9,2.5s1.4,0.8,2,0.7s1-0.6,1.1-0.9C301.7,215.2,301.7,214.9,301.7,214.9L301.7,214.9z"/>
	<path class="st12" d="M309,221.9c0,0,0.4-0.1,1,0s1.5,0.5,2.2,1.3l-0.4,0.1c0-0.4,0.1-0.9,0.2-1.4c0.6-2.7,2-4.5,2.1-4.4
		s-1.2,1.9-1.7,4.5c-0.1,0.5-0.2,0.9-0.2,1.4l-0.1,0.5l-0.3-0.4c-0.6-0.7-1.4-1.1-2-1.3C309.4,221.9,309,221.9,309,221.9L309,221.9z
		"/>
	<path class="st12" d="M308.6,204c0.1,0-0.3,0.8-1.2,1.2s-1.7,0.2-1.7,0.1s0.7-0.1,1.5-0.5C308,204.5,308.5,204,308.6,204L308.6,204
		z"/>
	<path class="st14" d="M429,232.9c4.3,0,14.8,12.3,16.6,31.1c0.8,8.6,5.1,43.7,7.2,60.6c0.8,6.1-1.9,12.1-6.9,15.7
		c-11.2,8.2-33.7,21-63.6,20.6l-18.1-15.2L423,321v-1.3l2.6-2.8l-7.3-45C418.3,271.8,411.4,232.9,429,232.9L429,232.9z"/>
	<path class="st5" d="M413.7,153.8c0.2,6.1,8.3,9.8,8.2,15.9c0,2.6-1.7,5-2,7.6c-0.4,3.5,1.5,6.8,2.2,10.2
		c1.5,7.1-2.6,14.6-8.7,18.4c-6.1,3.9-13.8,4.6-21,3.6"/>
	<path class="st5" d="M364.7,152.3c0.2,3.3-1.9,6.2-4.1,8.6c-2.2,2.5-4.6,5-5.1,8.2c-0.8,5.7,4.8,11.1,3.6,16.8
		c-0.6,3-3.1,5.5-3.6,8.6c-0.4,3,1.2,5.9,3.1,8.2c2,2.3,4.3,1.9,6,4.4c1.8,2.6,4.8,5.2,7.6,6.7c6.3,3.5,13.9-1.5,16.9-2.4"/>
	<path class="st5" d="M414.9,157.3c0.1-3-2.7-5.3-5.4-6.3c-2.8-1.1-5.8-1.5-8.3-3.1c-2.2-1.5-3.6-3.8-5.5-5.6
		c-4.5-4.6-11.6-6.5-17.8-4.8s-11.3,6.9-12.9,13.2c-1.1,4.2-0.3,9.2,3,12c3.9,3.3,9.6,2.5,14.5,1.5s10.5-2,14.7,0.9
		c2.5,1.8,3.9,4.6,5.4,7.2s3.4,5.3,6.3,6.3s6.8-0.7,6.9-3.8"/>
	<path class="st8" d="M375.5,226.3c0-6.8-0.1-13.4-0.1-13.4s-10.8-1.8-13-15.9c-1.1-7-0.7-18.5-0.1-27.9c0.6-8.5,6.2-18.8,14.6-17.9
		l26.3,6.7c2.6,0.3,4.5,2.5,4.4,5l-2.4,63.8c-0.3,8.1-7,14.5-15.1,14.3C382,240.9,375.6,234.4,375.5,226.3L375.5,226.3z"/>
	<path class="st5" d="M366.8,177.2c0,1,0.7,1.8,1.7,1.8c1,0.1,1.8-0.7,1.9-1.6c0-1-0.7-1.8-1.7-1.8
		C367.7,175.5,366.8,176.2,366.8,177.2z"/>
	<path class="st5" d="M364.8,175.1c0.2,0.2,1.6-0.8,3.5-0.8s3.4,1,3.6,0.7c0.1-0.1-0.1-0.5-0.7-1s-1.7-0.9-2.9-0.9s-2.2,0.4-2.8,0.9
		C364.9,174.6,364.7,175,364.8,175.1z"/>
	<path class="st5" d="M385.7,177.6c0,1,0.7,1.8,1.7,1.8c1,0.1,1.8-0.7,1.9-1.6c0-1-0.7-1.8-1.7-1.8
		C386.5,176,385.7,176.7,385.7,177.6z"/>
	<path class="st5" d="M383.9,175.5c0.2,0.2,1.6-0.8,3.5-0.8s3.4,1,3.6,0.7c0.1-0.1-0.1-0.5-0.7-1s-1.7-0.9-2.9-0.9s-2.2,0.4-2.8,0.9
		C384,175,383.8,175.4,383.9,175.5z"/>
	<path class="st5" d="M376.8,189.9c0-0.1-1.2-0.3-3.2-0.6c-0.5-0.1-1-0.2-1-0.5c-0.1-0.4,0.1-0.9,0.3-1.5c0.5-1.2,1-2.5,1.5-3.8
		c2.1-5.4,3.5-9.8,3.3-9.9s-2.1,4.2-4.1,9.6c-0.5,1.3-1,2.6-1.4,3.8c-0.2,0.6-0.5,1.2-0.3,1.9c0.1,0.4,0.5,0.6,0.8,0.7
		s0.6,0.1,0.8,0.1C375.6,190,376.8,190,376.8,189.9L376.8,189.9z"/>
	<path class="st12" d="M375.4,212.9c0,0,9.5,0.6,18.9-5c-0.2,0-5.2,9.8-18.7,8.3L375.4,212.9z"/>
	<path class="st13" d="M377.6,194.6c0.7-0.9,1.9-1.4,3.1-1.3c0.8,0.1,1.7,0.5,2.2,1.2s0.6,1.7,0.1,2.3c-0.5,0.7-1.6,0.9-2.6,0.6
		c-0.9-0.3-1.7-0.9-2.5-1.5c-0.2-0.2-0.4-0.3-0.6-0.6C377.4,195.1,377.4,194.8,377.6,194.6"/>
	<path class="st5" d="M382.5,191.3c-0.3,0-0.3,2.1-2.1,3.6s-4.1,1.3-4.1,1.6c0,0.1,0.5,0.4,1.5,0.4c0.9,0,2.3-0.3,3.4-1.2
		s1.6-2.1,1.7-3C382.9,191.8,382.7,191.2,382.5,191.3L382.5,191.3z"/>
	<path class="st5" d="M383,172.1c0.2,0.5,2.1,0.3,4.4,0.6c2.3,0.2,4.1,0.9,4.4,0.4c0.1-0.2-0.2-0.7-0.9-1.2s-1.9-1-3.3-1.2
		s-2.6,0.1-3.5,0.4C383.4,171.4,383,171.8,383,172.1z"/>
	<path class="st5" d="M365.5,169.5c0.3,0.4,1.7,0,3.3,0c1.6-0.1,3,0.3,3.3-0.2c0.1-0.2-0.1-0.7-0.7-1.1s-1.6-0.8-2.7-0.7
		c-1.1,0-2.1,0.4-2.6,0.9C365.6,168.8,365.4,169.2,365.5,169.5L365.5,169.5z"/>
	<path class="st5" d="M409.2,205.1c-3.9,0.8-4.2-1.2-7.1-3.9s-4.4-6.8-3.9-10.7c0.4-3.5,2.3-7,1.1-10.3c-1.6-4.3-7.7-5.7-9.3-10
		c-0.9-2.5-0.1-5.5-1.2-7.9c-1-2.3-3.4-3.6-5.8-4.5s-4.9-1.4-6.9-3c-2-1.5-3.2-4.5-1.9-6.6c10.5,1.3,20.9,3.8,30.8,7.5
		c2.3,0.9,4.7,1.9,6.1,3.9c1.4,2.2,1.4,5,1.2,7.6c-0.6,12.7-1.2,25.3-1.8,38"/>
	<path class="st5" d="M418,176.3c0.4-4.6,4.2-8.8,8.8-9.6s9.6,1.7,11.7,5.9c2,4,1.3,8.8-0.5,12.9c-2.2,4.8-6.6,9.2-11.9,9
		c-5-0.2-8.9-4.6-10.4-9.3c-1.4-4.8-0.9-9.8-0.3-14.8"/>
	<path class="st6" d="M420.8,195.6c0,0,0.3-0.2,0.7-0.8s0.9-1.6,1.1-2.8c0.2-1.3,0.2-2.8-0.1-4.5s-0.8-3.4-1.3-5.2
		c-0.4-1.8-0.6-3.6-0.3-5.2s1-2.9,1.4-4.1s0.3-2.3,0.1-3s-0.5-1-0.5-1s0.2,0.4,0.3,1c0.1,0.7,0.1,1.7-0.3,2.8
		c-0.4,1.2-1.1,2.5-1.5,4.2s-0.2,3.6,0.3,5.5c0.4,1.9,1,3.6,1.3,5.2s0.4,3.1,0.3,4.3C421.9,194.4,420.7,195.5,420.8,195.6z"/>
	<path class="st6" d="M421,178.7c0,0,0.6,1,2.2,2.1c1.5,1.1,4,2.2,6.9,2.3c2.9,0,5.5-1,7-2c1.6-1,2.3-2,2.2-2
		c-0.1-0.1-0.9,0.8-2.5,1.7s-4,1.8-6.8,1.8c-2.8-0.1-5.2-1-6.7-2C421.9,179.5,421.1,178.6,421,178.7L421,178.7z"/>
	<path class="st6" d="M421.7,180.9c-0.1,0,0.3,0.9,1.2,2.2s2.4,2.9,4.5,4.1s4.2,1.8,5.7,2c1.6,0.2,2.5,0.1,2.5,0s-1-0.1-2.4-0.4
		c-1.5-0.3-3.5-1-5.5-2.1c-2-1.2-3.5-2.7-4.5-3.8C422.3,181.7,421.8,180.8,421.7,180.9L421.7,180.9z"/>
	<path class="st6" d="M418.2,200.3c0,0,0.1-0.1,0.2-0.2s0.2-0.3,0.4-0.6c0.3-0.5,0.7-1.3,0.9-2.5c0.2-1.1,0.2-2.6-0.2-4.2
		s-1.5-3.3-3.3-4.4c-1.7-1.2-3.8-2-5.2-3.9c-0.7-0.9-1-2.1-0.8-3.3s0.7-2.4,1.2-3.7c1.1-2.5,1.1-5.7-0.2-8.4
		c-0.6-1.4-1.6-2.6-2.9-3.6s-2.8-1.4-4.3-1.8c-1.5-0.3-3-0.6-4.5-1c-1.4-0.4-2.8-1.1-3.7-2c-1-1-1.4-2.3-1.6-3.7s-0.3-2.8-0.7-4.1
		c-0.7-2.6-2-5-3.8-6.7s-3.9-2.7-6-3s-4,0.1-5.4,0.8c-1.5,0.7-2.5,1.8-3.2,2.7c-0.7,1-1,1.8-1.1,2.4s-0.1,0.9-0.1,0.9
		c0.1,0,0.1-1.3,1.4-3.2c0.7-0.9,1.7-1.9,3.1-2.6s3.3-1,5.2-0.7c2,0.3,4,1.3,5.7,2.9s3,3.9,3.6,6.4c0.3,1.3,0.4,2.6,0.6,4
		s0.7,2.9,1.8,4s2.5,1.8,4,2.2s3,0.6,4.5,1c1.5,0.3,2.9,0.8,4.1,1.7s2.1,2,2.7,3.3c1.2,2.6,1.2,5.5,0.2,8c-0.5,1.2-1,2.5-1.2,3.8
		s0.1,2.7,0.9,3.7c1.5,2,3.8,2.8,5.4,3.9c1.7,1.1,2.7,2.6,3.2,4.2c0.5,1.5,0.5,2.9,0.3,4C419,199.3,418.1,200.3,418.2,200.3
		L418.2,200.3z"/>
	<path class="st6" d="M417.2,161c0,0,0.1-0.2,0.2-0.7c0-0.4,0-1.1-0.5-1.9c-0.4-0.7-1.2-1.5-2.4-1.9s-2.6-0.4-4-0.1
		c-1.5,0.3-3,0.9-4.7,1.2c-1.6,0.3-3.6,0.4-5.1-0.8c-1.5-1.1-2.2-3.1-3-5.1s-1.8-4-3.3-5.8c-2.9-3.6-6.8-6-10.7-6.9
		c-2-0.4-3.9-0.4-5.6,0.1s-3.1,1.5-4.1,2.7s-1.5,2.5-1.6,3.7s0.1,2.2,0.5,3c0.3,0.8,0.7,1.3,1.1,1.6c0.3,0.3,0.5,0.4,0.5,0.4
		c0.1-0.1-0.8-0.6-1.4-2.1c-0.3-0.8-0.5-1.8-0.3-2.9c0.1-1.1,0.6-2.4,1.5-3.5s2.3-2,3.9-2.5s3.5-0.5,5.4-0.1
		c3.7,0.9,7.5,3.3,10.3,6.7c1.4,1.7,2.4,3.7,3.2,5.6s1.6,4,3.2,5.3c0.8,0.6,1.8,1,2.8,1c1,0.1,1.9,0,2.8-0.2c1.7-0.4,3.2-1,4.7-1.3
		c1.4-0.3,2.8-0.3,3.8,0c1.1,0.4,1.8,1.1,2.3,1.8s0.6,1.3,0.5,1.7C417.3,160.7,417.2,161,417.2,161L417.2,161z"/>
	<path class="st7" d="M430.2,233.1l-25-6.4h-29.8c0,0-15.4,0.9-24,8.5c-0.2,0.2-2.9,2.6-4.7,7.7l-13.2,30.3l-6.8-38l-23.8,3.4
		l3.8,65.4c1.4,13.9,11.6,25.3,25.3,28.2l13.5-15.2c1.6,12.4,2.9,23.1,3.1,22.9c0.3-0.3,74.1-4.8,74.1-4.8l-7.5-25.2L430.2,233.1z"
		/>
	<path class="st7" d="M335.7,148.5c0.1-9.4-7.5-17.1-16.9-17.2s-17.1,7.5-17.2,16.9c-0.1,6.8,3.9,12.7,9.6,15.5v4.3l14.9,0.2
		c0,0,0.1-2.4,0.2-4.6C331.8,160.8,335.6,155.1,335.7,148.5L335.7,148.5z"/>
	<path class="st5" d="M320.7,168c0,0,0-0.1,0-0.2s0-0.4,0.1-0.6c0.1-0.5,0.2-1.3,0.3-2.4c0.2-1,0.4-2.3,0.7-3.7s0.8-3,1.6-4.7
		c0.4-0.8,0.8-1.7,1.4-2.5c0.3-0.4,0.7-0.8,1.2-1s1.1-0.2,1.6,0.1c0.2,0.1,0.5,0.4,0.5,0.7c0.1,0.3,0.1,0.6-0.1,0.9
		c-0.3,0.5-0.8,0.9-1.3,1.1c-1.1,0.4-2.4,0.3-3.5-0.3s-2-1.6-2.4-2.9c-0.2-0.6-0.3-1.3-0.1-2s0.8-1.2,1.6-1.2c0.4,0,0.7,0.3,0.9,0.6
		s0.2,0.7,0.1,1.1c-0.2,0.7-0.7,1.2-1.2,1.7c-1.1,0.9-2.6,1.4-4,1.1c-1.4-0.2-2.7-1.2-3.3-2.5c-0.3-0.6-0.4-1.4-0.1-2.1
		c0.1-0.3,0.4-0.6,0.8-0.7c0.3-0.1,0.7-0.1,1,0.1s0.6,0.4,0.7,0.8c0.2,0.3,0.2,0.7,0.2,1c0,0.7-0.1,1.3-0.3,1.9
		c-0.4,1.2-1.3,2.3-2.4,2.8c-1.1,0.6-2.4,0.7-3.5,0.4c-0.6-0.1-1.1-0.4-1.5-0.8c-0.4-0.5-0.5-1.2-0.1-1.6c0.2-0.2,0.5-0.3,0.8-0.4
		c0.3,0,0.6,0,0.8,0.2c0.5,0.3,0.8,0.7,1,1.2c0.4,0.9,0.8,1.8,1.1,2.7c1.3,3.5,2.3,6.3,2.9,8.3c0.3,1,0.5,1.8,0.7,2.3
		c0.1,0.3,0.1,0.5,0.2,0.6c0,0.1,0.1,0.2,0.1,0.2s0-0.1-0.1-0.2c0-0.1-0.1-0.3-0.2-0.6c-0.2-0.5-0.4-1.3-0.7-2.3
		c-0.7-2-1.6-4.8-3-8.2c-0.3-0.9-0.7-1.8-1.1-2.7c-0.2-0.4-0.5-0.9-1-1.1c-0.4-0.2-1-0.2-1.4,0.2c-0.3,0.4-0.2,1,0.1,1.4
		s0.9,0.6,1.4,0.8c1.1,0.3,2.3,0.1,3.4-0.4s1.9-1.5,2.3-2.7c0.2-0.6,0.3-1.2,0.3-1.9c0-0.6-0.3-1.3-0.9-1.6
		c-0.3-0.1-0.6-0.2-0.9-0.1s-0.5,0.3-0.6,0.6c-0.2,0.6-0.2,1.3,0.1,1.9c0.5,1.2,1.8,2.1,3.1,2.4c1.4,0.2,2.8-0.2,3.8-1.1
		c0.5-0.4,1-0.9,1.1-1.6c0.1-0.3,0-0.6-0.1-0.9s-0.4-0.5-0.7-0.5s-0.6,0.1-0.9,0.3c-0.2,0.2-0.4,0.5-0.5,0.8
		c-0.2,0.6-0.1,1.3,0.1,1.9c0.4,1.2,1.2,2.2,2.3,2.8c1.1,0.5,2.3,0.6,3.4,0.3c0.5-0.2,1-0.6,1.2-1c0.3-0.5,0.1-1.1-0.4-1.3
		c-0.4-0.3-1-0.3-1.5-0.1s-0.8,0.6-1.1,1c-0.6,0.8-1,1.7-1.4,2.5c-0.8,1.7-1.3,3.3-1.6,4.7c-0.4,1.4-0.6,2.7-0.8,3.7
		s-0.3,1.8-0.4,2.3c0,0.3-0.1,0.5-0.1,0.6C320.7,167.9,320.7,168,320.7,168z"/>
	<path class="st5" d="M325,170.9l-12.8-0.1c-0.5,0-1-0.4-1-1c0-0.5,0.4-1,1-1L325,169c0.5,0,1,0.4,1,1
		C325.9,170.5,325.5,170.9,325,170.9L325,170.9z"/>
	<path class="st5" d="M324.9,171.7l-12.8-0.1c-0.5,0-1,0.4-1,1c0,0.5,0.4,1,1,1h1.4l1.8,3.6c0.2,0.4,0.6,0.7,1.1,0.7h4.6
		c0.5,0,0.9-0.3,1.1-0.7l1.9-3.5h1c0.5,0,1-0.4,1-1C325.9,172.2,325.5,171.7,324.9,171.7z"/>
	<path class="st15" d="M307.8,137.3c1.2-1,2.4-1.8,3.4-2.2c1.1-0.5,2-0.7,2.6-0.7c0.6-0.1,1,0,1,0.1c0.1,0.3-1.2,0.8-3,1.9
		c-1.7,1.1-3.9,3.1-5.3,5.9c-1.3,2.8-1.5,5.8-1.3,7.8c0.2,2.1,0.7,3.4,0.4,3.5c-0.1,0.1-0.4-0.2-0.8-0.7s-0.8-1.4-1.1-2.5
		s-0.5-2.5-0.4-4.1s0.5-3.3,1.2-4.9"/>
	<path class="st6" d="M321.9,177.5c0,0-0.3-0.1-0.9-0.3c-0.5-0.2-1.3-0.3-2.2-0.3s-1.6,0.2-2.2,0.4c-0.5,0.2-0.9,0.3-0.9,0.3
		s0.3-0.2,0.8-0.5c0.5-0.2,1.3-0.4,2.2-0.4s1.7,0.2,2.2,0.4C321.6,177.2,321.9,177.4,321.9,177.5L321.9,177.5z"/>
	
		<ellipse transform="matrix(1.044388e-02 -0.9999 0.9999 1.044388e-02 141.8438 490.632)" class="st6" cx="318.8" cy="173.6" rx="0.1" ry="5.2"/>
	<path class="st6" d="M323.2,175.2c0,0-0.5,0.1-1.3,0.1s-1.9,0.1-3.1,0.1s-2.3,0-3.1-0.1c-0.8,0-1.3-0.1-1.3-0.1h1.3h3.1h3.1H323.2z
		"/>
	<path class="st5" d="M348.3,291c0,0-0.3-0.3-0.8-0.9c-0.4-0.6-1-1.6-1.3-3c-0.8-2.7-0.7-6.6,0.6-10.6s3.1-7.3,4.1-9.8
		c0.5-1.3,0.9-2.3,1.1-3s0.4-1.1,0.4-1.1s0,0.4-0.2,1.2c-0.2,0.7-0.5,1.8-1,3.1c-0.9,2.6-2.6,6-3.9,9.9s-1.4,7.7-0.8,10.3
		C347.3,289.6,348.5,290.9,348.3,291L348.3,291z"/>
	<path class="st5" d="M417.4,265.2c0,0,0.1,0.2,0.1,0.5c0.1,0.4,0.2,0.9,0.3,1.5c0.3,1.4,0.6,3.2,1,5.5c0.8,4.7,1.9,11.1,3.1,18.2
		s2.1,13.6,2.8,18.3c0.3,2.3,0.6,4.2,0.7,5.6c0.1,0.6,0.1,1.1,0.1,1.5v0.5c0,0-0.1-0.2-0.1-0.5c-0.1-0.4-0.1-0.9-0.2-1.5
		c-0.2-1.4-0.5-3.3-0.9-5.5c-0.8-4.7-1.8-11.2-2.9-18.2c-1.1-7.1-2.2-13.5-2.9-18.2c-0.4-2.3-0.6-4.2-0.9-5.5
		c-0.1-0.6-0.2-1.1-0.2-1.5C417.4,265.4,417.4,265.2,417.4,265.2L417.4,265.2z"/>
	<path class="st5" d="M332.8,292c-0.1,0,0-1.1,0.2-2.8c0.1-1.7,0.3-4.1,0.4-6.7s0-5,0-6.7c-0.1-1.7-0.1-2.8,0-2.8s0.2,1,0.4,2.8
		c0.2,1.7,0.3,4.1,0.2,6.7s-0.3,5-0.5,6.7C333.1,290.9,332.9,292,332.8,292z"/>
	<path class="st5" d="M434.4,323.4c-0.1,0-0.2-0.7-0.7-1.6c-0.5-1-1.3-2.2-2.6-3.2s-2.8-1.4-3.9-1.6s-1.8-0.1-1.8-0.2
		s0.7-0.2,1.8-0.2c1.1,0.1,2.7,0.5,4.1,1.5s2.3,2.4,2.7,3.5S434.5,323.4,434.4,323.4L434.4,323.4z"/>
	<path class="st5" d="M428.9,326.4c-0.1,0.1-0.9-1.7-2.6-3.3s-3.5-2.2-3.5-2.3s2,0.3,3.8,1.9C428.5,324.4,429,326.4,428.9,326.4
		L428.9,326.4z"/>
	<path class="st5" d="M410.5,326.4c-0.1-0.1,2.8-1.3,6.2-2.8c3.5-1.5,6.2-2.8,6.3-2.7s-2.6,1.7-6.1,3.2
		C413.5,325.6,410.5,326.5,410.5,326.4z"/>
	<path class="st1" d="M313.3,284.2c0,0,14.4,68.4,14.4,67.5c0-0.8,72.5,3.1,85.4,3.7l2.7-0.7l20.5-18.8l-23.5-1.9l-8.4-48.1
		L313.3,284.2z"/>
	<ellipse transform="matrix(0.9864 -0.1646 0.1646 0.9864 -47.129 71.854)" class="st6" cx="410" cy="320.3" rx="0.3" ry="34.9"/>
	<path class="st6" d="M404.5,285.9c0,0-0.2,0.2-0.5,0.5s-0.9,0.7-1.5,1.4c-0.3,0.3-0.6,0.8-0.4,1.3c0.1,0.6,0.2,1.1,0.3,1.8
		c0.2,1.3,0.5,2.7,0.8,4.3c1.1,6.4,2.6,15.2,4.2,24.9s3,18.5,4.1,24.9c0.5,3.2,0.9,5.7,1.2,7.6c0.1,0.9,0.2,1.5,0.3,2.1
		c0.1,0.5,0.1,0.7,0.1,0.7s-0.1-0.2-0.2-0.7s-0.2-1.2-0.4-2c-0.3-1.8-0.8-4.4-1.3-7.5c-1.1-6.4-2.6-15.2-4.2-24.9s-3-18.5-4.1-24.9
		c-0.3-1.6-0.5-3-0.7-4.3c-0.1-0.6-0.2-1.2-0.3-1.8c-0.2-0.6,0.2-1.1,0.5-1.5c0.6-0.7,1.2-1.1,1.6-1.4
		C404.3,286.1,404.5,285.9,404.5,285.9z"/>
	<path class="st6" d="M401.9,288.4c0,0-0.3,0-0.9,0s-1.5,0-2.6,0c-2.3,0-5.5-0.1-9.4-0.1c-8-0.1-18.9-0.3-31.1-0.5
		c-12.1-0.2-23.1-0.4-31.1-0.5c-3.9-0.1-7.1-0.1-9.4-0.1c-1.1,0-1.9,0-2.6-0.1c-0.6,0-0.9,0-0.9-0.1h0.9h2.6h9.4
		c8,0,18.9,0.1,31.1,0.4c12.1,0.2,23.1,0.5,31.1,0.7c3.9,0.1,7.1,0.2,9.4,0.3c1.1,0,1.9,0.1,2.6,0.1
		C401.6,288.4,401.9,288.4,401.9,288.4L401.9,288.4z"/>
	<path class="st6" d="M412.6,336h1.4c1,0,2.3,0.1,3.8,0.2c3.2,0.2,7.7,0.4,12.7,0.7h0.6l-0.5,0.4c-0.3,0.2-0.6,0.5-0.9,0.8
		c-4,3.4-7.7,6.5-10.3,8.7c-1.3,1-2.3,1.9-3.2,2.6c-0.8,0.6-1.2,0.9-1.2,0.9s0.4-0.4,1.1-1c0.8-0.7,1.8-1.6,3.1-2.7
		c2.6-2.3,6.2-5.4,10.2-8.8c0.3-0.3,0.6-0.5,0.9-0.8l0.2,0.5c-5-0.3-9.4-0.6-12.7-0.9c-1.5-0.1-2.8-0.2-3.8-0.3
		C413.1,336.1,412.6,336,412.6,336L412.6,336z"/>
	<path class="st8" d="M349.6,353.8l-0.9-11.1c0,0,3.7-0.5,4,3.6v-6.9c0,0,4.2-0.9,5.2,4.6c0.9,5.6,2.3,8.6,2.3,8.6l2.3,1.2
		l-2.1-12.9c0,0,4.5,0.4,5.3,4.6s2,7.2,2,7.2l7.1,2c0,0-4.1-3.6-3.7-4.8s0.1-1.1,0.9-1.3s2.6,0.4,3.8,1c1.3,0.7,8.8,5.1,8.8,5.1v5.5
		c0,0-17.5,1.3-21.4,0.5l-7.6-1.8C352.7,358.5,350.5,356.5,349.6,353.8L349.6,353.8z"/>
	
		<ellipse transform="matrix(0.9865 -0.1638 0.1638 0.9865 -47.2226 63.5106)" class="st9" cx="361.5" cy="318.1" rx="4.8" ry="5.4"/>
	<path class="st16" d="M425.5,316.5c3-0.9,6.3-1,9.1,0.3s5.1,3.9,5.5,7c0.1,0.7,0.1,1.5-0.2,2.1c-0.2,0.7-0.8,1.3-1.5,1.5
		c-1.1,0.3-2.3-0.4-2.9-1.4s-0.9-2.1-1.3-3.2c-1.4-3.6-5.2-6.2-9-6.3c0.2,0,0.3,0.1,0.5,0.1"/>
	<path class="st7" d="M372.9,230.5c0.6-1.9,0.1-3.9-0.3-5.8c-0.3-1.9-0.4-4.2,0.9-5.6c1.3-1.5,3.5-1.6,5.5-1.7
		c8.1-0.4,16.1-0.7,24.2-1.1c1.7-0.1,3.6,0,4.6,1.3c0.7,0.8,1.1,2,0.9,3c-1.2,4.6-0.9,8.5,1,11.7"/>
	<path class="st5" d="M405.7,228.2c0,0-0.4,0.3-1.1,0.9c-0.7,0.5-1.8,1.3-3.2,2c-2.8,1.5-7,3.2-11.9,3.6c-2.4,0.2-4.8,0.2-6.9-0.1
		s-3.9-0.9-5.3-1.7s-2.4-1.7-2.9-2.4c-0.3-0.3-0.5-0.6-0.6-0.8s-0.2-0.3-0.2-0.3c0.1-0.1,1,1.8,3.9,3.2c1.4,0.7,3.2,1.3,5.2,1.6
		c2.1,0.3,4.4,0.3,6.7,0.1c4.8-0.4,8.9-2,11.7-3.4C404.1,229.4,405.7,228.1,405.7,228.2L405.7,228.2z"/>
	<path class="st5" d="M389.2,234.8c-0.1,0-0.3-1-0.6-2.7s-0.7-4-1.2-6.5c-0.2-1.3-0.4-2.5-0.6-3.6s-0.2-2.2,0.1-3s0.8-1.4,1.3-1.6
		c0.4-0.2,0.7-0.2,0.7-0.2s-0.3,0.1-0.6,0.4c-0.4,0.3-0.8,0.8-1,1.6s-0.2,1.8,0,2.8c0.2,1.1,0.4,2.3,0.6,3.6c0.4,2.5,0.8,4.8,1,6.5
		C389.2,233.8,389.3,234.8,389.2,234.8L389.2,234.8z"/>
	<path class="st5" d="M401.8,231c-0.1,0-0.2-0.8-0.5-2.2s-0.5-3.3-0.7-5.4c-0.3-2.1-0.4-4-0.6-5.3c-0.1-0.7-0.5-1.1-0.8-1.3
		s-0.5-0.2-0.5-0.3c0,0,0.2-0.1,0.6,0.1s0.8,0.7,1,1.4c0.3,1.4,0.5,3.3,0.8,5.4s0.5,4,0.6,5.4C401.8,230.1,401.8,231,401.8,231
		L401.8,231z"/>
	<path class="st5" d="M378.7,217.4c0,0.1-0.8,0.3-1.6,1.4c-0.4,0.5-0.7,1.2-0.9,2.1s-0.2,1.8-0.1,2.8c0.2,2.1,0.4,3.9,0.4,5.3
		c0.1,1.4,0.1,2.2,0,2.2s-0.2-0.8-0.4-2.2s-0.4-3.2-0.6-5.3c-0.1-1-0.1-2.1,0.1-3s0.6-1.7,1.1-2.2
		C377.8,217.4,378.8,217.3,378.7,217.4z"/>
	<path class="st6" d="M280.1,364.8c0,5.1,3,103.8,3,103.8l-42-0.2l-7.3-43.9l-1.9,43.9h-40.3l4.4-108.3L280.1,364.8z"/>
	<path class="st5" d="M156.2,323.9l-21.5-32l15.9-12.9l26.9,25c0,0,11.6-65,23-68.9l-0.9,100.8C184.3,343.2,165.8,338.1,156.2,323.9
		L156.2,323.9z"/>
	<path class="st7" d="M112.3,173.2l4.6,62.3l74.7,143.3l43.3-25l-73.7-140.1L112.3,173.2z"/>
	<path class="st17" d="M161.9,214c-1.2,2.2-4.5,2.8-6.4,1.3c1.1,4.5-0.9,9.6-4.8,12c-3.9,2.5-9.4,2.2-12.9-0.7
		c-0.6,4.5-3.8,8.6-8,10.3s-9.4,1-12.9-1.9l-4.5-61.8L161.9,214z"/>
	<path class="st7" d="M114.1,198.2c0,0,10.1,6.4,18.2-8.5l-20-16.6L114.1,198.2z"/>
	<path class="st2" d="M208.1,367.1c-0.1,0.1-16-31.3-35.5-70.1s-35.2-70.2-35-70.3c0.1-0.1,16,31.3,35.5,70.1
		S208.2,367.1,208.1,367.1L208.1,367.1z"/>
	<path class="st2" d="M226.1,356.4c-0.1,0.1-16-31.3-35.5-70.1s-35.2-70.2-35-70.3c0.1-0.1,16,31.3,35.5,70.1
		C210.5,324.8,226.2,356.3,226.1,356.4L226.1,356.4z"/>
	<path class="st18" d="M138.2,256.7l-9.7,3.9l-2.1,7.8l3.3,13l7.8,8.3l5.3-4.4l0.3-8l0.6-4.5c0,0,4.8-1.5,4.9-2.2s-0.6-3.2-1.3-3.3
		s-5.7,1.7-5.7,1.7s5.9-4.7,5.8-5.5c-0.2-0.8-0.8-2.7-2-2.9s-10.8,4.3-10.8,4.3l-1.6,3.5l-1.4-5.7
		C131.8,262.9,140.3,260.5,138.2,256.7L138.2,256.7z"/>
	<path class="st19" d="M139.4,275c-0.1,0-0.2-0.3-0.3-1c-0.1-0.6,0-1.5,0.3-2.4s0.9-1.6,1.4-2s0.8-0.6,0.9-0.5s-1.2,1-1.8,2.7
		C139.2,273.4,139.5,274.9,139.4,275L139.4,275z"/>
	<path class="st19" d="M134.8,273.3c-0.1,0,0.3-0.9,0.4-2.5c0.1-0.8,0.1-1.8,0.5-2.8c0.2-0.5,0.5-1.1,0.9-1.5c0.4-0.5,1-0.8,1.6-1
		c2.3-0.8,4.4-1.5,5.9-2s2.5-0.8,2.5-0.7s-0.9,0.5-2.4,1c-1.5,0.6-3.6,1.3-5.9,2.1c-0.6,0.2-1.1,0.5-1.4,0.9
		c-0.4,0.4-0.6,0.8-0.8,1.3c-0.4,1-0.4,1.9-0.6,2.7C135.3,272.4,134.8,273.3,134.8,273.3z"/>
	
		<ellipse transform="matrix(0.1629 -0.9866 0.9866 0.1629 -154.8419 356.7931)" class="st19" cx="132.8" cy="269.6" rx="1.9" ry="0.3"/>
	<path class="st7" d="M263.7,216.4l-8.5-2.9l-31.8,7.3l-2.8,2.3l-16.8,155.7c7.2,7.4,30,8.9,42.9,6.7L263.7,216.4z"/>
	<path class="st5" d="M264.3,216.7l-4.1-2c0,0-9,39.6-9,65.8s-5.7,121.1-5.7,121.1l42.9-1.1V295.6L264.3,216.7z"/>
	<path class="st5" d="M203.8,403.1l-16.2-4.8l5.7-76.7l-1.1-55.6l8.5-31l20.2-12.5C220.8,222.5,204.9,393.9,203.8,403.1L203.8,403.1
		z"/>
	<path class="st18" d="M237.7,235.5c-8.1-0.7-14.3-7.5-14.3-15.6l0.1-13.9c0,0-12.9-2-13-14.9c-0.2-12.9,2.1-42.4,2.1-42.4
		c14.9-6.4,32.1-4.2,44.9,5.6l1.9,1.5l-4.7,65.2C254,229.8,246.4,236.3,237.7,235.5L237.7,235.5z"/>
	<path class="st19" d="M223.4,205.8c0,0,8.1,0.7,16.8-4.8c0,0-4,9.3-16.8,8.1V205.8z"/>
	<path class="st18" d="M257.7,169.1c0.2-0.1,8.8-2.6,8.6,6.2c-0.3,8.8-9.1,6.7-9.1,6.4C257.2,181.5,257.7,169.1,257.7,169.1
		L257.7,169.1z"/>
	<path class="st19" d="M260,178.5c0,0,0.1,0.1,0.4,0.2c0.2,0.1,0.7,0.2,1.1,0.1c0.9-0.3,1.8-1.8,1.9-3.3c0-0.8-0.1-1.6-0.4-2.2
		c-0.2-0.7-0.6-1.1-1.1-1.2s-0.8,0.1-0.9,0.4c-0.1,0.2-0.1,0.4-0.1,0.4s-0.2-0.2-0.1-0.5c0-0.2,0.2-0.4,0.4-0.5
		c0.2-0.2,0.5-0.2,0.9-0.2c0.7,0.1,1.3,0.7,1.6,1.4s0.5,1.6,0.5,2.5c-0.1,1.8-1.1,3.4-2.4,3.7c-0.6,0.1-1.1-0.1-1.4-0.3
		C260,178.7,260,178.5,260,178.5L260,178.5z"/>
	<path class="st5" d="M216.7,168.5c0,1,0.8,1.8,1.8,1.9s1.9-0.7,1.9-1.7s-0.8-1.8-1.8-1.9C217.6,166.8,216.7,167.5,216.7,168.5z"/>
	<path class="st5" d="M214.9,166.8c0.2,0.2,1.6-0.8,3.6-0.8s3.4,1,3.6,0.8c0.1-0.1-0.1-0.5-0.8-1c-0.6-0.5-1.7-0.9-2.9-0.9
		s-2.3,0.5-2.9,0.9C215,166.3,214.8,166.7,214.9,166.8L214.9,166.8z"/>
	<path class="st5" d="M236.1,169.3c0,1,0.8,1.8,1.8,1.9s1.9-0.7,1.9-1.7s-0.8-1.8-1.8-1.9C237,167.6,236.2,168.4,236.1,169.3z"/>
	<path class="st5" d="M234.4,167.2c0.2,0.2,1.6-0.8,3.6-0.8s3.4,1,3.6,0.8c0.1-0.1-0.1-0.5-0.8-1c-0.6-0.5-1.7-0.9-2.9-0.9
		s-2.3,0.5-2.9,0.9C234.5,166.6,234.2,167.1,234.4,167.2L234.4,167.2z"/>
	<path class="st5" d="M227.2,181.8c0-0.1-1.2-0.3-3.2-0.6c-0.5-0.1-1-0.2-1.1-0.5c-0.1-0.4,0.1-0.9,0.3-1.5c0.5-1.2,1-2.5,1.5-3.8
		c2.1-5.5,3.6-10,3.4-10.1s-2.1,4.3-4.2,9.8c-0.5,1.3-1,2.6-1.4,3.9c-0.2,0.6-0.5,1.2-0.3,2c0.1,0.4,0.5,0.7,0.8,0.7
		c0.3,0.1,0.6,0.1,0.9,0.1C225.9,181.9,227.2,181.9,227.2,181.8L227.2,181.8z"/>
	<path class="st5" d="M233.8,159.4c0.2,0.5,2.2,0.3,4.5,0.6c2.3,0.2,4.2,0.9,4.5,0.4c0.1-0.2-0.2-0.7-0.9-1.3
		c-0.7-0.5-1.9-1-3.3-1.2s-2.7,0.1-3.5,0.4C234.2,158.7,233.8,159.2,233.8,159.4z"/>
	<path class="st5" d="M215.7,161.1c0.3,0.4,1.7,0,3.3,0c1.6-0.1,3,0.3,3.3-0.2c0.1-0.2-0.1-0.7-0.7-1.1s-1.6-0.8-2.7-0.7
		c-1.1,0-2.1,0.4-2.7,0.9C215.7,160.4,215.5,160.9,215.7,161.1L215.7,161.1z"/>
	<path class="st5" d="M206.2,140.6c-0.1-1.6,0.5-3.3,1.8-4.2s3.3-0.9,4.4,0.3c-0.6-2.1,1.2-4.6,3.4-4.8c2.1-0.1,3.9,1.5,5.9,2
		s4.1,0.1,6-0.7s3.7-1.8,5.6-2.5c4-1.5,8.6-1.3,12.5,0.5s7,5.2,8.5,9.2c2.8-0.9,6,0.5,7.7,2.9s2.2,5.5,1.8,8.4
		c-0.2,2-0.8,3.9-1.5,5.8v0.5c-0.1,7.1-0.9,15.4-4,15.4c-5.3,0.1-4-9.8-4-9.8c-6.5-2.5-4.1-12.2-5.7-13.6c-1.6-1.5-5-4.9-18.5,2
		c-5.2,2.7-12.2,2.6-16,1.7c-0.1,0-0.2,0-0.3-0.1h-0.1h-0.1c-1.2-0.3-2.4-0.8-3.5-1.5c-1.2-0.8-2.3-1.8-2.9-3.2
		c-0.5-1.4-0.3-3,0.7-4C207.1,143.7,206.4,142.2,206.2,140.6L206.2,140.6z"/>
	<path class="st19" d="M225.5,187.9c0.3,0.8,0.6,1.6,1.1,2.2c0.5,0.7,1.3,1.2,2.1,1.2c0.9,0,1.8-0.5,2.3-1.2s0.7-1.7,0.6-2.6
		c0-0.8-0.4-1.8-1.2-1.9c-0.3,0-0.7,0.1-1,0.2c-1.4,0.6-2.8,1.1-4.2,1.7"/>
	<path class="st5" d="M227.2,191.4c0-0.1,1,0.2,2.3-0.3c0.6-0.3,1.3-0.8,1.7-1.6s0.5-1.8,0.1-2.8c-0.1-0.2-0.2-0.4-0.4-0.6
		s-0.1-0.2-0.3-0.1c-0.2,0-0.5,0.2-0.7,0.3s-0.5,0.2-0.7,0.3c-0.9,0.4-1.7,0.7-2.4,0.9c-1.4,0.5-2.3,0.8-2.3,0.7s0.8-0.5,2.1-1.2
		c0.7-0.3,1.5-0.7,2.4-1.1c0.2-0.1,0.5-0.2,0.7-0.3s0.4-0.2,0.8-0.3c0.2,0,0.4-0.1,0.6,0s0.4,0.2,0.5,0.4c0.2,0.3,0.4,0.5,0.5,0.8
		c0.5,1.2,0.4,2.4-0.1,3.4s-1.4,1.5-2.2,1.7s-1.4,0.2-1.8,0.1C227.4,191.6,227.2,191.4,227.2,191.4L227.2,191.4z"/>
	<path class="st6" d="M249.2,148.7c0,0,0.1-0.6,0-1.6s-0.7-2.4-2-3.6s-3.4-2-5.8-1.9c-2.4,0-4.9,0.8-7.5,1.7
		c-1.3,0.4-2.6,0.8-3.9,1.1s-2.6,0.4-3.8,0.5c-2.4,0.1-4.6-0.3-6.3-0.8s-3.1-1.2-4-1.7c-0.4-0.2-0.8-0.5-1-0.6
		c-0.2-0.2-0.3-0.2-0.3-0.2s0.5,0.3,1.4,0.7c0.9,0.5,2.2,1.1,4,1.6c1.7,0.5,3.9,0.8,6.3,0.7c1.2,0,2.4-0.2,3.7-0.5s2.5-0.7,3.9-1.1
		c2.6-0.9,5.2-1.7,7.6-1.7s4.7,0.8,6,2.1c1.4,1.3,1.9,2.8,2,3.8C249.5,148.2,249.2,148.7,249.2,148.7L249.2,148.7z"/>
	<path class="st6" d="M259.2,170.5c0,0-0.1-0.1-0.2-0.3s-0.2-0.5-0.4-0.8c-0.3-0.7-0.7-1.8-1-3.2s-0.5-3.1-0.3-5
		c0.1-1.9,0.7-3.9,1.1-6c0.5-2.1,0.6-4.2,0-5.9c-0.3-0.9-0.7-1.6-1.2-2.2s-1.2-1-1.8-1.2c-1.3-0.5-2.5-0.3-3.2,0.1s-1,0.7-1,0.7
		s0.2-0.4,0.9-0.8s1.9-0.7,3.3-0.2c0.7,0.2,1.4,0.6,2,1.3c0.6,0.6,1,1.4,1.3,2.3c0.6,1.8,0.5,4,0,6.1c-0.4,2.1-1,4.1-1.2,5.9
		s0,3.5,0.2,4.9c0.3,1.4,0.6,2.5,0.9,3.2C259.1,170.1,259.3,170.5,259.2,170.5L259.2,170.5z"/>
	<path class="st6" d="M250.5,147.7c0,0,0-0.2,0-0.5c0-0.4,0-0.9,0.1-1.5c0-1.3,0.1-3.2-0.6-5.3c-0.3-1.1-0.9-2.2-1.7-3.2
		s-2-1.9-3.4-2.3s-3-0.3-4.6,0.2c-1.6,0.4-3.1,1.2-4.6,2.1s-3,1.7-4.6,2.3s-3.2,0.9-4.7,0.9s-3-0.2-4.3-0.5
		c-1.3-0.4-2.5-0.9-3.5-1.4c-2-1.2-3.3-2.5-4.1-3.5c-0.4-0.5-0.7-0.9-0.8-1.2c-0.2-0.3-0.3-0.4-0.2-0.5c0,0,0.1,0.1,0.3,0.4
		s0.5,0.7,0.9,1.2c0.8,1,2.2,2.3,4.2,3.4c1,0.5,2.2,1,3.4,1.4c1.3,0.3,2.7,0.5,4.2,0.5s3.1-0.4,4.6-0.9c1.5-0.6,3-1.5,4.5-2.3
		c1.5-0.9,3.1-1.7,4.7-2.1s3.3-0.6,4.8-0.2s2.7,1.4,3.6,2.4c0.9,1.1,1.4,2.3,1.7,3.4c0.6,2.2,0.5,4.1,0.5,5.4c0,0.6-0.1,1.1-0.1,1.5
		C250.5,147.5,250.5,147.7,250.5,147.7L250.5,147.7z"/>
	<path class="st5" d="M264.3,216.7c0,0,30.7,9.8,32.7,15.1c1.5,4,17.6,52.4,21.1,83.9c1.4,12.8-8.1,24.3-21,25.5
		c-20.8,1.9-50.9,4.4-50.9,2.7v-26.1l39.1-5.8l-14.5-42.5L264.3,216.7z"/>
	<path class="st18" d="M224.9,338.6c4,1,21.3,1,21.3,1v-20.5c0,0-7.5-3.2-9.6-5.1s-8-12.9-8-12.9s-3.6,2-2.7,6.3
		c1,4.5,2.8,5.1,3,6.9l0.2,0.5c0.4,2.5-2,4.7-2,4.7c0.1,0-2-1.3-2.6-1.3c-3.6-0.4-8,2.2-8,3.6c0,0-0.1,3.9,0,4.5s2,1.4,2,1.4
		s-0.6,2.6,0,3.8s2.5,2,2.5,2S222.7,338,224.9,338.6L224.9,338.6z"/>
	<path class="st19" d="M229.1,335.3c0,0.1-1.9,0.3-4.2-0.2s-3.9-1.4-3.9-1.5c0.1-0.1,1.8,0.5,4,1C227.3,335,229.1,335.1,229.1,335.3
		L229.1,335.3z"/>
	<path class="st19" d="M228.1,329.1c0,0.1-2.1,0.6-4.7,0.2c-2.6-0.3-4.6-1.4-4.5-1.5s2,0.6,4.6,1C226,329.2,228.1,329,228.1,329.1
		L228.1,329.1z"/>
	<path class="st19" d="M227.5,311.5c0.1,0,0.7,0.9,1.4,2.5c0.2,0.4,0.3,0.9,0.4,1.4s0.2,1.2,0,1.8c-0.3,1.2-1.3,2.3-2.5,3
		c-0.6,0.4-1.3,0.6-1.9,0.8c-0.7,0.1-1.3,0.2-1.9,0.2c-1.2,0-2.2,0-3.1,0c-1.8,0-2.8,0.3-2.9,0.2c0-0.1,1-0.5,2.8-0.6
		c0.9-0.1,2-0.1,3.1-0.2c0.6,0,1.2-0.1,1.8-0.2s1.2-0.4,1.8-0.7c1.1-0.7,2-1.6,2.3-2.7c0.2-0.5,0.1-1,0.1-1.5
		c-0.1-0.5-0.2-1-0.4-1.4C228,312.5,227.4,311.5,227.5,311.5L227.5,311.5z"/>
	<path class="st6" d="M285.8,311.9c0,0-0.5,0.1-1.5,0.3c-1.1,0.2-2.5,0.4-4.2,0.7c-3.6,0.6-8.5,1.4-14,2.2s-10.4,1.5-14,2
		s-5.8,0.7-5.8,0.6c0.4-0.1,0.9-0.1,1.5-0.3c1.1-0.2,2.5-0.4,4.2-0.7c3.7-0.6,8.6-1.3,14-2.2c5.5-0.8,10.4-1.5,14-2
		c1.7-0.2,3.2-0.4,4.2-0.6C285.2,311.9,285.8,311.8,285.8,311.9z"/>
	<path class="st6" d="M302.4,308c0,0.1-1.2,0.1-3.1,0s-4.5-0.2-7.4-0.4c-1.4-0.1-2.8-0.2-4,0c-1.2,0.3-2.1,0.9-2.6,1.7
		s-0.5,1.6-0.4,2c0.1,0.5,0.3,0.7,0.3,0.8c0,0-0.3-0.2-0.5-0.7s-0.2-1.4,0.2-2.3c0.5-0.9,1.5-1.6,2.8-1.9s2.7-0.2,4.1-0.1
		c2.9,0.2,5.5,0.4,7.4,0.6C301.2,307.8,302.4,307.9,302.4,308z"/>
	<ellipse transform="matrix(0.2837 -0.9589 0.9589 0.2837 -92.64 503.0534)" class="st6" cx="290.4" cy="313.5" rx="0.3" ry="5.7"/>
	
		<ellipse transform="matrix(0.9566 -0.2914 0.2914 0.9566 -71.3418 93.5815)" class="st6" cx="278.5" cy="286.3" rx="0.3" ry="23.3"/>
	<path class="st6" d="M294.6,232.5c0,0.1-1.8,0.4-4.5,1.4s-6.3,3-9.5,6.2c-3.1,3.2-5.1,6.8-6.1,9.5s-1.3,4.6-1.4,4.5
		c0,0,0-0.5,0.1-1.3s0.4-2,0.9-3.4c0.9-2.8,2.9-6.5,6.1-9.8c3.2-3.2,6.9-5.2,9.7-6.2c1.4-0.5,2.6-0.8,3.4-0.9H294.6z"/>
	<path class="st6" d="M192.5,253.9c0,0,0,0.2,0.1,0.7c0,0.5,0,1.2,0.1,2c0,1.8,0.1,4.3,0.1,7.3c0.1,6.2,0.2,14.8,0.3,24.2
		s0.1,18,0.1,24.2v7.3v2v0.7c0,0,0-0.2-0.1-0.7c0-0.5,0-1.2-0.1-2c0-1.8-0.1-4.3-0.1-7.3c-0.1-6.2-0.2-14.8-0.3-24.2
		s-0.1-17.9-0.1-24.2c0-3.1,0-5.5,0-7.3c0-0.8,0-1.5,0-2S192.5,253.9,192.5,253.9L192.5,253.9z"/>
	<path class="st5" d="M240.9,467.1c0,0-0.1-0.3-0.2-0.7c-0.1-0.5-0.3-1.3-0.5-2.2c-0.4-1.9-1-4.6-1.7-8c-1.4-6.8-3.1-16.2-4.8-26.6
		s-2.9-19.9-3.7-26.8c-0.4-3.4-0.7-6.2-0.9-8.1c-0.1-0.9-0.2-1.7-0.2-2.2s-0.1-0.8,0-0.8c0,0,0.1,0.3,0.1,0.8
		c0.1,0.6,0.2,1.3,0.3,2.2c0.3,2,0.6,4.7,1.1,8.1c0.9,6.9,2.2,16.3,3.9,26.7s3.4,19.8,4.6,26.6c0.6,3.4,1.1,6.1,1.5,8
		c0.2,0.9,0.3,1.6,0.4,2.2C240.9,466.8,240.9,467.1,240.9,467.1L240.9,467.1z"/>
	
		<ellipse transform="matrix(0.9978 -6.576724e-02 6.576724e-02 0.9978 -21.9553 18.6303)" class="st6" cx="272" cy="342.8" rx="25.3" ry="0.3"/>
	<path class="st7" d="M622.5,441c-7.8-4.5-12-15.1-12.4-23.8c-0.3-8.7,3.3-17.7,10.4-22.7c7.5-5.2,18.1-5.1,25.8-0.2
		s12.2,14.2,11.8,23.3c-0.3,9.1-5.3,17.8-12.7,23.2"/>
	<path class="st2" d="M635.1,441.8c-0.1,0-0.1-0.7-0.1-2c0-1.4-0.1-3.2-0.2-5.4c-0.1-4.6-0.3-10.9-0.6-17.8c-0.3-7-0.7-13.2-1-17.8
		c-0.1-2.2-0.2-4-0.3-5.4c-0.1-1.3-0.1-2,0-2s0.2,0.7,0.3,2c0.2,1.3,0.3,3.1,0.6,5.4c0.4,4.5,0.9,10.8,1.2,17.8s0.4,13.3,0.4,17.8
		c0,2.3,0,4.1-0.1,5.4S635.1,441.8,635.1,441.8L635.1,441.8z"/>
	
		<ellipse transform="matrix(8.179857e-02 -0.9966 0.9966 8.179857e-02 146.0824 988.8079)" class="st5" cx="609.7" cy="415.1" rx="0.4" ry="2.8"/>
	
		<ellipse transform="matrix(0.4055 -0.9141 0.9141 0.4055 -8.5086 799.9392)" class="st5" cx="610.7" cy="406.5" rx="0.4" ry="2.5"/>
	<path class="st5" d="M616.9,401.7c-0.1,0.2-1.3-0.4-2.6-1.4s-2.1-2.1-1.9-2.3c0.2-0.1,1.2,0.7,2.4,1.7S617,401.5,616.9,401.7
		L616.9,401.7z"/>
	
		<ellipse transform="matrix(0.9147 -0.4041 0.4041 0.9147 -106.3797 284.1488)" class="st5" cx="620" cy="394.1" rx="0.4" ry="2.4"/>
	<path class="st5" d="M627.3,392.4c-0.2,0.1-0.8-0.9-1.2-2.2s-0.5-2.5-0.3-2.5s0.6,1,1,2.3C627.1,391.3,627.5,392.3,627.3,392.4
		L627.3,392.4z"/>
	<ellipse transform="matrix(0.3328 -0.943 0.943 0.3328 57.6188 860.9716)" class="st5" cx="637.2" cy="389.8" rx="1.8" ry="0.4"/>
	<ellipse transform="matrix(0.734 -0.6791 0.6791 0.734 -95.3644 541.9191)" class="st5" cx="644.2" cy="392.7" rx="1.9" ry="0.4"/>
	
		<ellipse transform="matrix(0.8279 -0.5609 0.5609 0.8279 -110.5901 433.4028)" class="st5" cx="650.9" cy="396.9" rx="1.9" ry="0.4"/>
	
		<ellipse transform="matrix(0.9198 -0.3923 0.3923 0.9198 -105.7333 289.3344)" class="st5" cx="655.1" cy="403.4" rx="2.5" ry="0.4"/>
	<ellipse transform="matrix(0.9924 -0.1229 0.1229 0.9924 -45.4082 83.8531)" class="st5" cx="657" cy="410" rx="2.2" ry="0.4"/>
	
		<ellipse transform="matrix(0.3987 -0.9171 0.9171 0.3987 12.8115 854.6279)" class="st5" cx="658.1" cy="417.5" rx="0.4" ry="2.4"/>
	<path class="st5" d="M659.4,426.2c-0.1,0.2-1.4-0.1-2.8-1s-2.2-2-2.1-2.1s1.2,0.7,2.5,1.5S659.5,426,659.4,426.2L659.4,426.2z"/>
	<path class="st5" d="M655.4,433.1c-0.1,0.2-1.2-0.5-2.2-1.5c-1-1.1-1.5-2.2-1.4-2.3c0.2-0.1,1,0.7,1.9,1.8
		C654.7,432.1,655.6,433,655.4,433.1z"/>
	<ellipse transform="matrix(0.887 -0.4618 0.4618 0.887 -131.505 333.2478)" class="st5" cx="615.1" cy="435.3" rx="3" ry="0.4"/>
	
		<ellipse transform="matrix(0.9108 -0.4129 0.4129 0.9108 -122.345 291.0144)" class="st5" cx="612.2" cy="428.6" rx="2.3" ry="0.4"/>
	
		<ellipse transform="matrix(0.9901 -0.1405 0.1405 0.9901 -53.3177 89.7979)" class="st5" cx="609.3" cy="422.5" rx="2.5" ry="0.4"/>
	<path class="st5" d="M620.1,419c0.1,0.2-1,0.7-2.4,0.8c-1.4,0.2-2.6-0.1-2.5-0.3c0-0.2,1.1-0.3,2.5-0.4
		C618.9,419,620,418.8,620.1,419z"/>
	<path class="st5" d="M627,412.2c0.1,0.2-0.8,0.6-1.9,0.7s-2.1-0.1-2-0.3c0-0.2,0.9-0.3,2-0.4C626,412.1,626.9,412,627,412.2
		L627,412.2z"/>
	<ellipse transform="matrix(0.3267 -0.9451 0.9451 0.3267 37.8521 865.3688)" class="st5" cx="626.3" cy="406.1" rx="0.4" ry="2"/>
	<path class="st5" d="M630.8,401.1c-0.1,0.1-0.8-0.3-1.2-1.1c-0.5-0.8-0.5-1.5-0.3-1.6s0.5,0.5,0.9,1.2
		C630.6,400.4,630.9,401,630.8,401.1z"/>
	<path class="st5" d="M627.8,423.9c0,0.2-0.7,0.6-1.8,0.8c-0.6,0.1-1.1,0.2-1.5,0.2l-0.1-0.4h0.5c0,0.1-0.1,0.2-0.3,0.4l-0.1-0.4
		c0.3-0.2,0.8-0.3,1.4-0.5C626.8,423.7,627.7,423.7,627.8,423.9L627.8,423.9z"/>
	
		<ellipse transform="matrix(0.9307 -0.3658 0.3658 0.9307 -115.5358 259.4103)" class="st5" cx="626.8" cy="434.6" rx="2.6" ry="0.4"/>
	
		<ellipse transform="matrix(0.9467 -0.3221 0.3221 0.9467 -105.4397 222.5477)" class="st5" cx="619.8" cy="429.9" rx="1.7" ry="0.4"/>
	<path class="st5" d="M622,409.5c0,0.2-1.2,0.1-2.6-0.4s-2.3-1.1-2.3-1.3c0.1-0.2,1.2,0.1,2.5,0.6C621,408.8,622,409.3,622,409.5
		L622,409.5z"/>
	
		<ellipse transform="matrix(0.8348 -0.5505 0.5505 0.8348 -119.2449 419.3275)" class="st5" cx="639.2" cy="408.4" rx="2" ry="0.4"/>
	
		<ellipse transform="matrix(0.9791 -0.2033 0.2033 0.9791 -71.4876 138.8705)" class="st5" cx="640.2" cy="417.4" rx="1.7" ry="0.4"/>
	
		<ellipse transform="matrix(0.4202 -0.9074 0.9074 0.4202 -16.0133 829.2155)" class="st5" cx="640.9" cy="427.1" rx="0.4" ry="2.3"/>
	
		<ellipse transform="matrix(0.7727 -0.6347 0.6347 0.7727 -132.3102 505.2222)" class="st5" cx="639.4" cy="437.4" rx="0.4" ry="1.8"/>
	<path class="st5" d="M640,400.1c0.1,0.2-0.3,0.7-1,1.1s-1.4,0.4-1.5,0.2s0.5-0.5,1.1-0.9C639.3,400.2,639.9,399.9,640,400.1
		L640,400.1z"/>
	<path class="st5" d="M649.2,410c0.1,0.2-0.8,0.7-2,0.8c-1.2,0.2-2.1-0.1-2.1-0.3s0.9-0.3,2-0.5C648.3,409.9,649.2,409.8,649.2,410z
		"/>
	<path class="st5" d="M647.4,401.1c0.1,0.2-0.8,0.8-2,1.2s-2.2,0.4-2.3,0.2c0-0.2,0.9-0.5,2.1-0.9S647.3,400.9,647.4,401.1
		L647.4,401.1z"/>
	<path class="st5" d="M651.3,423.7c0,0.2-1.5,0.3-3.2,0c-1.8-0.3-3.1-0.9-3-1.1s1.4,0.1,3.1,0.4S651.3,423.5,651.3,423.7
		L651.3,423.7z"/>
	<path class="st5" d="M647.8,436.6c-0.1,0.2-1.2-0.5-2.3-1.5c-1.1-1.1-1.7-2.1-1.5-2.3c0.2-0.1,1,0.7,2.1,1.7
		C647.1,435.5,648,436.4,647.8,436.6L647.8,436.6z"/>
	<path class="st2" d="M632.7,390.6c0.1,0.2-2.9,1.4-6.4,5.1c-3.5,3.6-7.1,10-8,17.7c-0.4,3.8-0.1,7.6,0.5,10.9s1.3,6.3,2,8.7
		c0.7,2.5,1.4,4.4,1.8,5.8s0.7,2.1,0.6,2.1c0,0-0.4-0.7-0.9-2s-1.2-3.3-2-5.7s-1.6-5.4-2.2-8.8c-0.6-3.3-1-7.1-0.5-11.1
		c0.9-7.9,4.7-14.4,8.4-18c1.8-1.8,3.6-3.1,4.8-3.8c0.6-0.4,1.1-0.6,1.5-0.8C632.5,390.7,632.7,390.6,632.7,390.6L632.7,390.6z"/>
	<path class="st2" d="M642.8,441.5c-0.2-0.1,1.7-2.9,3.3-7.9c1.7-5,3.1-12.3,2-20.3c-0.5-4-1.7-7.7-3.1-10.8
		c-1.5-3.1-3.4-5.7-5.3-7.4c-2-1.7-3.9-2.7-5.2-3.3c-1.4-0.6-2.2-0.7-2.2-0.8h0.6c0.4,0.1,1,0.2,1.7,0.4c1.4,0.5,3.4,1.4,5.5,3.2
		c2,1.8,4,4.3,5.6,7.5c1.5,3.2,2.7,7,3.2,11c1.2,8.1-0.4,15.6-2.2,20.6c-0.4,1.3-0.9,2.4-1.3,3.3c-0.5,0.9-0.9,1.8-1.2,2.4
		C643.2,440.8,642.8,441.5,642.8,441.5L642.8,441.5z"/>
	<path class="st5" d="M614.3,439.7h40.5l0.3,8.1h-40.8V439.7z"/>
	<path class="st5" d="M617.7,443.8l2.4,24.7h29.6l2.4-24.4L617.7,443.8z"/>
	<ellipse class="st6" cx="634.7" cy="447.9" rx="20.4" ry="0.4"/>
	<path class="st6" d="M650.9,455.5c0,0-0.2,0.6-0.9,1.5c-0.6,0.9-1.6,2.3-3.1,3.7l-0.2,0.2l-0.2-0.2c-2-2-4.6-4.6-7.9-7h0.4
		c-1.1,1-2.3,2-3.5,3.1c-1.4,1.3-2.8,2.5-4.2,3.6l-0.2,0.2l-0.2-0.2c-2.5-2.1-4.8-4.1-6.8-5.7h0.4c-1.4,1.7-2.6,3.1-3.5,4.3
		c-0.8,1-1.3,1.5-1.4,1.5c0,0,0.4-0.6,1.1-1.7c0.9-1.2,2-2.7,3.3-4.4l0.2-0.2l0.2,0.2c2,1.6,4.3,3.5,6.9,5.6h-0.5
		c1.3-1.2,2.7-2.4,4.1-3.6c1.2-1.1,2.4-2.1,3.5-3.1l0.2-0.2l0.2,0.2c3.3,2.5,6,5,7.9,7.2h-0.4C649.6,457.6,650.8,455.4,650.9,455.5
		L650.9,455.5z"/>
</g>
<g class="st0">
	<path class="st1" d="M284.9,81.7c0-0.1,30.2-0.2,67.5-0.2s67.5,0.1,67.5,0.2s-30.2,0.2-67.5,0.2C315.1,82,284.9,81.9,284.9,81.7z"
		/>
	<circle class="st20" cx="289.2" cy="77.7" r="1.1"/>
	<circle class="st20" cx="292.9" cy="77.7" r="1.1"/>
	<circle class="st20" cx="296.5" cy="77.7" r="1.1"/>
	<path class="st1" d="M296.5,91.2h36v36h-36V91.2z"/>
	<ellipse class="st1" cx="370.1" cy="101.4" rx="31.4" ry="0.2"/>
	<ellipse class="st1" cx="370.1" cy="108.1" rx="31.4" ry="0.2"/>
	<ellipse class="st1" cx="370.1" cy="114.8" rx="31.4" ry="0.2"/>
	<path class="st1" d="M375.8,121.5c0,0-0.5,0.1-1.5,0.1s-2.4,0-4,0.1c-3.4,0-8,0.1-13.1,0.1s-9.8,0-13.1-0.1c-1.6,0-3-0.1-4-0.1
		c-0.9,0-1.5-0.1-1.5-0.1s0.5-0.1,1.5-0.1s2.4,0,4-0.1c3.4,0,8-0.1,13.1-0.1s9.8,0,13.1,0.1c1.6,0,3,0.1,4,0.1
		S375.8,121.4,375.8,121.5z"/>
	<path class="st21" d="M662.1,103.9h-3.4l-7.3-10.2V87c0,0-5.2-0.3-4.6,8.5s0,6.6,0,6.6s-11,0-12,1c-0.7,0.7-1,11.7-1.1,17.6
		c-0.1,3,1.8,5.8,4.6,6.5c0.4,0.1,0.8,0.2,1.2,0.2c2.8,0,16.8-2.2,16.8-2.2h5.8V103.9z"/>
	<path class="st21" d="M671.8,102.1l-2.1,23h-5.8v-22.6L671.8,102.1z"/>
	
		<ellipse transform="matrix(0.6423 -0.7664 0.7664 0.6423 101.0738 498.3624)" class="st7" cx="584.5" cy="140.9" rx="2.3" ry="2.3"/>
	<path class="st15" d="M319,135.3c-1.1,0-2-0.3-2.1-0.9c0-0.3,0.2-0.6,0.6-0.8s1-0.4,1.6-0.4s1.2,0.2,1.6,0.4s0.6,0.6,0.5,0.8"/>
	<path class="st5" d="M230.2,75.5l3.2,16.7l2.5-4.7l5.6,8.3l2.7-1.9l-5.5-8.3l5.1-0.7L230.2,75.5z"/>
</g>
<g class="st22">
	<path class="st23" d="M471.2,210.8h-126v-97.4h103.2c8.9,8.9,13.9,13.9,22.8,22.8V210.8z"/>
	<line class="st24" x1="342.5" y1="114.6" x2="320.4" y2="114.6"/>
	<line class="st24" x1="345.9" y1="110.5" x2="345.9" y2="88.4"/>
	<polyline class="st25" points="446.3,115.3 446.3,138.1 469.2,138.1 	"/>
</g>
<g>
	<g>
		<g>
			<path class="st26" d="M208.4,250.3l107.8-4.8l32.9,143.8l-168.2,0.9L163.8,308C158,279,179.2,251.6,208.4,250.3z"/>
			<g>
				<line class="st27" x1="212.8" y1="228.9" x2="217.9" y2="249"/>
				<line class="st27" x1="258.1" y1="228.9" x2="263.2" y2="249"/>
				<g>
					<path class="st26" d="M198.8,232.2h88.8l-19-55.1H188c-6.8,0-11.5,6.7-9.3,13.1l12.7,36.7C192.4,230.1,195.4,232.2,198.8,232.2
						z"/>
				</g>
			</g>
			<g>
				<g>
					<g>
						<g>
							<path class="st28" d="M384.8,321.8c14.4-9.6,40.2-26,40.2-26s45.5-29.5,44.7-32.1c-0.8-2.5-16.2,4.1-16.2,4.1
								c1.2-2.3,15.2-10.7,14.7-12.2c-0.6-1.5-18.4,8.2-19.2,7.5s17.8-10.8,16.7-12.8s-19.7,8-20.7,7.5c-1-0.5,17.5-11.5,15.2-13.2
								c-2.4-1.7-28,17.7-30.3,17.3c-2.3-0.4,5.8-11.9,5.3-17c-0.4-5.1-21.5,26.1-21.5,26.1c-4.8,4.2-42.9,20.5-42.9,20.5
								L384.8,321.8z"/>
							<path class="st29" d="M432.3,260.9l-6.8,12.5c0,0,3.1-12.7,2.3-13.7L432.3,260.9z"/>
							<path class="st28" d="M348.4,293.3c0,0-47.8-101.6-77.6-62.9c-32,41.6,25.5,79.4,54.9,110.5c7.8,8.2,20.7,9,29.4,1.8
								l69.2-46.4l-11.7-24L348.4,293.3z"/>
							<path class="st30" d="M297,313.2c12.8-14.5,30.3-33.6,44.2-46.9c-16.1-27.4-49.8-62.5-70.3-35.9
								C247.8,260.3,271.1,288.3,297,313.2z"/>
						</g>
						<g>
							<path class="st30" d="M197.8,260.7c-1.6-25.6,42.3-46.3,42.3-46.3l16.3-10.4l1,2.7l27.3,25.5l4.5-11.8L289,216l4.5,4.7
								c3.3,0.5,16.7,18.9,20.2,27.4c5.4,13,7,30,7.5,40.2c12.1,99.5,13.1,102.6,13.1,102.6H212.6
								C212.6,390.9,208,419.9,197.8,260.7z"/>
							<path class="st31" d="M222.9,224c1.3-0.8,80.2,166.8,80.2,166.8h-97.9c0,0-8.3-73.5-7.1-132.7
								C198.1,258.2,199.6,239.5,222.9,224z"/>
						</g>
						<g>
							<g>
								<path class="st32" d="M311.7,150.1c2.3-4.7,1.5-12.2,1.5-12.2s19.4-6.6,14.8-17.7c-4.6-11.1-27.4-4.9-27.4-4.9
									s8.6-13.2-8.3-2.5c-6.7,4.3-7.9,5.3-13.1,3c-5.2-2.3-13.5,0.7-16,5c-1.5,2.7-0.6,5.1-2.6,4.9c-7.6-0.8-11.1,7.1-5.9,23.9
									c0,0-2.6,8.6,2.5,21.9c1.8,4.8,8.1,6.4,8.1,6.4"/>
								<path class="st28" d="M311.8,139.3c0,0,5.8,38.9-6.1,53.9c-6.1,5.9-13.3,3.3-17.9,3.1c-0.2-1.7,0.7,13.5,1.5,27.1
									c0,0,0,0.1,0,0.1c-0.2,2.3-3.4,3.1-7.1,2.9c-5.7-0.3-11-3-14.8-7.2l-11.2-12.1l6.3-28.3c0,0,1.2-6.4,1-8.4
									c-4.6-0.6-7.7-7.6-5.8-12.1c1.8-4.3,8.9-4.6,10-0.5c1.1,4.1,4.6,4,5,0.6c0.2-2-1.2-18.2,10.5-20.1c7,0.5,8.7,5.4,12.2,5.6
									c3.6,0.2,6.9-7.4,8.7-5.3C309.5,145,311.8,139.3,311.8,139.3z"/>
								<path class="st29" d="M259.7,162.5c2.4-8.2,7.9-1.5,7.9-1.5L259.7,162.5z"/>
								<polygon class="st29" points="289.2,196.4 282.1,195.8 287.8,210.2 								"/>
								<g>
									<path class="st29" d="M305.6,166.7c0,0,3.3,8.3,2.8,8.3c-1.3-0.1-3.8,0-3.8,0L305.6,166.7z"/>
									
										<ellipse transform="matrix(2.470787e-02 -0.9997 0.9997 2.470787e-02 136.1451 471.2337)" class="st32" cx="309.6" cy="165.8" rx="2.2" ry="1.1"/>
									<path class="st32" d="M300.4,165.3c0,1.2,0.4,2.2,1,2.3c0.6,0,1.1-1,1.1-2.2c0-1.2-0.4-2.2-1-2.3S300.4,164.1,300.4,165.3z
										"/>
									<path class="st32" d="M294.8,157.4c-1.4,0.1-1.5-4.9,5.7-4.2c2,0.2,3.8,2.2,2.8,3.7C302.6,157.9,299.9,156.9,294.8,157.4z"
										/>
									<path class="st32" d="M312.9,158.3c1.4,0.5,3.4-3.3-0.6-4.7c-2.8-1-4.3,1.8-3.3,3.6C309.5,158.1,310.8,157.5,312.9,158.3z"
										/>
									<path class="st25" d="M308.9,178.1l-9.7-0.8c0,0,1,4.7,5.3,5C307.9,182.6,308.9,178.1,308.9,178.1z"/>
								</g>
							</g>
						</g>
						<path class="st28" d="M247,378.5c17.2-2,48.1-5.6,48.1-5.6s61.9,1.3,62.3-1.3c0.4-2.6-37.6-22.7-37.6-22.7
							c-6.2,1.5-71.6-3.7-71.6-3.7L247,378.5z"/>
						<g>
							<path class="st28" d="M241,256.4c0.4-8.5,12.1-37.1-4.4-40.5c-17.4-3.6-68.7,49-56.9,136.8c2.7,19.9,14.2,36.4,48.8,30.1
								l65.3-9.6l-2-25.1l-63.3-14.5C228.4,333.5,239.7,281.5,241,256.4z"/>
						</g>
						<g>
							<path class="st30" d="M246.9,312.4c2.6-25.1,4.6-42,5.3-55.4c0.4-8.5,0.9-37.7-15.6-41.2c-12.6-2.6-47,30-58.2,78.8
								C197,301.4,228,306.4,246.9,312.4z"/>
						</g>
					</g>
				</g>
			</g>
		</g>
		<g>
			<g>
				<g>
					<g>
						<path class="st33" d="M300.2,170.3h-5.4c-2.3,0-4.2-1.9-4.2-4.2v-5c0-2.3,1.9-4.2,4.2-4.2h5.4c2.3,0,4.2,1.9,4.2,4.2v5
							C304.5,168.4,302.6,170.3,300.2,170.3z"/>
						<path class="st33" d="M293.2,170.1c0.7-1.1,1.4-2.3,2.1-3.5c1.8-3.2,3.4-6.6,5.2-9.7h-6.2c-2.1,0-3.7,2.2-3.7,4.8v3.9
							C290.6,167.6,291.7,169.4,293.2,170.1z"/>
					</g>
					<g>
						<path class="st34" d="M300.2,170.3h-5.4c-2.3,0-4.2-1.9-4.2-4.2v-5c0-2.3,1.9-4.2,4.2-4.2h5.4c2.3,0,4.2,1.9,4.2,4.2v5
							C304.5,168.4,302.6,170.3,300.2,170.3z"/>
					</g>
				</g>
				<g>
					<g>
						<path class="st33" d="M313.6,170.1h-2.8c-1.8,0-3.3-1.5-3.3-3.3v-6.5c0-1.8,1.5-3.3,3.3-3.3h2.8c1.8,0,3.3,1.5,3.3,3.3v6.5
							C316.9,168.7,315.4,170.1,313.6,170.1z"/>
						<path class="st33" d="M308.7,169.4c2.1-4,4.2-8,6.3-12c-0.3-0.2-0.6-0.2-1-0.2h-3.6c-1.6,0-2.9,1.7-2.9,3.7v5.6
							C307.6,167.6,308,168.7,308.7,169.4z"/>
					</g>
					<path class="st35" d="M313.6,170.1h-2.8c-1.8,0-3.3-1.5-3.3-3.3v-6.5c0-1.8,1.5-3.3,3.3-3.3h2.8c1.8,0,3.3,1.5,3.3,3.3v6.5
						C316.9,168.7,315.4,170.1,313.6,170.1z"/>
				</g>
				<line class="st34" x1="304.5" y1="164.8" x2="307.3" y2="164.8"/>
			</g>
			<line class="st34" x1="270" y1="160.1" x2="290.5" y2="160.3"/>
		</g>
	</g>
</g>
<g>
	<g>
		<g>
			<rect x="302.2" y="369.4" class="st36" width="88.1" height="10.3"/>
			<path class="st37" d="M364.9,369.4c-4.4,3.4-8.8,6.8-13.1,10.3h38.3v-10.3H364.9z"/>
			<polygon class="st36" points="500.3,379.7 361.5,379.7 395,284 533.8,284 			"/>
			<line class="st38" x1="364" y1="368.7" x2="503.5" y2="368.7"/>
			<path class="st25" d="M455.8,334.6c0-4.8-3.9-8.7-8.7-8.7c-4.8,0-8.7,3.9-8.7,8.7c0,4.8,3.9,8.7,8.7,8.7
				C451.9,343.3,455.8,339.4,455.8,334.6z"/>
		</g>
	</g>
	<rect x="121.6" y="378" class="st39" width="566.6" height="14.9"/>
	<g>
		<g>
			<path class="st40" d="M184.8,378.6L184.8,378.6c-10.8,0-19.6-8.8-19.6-19.6v-27.5h39.2v27.5C204.5,369.8,195.7,378.6,184.8,378.6
				z"/>
			<path class="st40" d="M180.4,367.5c-7.8-5.6-12.7-13.9-15.1-22.9v14.3c0,10.8,8.8,19.6,19.6,19.6h0c5.1,0,9.8-2,13.3-5.2
				C192.2,373.5,186,371.6,180.4,367.5z"/>
			
				<ellipse transform="matrix(0.9739 -0.227 0.227 0.9739 -74.4274 55.8852)" class="st41" cx="205.8" cy="351.5" rx="14.8" ry="14.8"/>
		</g>
		<g class="st42">
			<g>
				<path class="st25" d="M183.1,326.3c-2.7-3.5-5.1-7.3-7.1-11.3c-1.3-2.7-2.5-5.5-2.6-8.4c-0.1-3,1.1-6.1,3.5-7.7
					c3.7-2.4,9-0.5,11.4,3.2c2.4,3.7,2.3,8.5,1,12.8c-1.2,4.2-3.4,8.1-5.1,12.2"/>
			</g>
			<g>
				<path class="st25" d="M190.3,327.1c0.7-1.5,1.5-3,3-3.8c1.4-0.8,3.6-0.5,4.2,1c0.5,1.3-0.5,2.8-1.8,3.4
					c-1.3,0.6-2.8,0.5-4.2,0.3"/>
			</g>
		</g>
	</g>
</g>
<g>
	<g>
		<g>
			<g>
				<g>
					<path class="st26" d="M493.2,232.5l-24.2-41.2c-0.2-0.2-0.5-0.1-0.5,0.2v35.1c0,0.1,0.1,0.2,0.2,0.2c0.9,0.5,1.4,1.8,0.5,3
						c0,0,0,0.1-0.1,0.1c-1.5,1.1-3.2,0.1-3.2-1.4c0-0.7,0.4-1.3,1-1.6c0.1-0.1,0.2-0.1,0.2-0.3v-35.1c0-0.3-0.4-0.4-0.5-0.2
						l-24.3,40.4c-0.1,0.1-0.1,0.2,0,0.3l12,25.4h27.1l11.9-24.6C493.2,232.7,493.2,232.6,493.2,232.5z"/>
				</g>
				<path class="st26" d="M479.9,270.2h-24.4c-0.9,0-1.6-0.7-1.6-1.6v-10c0-0.2,0.1-0.3,0.3-0.3h26.9c0.2,0,0.3,0.1,0.3,0.3v10
					C481.5,269.5,480.8,270.2,479.9,270.2z"/>
			</g>
			<g>
				<g>
					<g>
						<path class="st43" d="M430.5,145.4c0,20.6,16.7,37.3,37.3,37.3"/>
						<path class="st43" d="M505.1,220.6c0-20.6-16.7-37.3-37.3-37.3"/>
					</g>
					<g>
						<rect x="427.7" y="143.2" class="st26" width="5.5" height="5.5"/>
						<rect x="501.9" y="216.8" class="st26" width="5.5" height="5.5"/>
					</g>
				</g>
				<g>
					<line class="st43" x1="419" y1="183" x2="517.5" y2="183"/>
					<g>
						<rect x="464.8" y="180.7" class="st26" width="5.5" height="5.5"/>
						<rect x="416.2" y="180.7" class="st26" width="5.5" height="5.5"/>
						<rect x="513.7" y="180.7" class="st26" width="5.5" height="5.5"/>
					</g>
				</g>
			</g>
		</g>
	</g>
	<g>
		<path class="st44" d="M186.7,139.3l44,0.5c1.6,0,3,0.9,3.6,2.3l4,8.7c0.2,0.5,0.9,0.3,0.9-0.2l0.4-10.7l0.4-42.9
			c0-4.2-3.3-7.6-7.5-7.7l-45.5-0.5c-4.2,0-7.6,3.3-7.7,7.5l-0.4,35.3C179.1,135.8,182.5,139.2,186.7,139.3z"/>
		<path class="st36" d="M208.7,129.4l-8.2-0.1c-0.3,0-0.6-0.3-0.5-0.6l0.1-14.3c0-0.3,0.3-0.6,0.6-0.5l8.2,0.1
			c0.3,0,0.6,0.3,0.5,0.6l-0.1,14.3C209.3,129.1,209,129.4,208.7,129.4z"/>
		<path class="st40" d="M198.4,129.3l-8.4-0.1c-0.2,0-0.4-0.2-0.4-0.4l0.1-8.4c0-0.2,0.2-0.4,0.4-0.4l8.4,0.1c0.2,0,0.4,0.2,0.4,0.4
			l-0.1,8.4C198.9,129.1,198.7,129.3,198.4,129.3z"/>
		<path class="st30" d="M219,129.5l-8.2-0.1c-0.3,0-0.6-0.3-0.5-0.6l0.2-22.6c0-0.3,0.3-0.6,0.6-0.5l8.2,0.1c0.3,0,0.6,0.3,0.5,0.6
			l-0.2,22.6C219.6,129.2,219.3,129.5,219,129.5z"/>
		<path class="st26" d="M228.1,129.6l-6.6-0.1c-0.5,0-0.9-0.4-0.9-0.9l0.3-28.8c0-0.5,0.4-0.9,0.9-0.9l6.6,0.1
			c0.5,0,0.9,0.4,0.9,0.9l-0.3,28.8C229,129.2,228.6,129.6,228.1,129.6z"/>
	</g>
	<g>
		<g>
			<g>
				<circle class="st36" cx="589.9" cy="265.6" r="22"/>
				
					<ellipse transform="matrix(0.3612 -0.9325 0.9325 0.3612 108.3753 691.1025)" class="st30" cx="558.6" cy="266.5" rx="22" ry="22"/>
				
					<ellipse transform="matrix(0.9869 -0.1613 0.1613 0.9869 -39.779 96.5526)" class="st40" cx="574.8" cy="293.3" rx="22" ry="22"/>
			</g>
			<g>
				<g>
					<g>
						<polyline class="st45" points="641.8,322.4 641.8,325 639.2,325 						"/>
						<line class="st46" x1="634" y1="325" x2="510.7" y2="325"/>
						<polyline class="st45" points="508.1,325 505.5,325 505.5,322.4 						"/>
						<line class="st47" x1="505.5" y1="317.4" x2="505.5" y2="239.9"/>
						<polyline class="st45" points="505.5,237.4 505.5,234.8 508.1,234.8 						"/>
						<line class="st46" x1="513.3" y1="234.8" x2="636.6" y2="234.8"/>
						<polyline class="st45" points="639.2,234.8 641.8,234.8 641.8,237.4 						"/>
						<line class="st47" x1="641.8" y1="242.4" x2="641.8" y2="319.9"/>
					</g>
				</g>
				<g>
					<g>
						<rect x="503.8" y="232.6" class="st48" width="6.4" height="6.4"/>
						<rect x="638.3" y="232.6" class="st48" width="6.4" height="6.4"/>
					</g>
					<g>
						<rect x="503.8" y="319.9" class="st48" width="6.4" height="6.4"/>
						<rect x="638.3" y="319.9" class="st48" width="6.4" height="6.4"/>
					</g>
				</g>
			</g>
		</g>
		<path class="st26" d="M607.4,331l-4.3,12.3c-0.4,1.2-2.1,1.2-2.5,0l-8.4-27.2c-0.3-1,0.7-2,1.7-1.6l27.2,9.2
			c1.2,0.4,1.2,2.1,0,2.5l-12.9,4.1C607.8,330.3,607.5,330.6,607.4,331z"/>
	</g>
</g>
<g>
	<g>
		<path class="st30" d="M572.4,162.3c0-4.5-3.6-8.1-8.1-8.1c-4.5,0-8.1,3.6-8.1,8.1c0,4.5,3.6,8.1,8.1,8.1
			C568.7,170.4,572.4,166.8,572.4,162.3z"/>
		
			<rect x="564.3" y="143.1" transform="matrix(1 1.116956e-03 -1.116956e-03 1 0.1713 -0.6493)" class="st49" width="34.3" height="19.8"/>
	</g>
	<g>
		<path class="st40" d="M170.4,250.2c0-3.4-2.7-6.1-6.1-6.1c-3.4,0-6.1,2.7-6.1,6.1c0,3.4,2.7,6.1,6.1,6.1
			C167.7,256.3,170.4,253.6,170.4,250.2z"/>
		
			<rect x="142.5" y="204" transform="matrix(1 1.117351e-03 -1.117351e-03 1 0.2538 -0.1723)" class="st49" width="23.5" height="46.2"/>
	</g>
</g>
</svg>
